<?xml version="1.0" encoding="UTF-8" standalone="no"?><svg xmlns="http://www.w3.org/2000/svg" xmlns:xlink="http://www.w3.org/1999/xlink" contentScriptType="application/ecmascript" contentStyleType="text/css" height="547px" preserveAspectRatio="none" style="width:319px;height:547px;" version="1.1" viewBox="0 0 319 547" width="319px" zoomAndPan="magnify">
    <defs>
        <filter height="300%" id="f1q858qo614uwy" width="300%" x="-1" y="-1">
            <feGaussianBlur result="blurOut" stdDeviation="2.0" />
            <feColorMatrix in="blurOut" result="blurOut2" type="matrix" values="0 0 0 0 0 0 0 0 0 0 0 0 0 0 0 0 0 0 .4 0" />
            <feOffset dx="4.0" dy="4.0" in="blurOut2" result="blurOut3" />
            <feBlend in="SourceGraphic" in2="blurOut3" mode="normal" />
        </filter>
    </defs>
    <g><text fill="#000000" font-family="sans-serif" font-size="18" lengthAdjust="spacingAndGlyphs" textLength="156" x="80.5" y="26.708">Store suggestions</text>
        <ellipse cx="159" cy="40.9531" fill="#000000" filter="url(#f1q858qo614uwy)" rx="10" ry="10" style="stroke: none; stroke-width: 1.0;" />
        <rect fill="#FEFECE" filter="url(#f1q858qo614uwy)" height="33.9688" rx="12.5" ry="12.5" style="stroke: #A80036; stroke-width: 1.5;" width="114" x="102" y="70.9531" /><text fill="#000000" font-family="sans-serif" font-size="12" lengthAdjust="spacingAndGlyphs" textLength="94" x="112" y="92.0918">timeout trigger</text>
        <rect fill="#FEFECE" filter="url(#f1q858qo614uwy)" height="33.9688" rx="12.5" ry="12.5" style="stroke: #A80036; stroke-width: 1.5;" width="298" x="10" y="124.9219" /><text fill="#000000" font-family="sans-serif" font-size="12" lengthAdjust="spacingAndGlyphs" textLength="278" x="20" y="146.0605">check new accident data from municipalities</text>
        <rect fill="#FEFECE" filter="url(#f1q858qo614uwy)" height="33.9688" rx="12.5" ry="12.5" style="stroke: #A80036; stroke-width: 1.5;" width="215" x="51.5" y="227.293" /><text fill="#000000" font-family="sans-serif" font-size="12" lengthAdjust="spacingAndGlyphs" textLength="195" x="61.5" y="248.4316">collect data from municipalities</text>
        <rect fill="#FEFECE" filter="url(#f1q858qo614uwy)" height="47.9375" rx="12.5" ry="12.5" style="stroke: #A80036; stroke-width: 1.5;" width="193" x="62.5" y="281.2617" /><text fill="#000000" font-family="sans-serif" font-size="12" lengthAdjust="spacingAndGlyphs" textLength="173" x="72.5" y="302.4004">cross municipality data with</text><text fill="#000000" font-family="sans-serif" font-size="12" lengthAdjust="spacingAndGlyphs" textLength="124" x="76.5" y="316.3691">already stored data</text>
        <rect fill="#FEFECE" filter="url(#f1q858qo614uwy)" height="33.9688" rx="12.5" ry="12.5" style="stroke: #A80036; stroke-width: 1.5;" width="298" x="10" y="349.1992" /><text fill="#000000" font-family="sans-serif" font-size="12" lengthAdjust="spacingAndGlyphs" textLength="278" x="20" y="370.3379">build statistics for creating new suggestions</text>
        <rect fill="#FEFECE" filter="url(#f1q858qo614uwy)" height="33.9688" rx="12.5" ry="12.5" style="stroke: #A80036; stroke-width: 1.5;" width="163" x="77.5" y="451.5703" /><text fill="#000000" font-family="sans-serif" font-size="12" lengthAdjust="spacingAndGlyphs" textLength="143" x="87.5" y="472.709">store new suggestions</text>
        <polygon fill="#FEFECE" filter="url(#f1q858qo614uwy)" points="87,403.168,231,403.168,243,415.168,231,427.168,87,427.168,75,415.168,87,403.168" style="stroke: #A80036; stroke-width: 1.5;" /><text fill="#000000" font-family="sans-serif" font-size="11" lengthAdjust="spacingAndGlyphs" textLength="20" x="163" y="437.3784">yes</text><text fill="#000000" font-family="sans-serif" font-size="11" lengthAdjust="spacingAndGlyphs" textLength="144" x="87" y="418.9761">new suggestions created</text><text fill="#000000" font-family="sans-serif" font-size="11" lengthAdjust="spacingAndGlyphs" textLength="14" x="243" y="412.5737">no</text>
        <ellipse cx="277" cy="415.168" fill="none" filter="url(#f1q858qo614uwy)" rx="10" ry="10" style="stroke: #000000; stroke-width: 1.0;" />
        <ellipse cx="277.5" cy="415.668" fill="#000000" filter="url(#f1q858qo614uwy)" rx="6" ry="6" style="stroke: none; stroke-width: 1.0;" />
        <polygon fill="#FEFECE" filter="url(#f1q858qo614uwy)" points="106,178.8906,212,178.8906,224,190.8906,212,202.8906,106,202.8906,94,190.8906,106,178.8906" style="stroke: #A80036; stroke-width: 1.5;" /><text fill="#000000" font-family="sans-serif" font-size="11" lengthAdjust="spacingAndGlyphs" textLength="20" x="163" y="213.1011">yes</text><text fill="#000000" font-family="sans-serif" font-size="11" lengthAdjust="spacingAndGlyphs" textLength="106" x="106" y="194.6987">new data available</text><text fill="#000000" font-family="sans-serif" font-size="11" lengthAdjust="spacingAndGlyphs" textLength="14" x="224" y="188.2964">no</text>
        <ellipse cx="258" cy="190.8906" fill="none" filter="url(#f1q858qo614uwy)" rx="10" ry="10" style="stroke: #000000; stroke-width: 1.0;" />
        <ellipse cx="258.5" cy="191.3906" fill="#000000" filter="url(#f1q858qo614uwy)" rx="6" ry="6" style="stroke: none; stroke-width: 1.0;" />
        <ellipse cx="159" cy="515.5391" fill="none" filter="url(#f1q858qo614uwy)" rx="10" ry="10" style="stroke: #000000; stroke-width: 1.0;" />
        <ellipse cx="159.5" cy="516.0391" fill="#000000" filter="url(#f1q858qo614uwy)" rx="6" ry="6" style="stroke: none; stroke-width: 1.0;" />
        <line style="stroke: #A80036; stroke-width: 1.5;" x1="159" x2="159" y1="50.9531" y2="70.9531" />
        <polygon fill="#A80036" points="155,60.9531,159,70.9531,163,60.9531,159,64.9531" style="stroke: #A80036; stroke-width: 1.0;" />
        <line style="stroke: #A80036; stroke-width: 1.5;" x1="159" x2="159" y1="104.9219" y2="124.9219" />
        <polygon fill="#A80036" points="155,114.9219,159,124.9219,163,114.9219,159,118.9219" style="stroke: #A80036; stroke-width: 1.0;" />
        <line style="stroke: #A80036; stroke-width: 1.5;" x1="159" x2="159" y1="261.2617" y2="281.2617" />
        <polygon fill="#A80036" points="155,271.2617,159,281.2617,163,271.2617,159,275.2617" style="stroke: #A80036; stroke-width: 1.0;" />
        <line style="stroke: #A80036; stroke-width: 1.5;" x1="159" x2="159" y1="329.1992" y2="349.1992" />
        <polygon fill="#A80036" points="155,339.1992,159,349.1992,163,339.1992,159,343.1992" style="stroke: #A80036; stroke-width: 1.0;" />
        <line style="stroke: #A80036; stroke-width: 1.5;" x1="159" x2="159" y1="427.168" y2="451.5703" />
        <polygon fill="#A80036" points="155,441.5703,159,451.5703,163,441.5703,159,445.5703" style="stroke: #A80036; stroke-width: 1.0;" />
        <line style="stroke: #A80036; stroke-width: 1.5;" x1="243" x2="267" y1="415.168" y2="415.168" />
        <polygon fill="#A80036" points="257,411.168,267,415.168,257,419.168,261,415.168" style="stroke: #A80036; stroke-width: 1.0;" />
        <line style="stroke: #A80036; stroke-width: 1.5;" x1="159" x2="159" y1="485.5391" y2="505.5391" />
        <polygon fill="#A80036" points="155,495.5391,159,505.5391,163,495.5391,159,499.5391" style="stroke: #A80036; stroke-width: 1.0;" />
        <line style="stroke: #A80036; stroke-width: 1.5;" x1="159" x2="159" y1="383.168" y2="403.168" />
        <polygon fill="#A80036" points="155,393.168,159,403.168,163,393.168,159,397.168" style="stroke: #A80036; stroke-width: 1.0;" />
        <line style="stroke: #A80036; stroke-width: 1.5;" x1="159" x2="159" y1="202.8906" y2="227.293" />
        <polygon fill="#A80036" points="155,217.293,159,227.293,163,217.293,159,221.293" style="stroke: #A80036; stroke-width: 1.0;" />
        <line style="stroke: #A80036; stroke-width: 1.5;" x1="224" x2="248" y1="190.8906" y2="190.8906" />
        <polygon fill="#A80036" points="238,186.8906,248,190.8906,238,194.8906,242,190.8906" style="stroke: #A80036; stroke-width: 1.0;" />
        <line style="stroke: #A80036; stroke-width: 1.5;" x1="159" x2="159" y1="158.8906" y2="178.8906" />
        <polygon fill="#A80036" points="155,168.8906,159,178.8906,163,168.8906,159,172.8906" style="stroke: #A80036; stroke-width: 1.0;" /><text fill="#888888" font-family="sans-serif" font-size="10" lengthAdjust="spacingAndGlyphs" textLength="97" x="110" y="533.8213">Activity diagram x.x</text>
        <!--
@startuml

title Store suggestions

start
:timeout trigger;
:check new accident data from municipalities;

if (new data available) then (yes)

  :collect data from municipalities;

  :cross municipality data with
   already stored data;

  :build statistics for creating new suggestions;

  if (new suggestions created) then (yes)
    :store new suggestions;

  else (no)
    stop
  endif

else (no)
  stop

endif

stop

footer Activity diagram x.x

@enduml

PlantUML version 1.2018.14(Fri Dec 21 17:33:16 CET 2018)
(GPL source distribution)
Java Runtime: OpenJDK Runtime Environment
JVM: OpenJDK 64-Bit Server VM
Java Version: 11.0.4+11-post-Ubuntu-1ubuntu218.04.3
Operating System: Linux
OS Version: 4.18.0-22-generic
Default Encoding: UTF-8
Language: en
Country: US
-->
    </g>
</svg>