<?xml version="1.0" encoding="UTF-8" standalone="no"?><svg xmlns="http://www.w3.org/2000/svg" xmlns:xlink="http://www.w3.org/1999/xlink" contentScriptType="application/ecmascript" contentStyleType="text/css" height="406px" preserveAspectRatio="none" style="width:733px;height:406px;" version="1.1" viewBox="0 0 733 406" width="733px" zoomAndPan="magnify">
    <defs>
        <filter height="300%" id="f5k64bmr7o6i8" width="300%" x="-1" y="-1">
            <feGaussianBlur result="blurOut" stdDeviation="2.0" />
            <feColorMatrix in="blurOut" result="blurOut2" type="matrix" values="0 0 0 0 0 0 0 0 0 0 0 0 0 0 0 0 0 0 .4 0" />
            <feOffset dx="4.0" dy="4.0" in="blurOut2" result="blurOut3" />
            <feBlend in="SourceGraphic" in2="blurOut3" mode="normal" />
        </filter>
    </defs>
    <g>
        <!--MD5=[f08d83df89fe53be8480619603f4287e]
cluster SafeStreets-->
        <rect fill="#FFFFFF" filter="url(#f5k64bmr7o6i8)" height="228" style="stroke: #000000; stroke-width: 1.5;" width="486" x="22" y="157" /><text fill="#000000" font-family="sans-serif" font-size="14" font-weight="bold" lengthAdjust="spacingAndGlyphs" textLength="82" x="224" y="173.5332">SafeStreets</text>
        <ellipse cx="74.9411" cy="212.9517" fill="#FEFECE" filter="url(#f5k64bmr7o6i8)" rx="36.9411" ry="15.4517" style="stroke: #A80036; stroke-width: 1.5;" /><text fill="#000000" font-family="sans-serif" font-size="14" lengthAdjust="spacingAndGlyphs" textLength="48" x="50.9411" y="218.2564">Sign up</text>
        <ellipse cx="234.2487" cy="353.4517" fill="#FEFECE" filter="url(#f5k64bmr7o6i8)" rx="27.7487" ry="15.4517" style="stroke: #A80036; stroke-width: 1.5;" /><text fill="#000000" font-family="sans-serif" font-size="14" lengthAdjust="spacingAndGlyphs" textLength="35" x="216.7487" y="358.7564">Login</text>
        <ellipse cx="233.9661" cy="212.7932" fill="#FEFECE" filter="url(#f5k64bmr7o6i8)" rx="86.9661" ry="19.7932" style="stroke: #A80036; stroke-width: 1.5;" /><text fill="#000000" font-family="sans-serif" font-size="14" lengthAdjust="spacingAndGlyphs" textLength="143" x="162.4661" y="218.0979">Retrieve violations info</text>
        <ellipse cx="423.8977" cy="212.8795" fill="#FEFECE" filter="url(#f5k64bmr7o6i8)" rx="67.3977" ry="15.8795" style="stroke: #A80036; stroke-width: 1.5;" /><text fill="#000000" font-family="sans-serif" font-size="14" lengthAdjust="spacingAndGlyphs" textLength="94" x="376.8977" y="218.1842">Get tickets info</text>
        <!--MD5=[347b7ea19b67cc560ec7294737a845ed]
entity authority-->
        <ellipse cx="234" cy="18" fill="#FEFECE" filter="url(#f5k64bmr7o6i8)" rx="8" ry="8" style="stroke: #A80036; stroke-width: 2.0;" />
        <path d="M234,26 L234,53 M221,34 L247,34 M234,53 L221,68 M234,53 L247,68 " fill="none" filter="url(#f5k64bmr7o6i8)" style="stroke: #A80036; stroke-width: 2.0;" /><text fill="#000000" font-family="sans-serif" font-size="14" lengthAdjust="spacingAndGlyphs" textLength="55" x="206.5" y="89.5332">authority</text>
        <!--MD5=[80ff940b250173f1bb546f5ae28b6be1]
entity Google Maps-->
        <ellipse cx="566" cy="321" fill="#FEFECE" filter="url(#f5k64bmr7o6i8)" rx="8" ry="8" style="stroke: #A80036; stroke-width: 2.0;" />
        <path d="M566,329 L566,356 M553,337 L579,337 M566,356 L553,371 M566,356 L579,371 " fill="none" filter="url(#f5k64bmr7o6i8)" style="stroke: #A80036; stroke-width: 2.0;" /><text fill="#000000" font-family="sans-serif" font-size="14" lengthAdjust="spacingAndGlyphs" textLength="84" x="524" y="392.5332">Google Maps</text>
        <!--MD5=[e78f0efc01d17bcae52e1b82189f39c3]
entity MTS-->
        <ellipse cx="670" cy="321" fill="#FEFECE" filter="url(#f5k64bmr7o6i8)" rx="8" ry="8" style="stroke: #A80036; stroke-width: 2.0;" />
        <path d="M670,329 L670,356 M657,337 L683,337 M670,356 L657,371 M670,356 L683,371 " fill="none" filter="url(#f5k64bmr7o6i8)" style="stroke: #A80036; stroke-width: 2.0;" /><text fill="#000000" font-family="sans-serif" font-size="14" lengthAdjust="spacingAndGlyphs" textLength="29" x="655.5" y="392.5332">MTS</text>
        <!--MD5=[709f286eb182a7abcd0b922e88acea87]
link authority to Sign up-->
        <path d="M206.441,75.53 C184.779,94.783 154.166,122.813 129,149 C113.428,165.203 96.7824,185.053 86.1538,198.088 " fill="none" id="authority-Sign up" style="stroke: #A80036; stroke-width: 1.0;" /><text fill="#000000" font-family="sans-serif" font-size="13" lengthAdjust="spacingAndGlyphs" textLength="52" x="156" y="137.4951">«initiate»</text>
        <!--MD5=[97c59fae96b91116e489a2f5954aa3ac]
link Sign up to Login-->
        <path d="M90.2456,227.28 C119.554,252.81 183.663,308.653 215.417,336.3131 " fill="none" id="Sign up-&gt;Login" style="stroke: #A80036; stroke-width: 1.0; stroke-dasharray: 7.0,7.0;" />
        <polygon fill="#A80036" points="219.493,339.863,215.334,330.9353,215.7228,336.5788,210.0794,336.9676,219.493,339.863" style="stroke: #A80036; stroke-width: 1.0;" /><text fill="#000000" font-family="sans-serif" font-size="13" lengthAdjust="spacingAndGlyphs" textLength="55" x="151" y="277.4951">«include»</text>
        <!--MD5=[1d6c16cd1a71b5e44746e9521c8c6e1d]
link authority to Retrieve violations info-->
        <path d="M234,93.251 C234,125.388 234,168.32 234,192.781 " fill="none" id="authority-Retrieve violations info" style="stroke: #A80036; stroke-width: 1.0;" /><text fill="#000000" font-family="sans-serif" font-size="13" lengthAdjust="spacingAndGlyphs" textLength="52" x="235" y="137.4951">«initiate»</text>
        <!--MD5=[764bf951ff3f9a7ac334edcc6d15cbca]
link Retrieve violations info to Login-->
        <path d="M234,233.258 C234,259.459 234,306.1029 234,332.6218 " fill="none" id="Retrieve violations info-&gt;Login" style="stroke: #A80036; stroke-width: 1.0; stroke-dasharray: 7.0,7.0;" />
        <polygon fill="#A80036" points="234,337.6452,238,328.6452,234,332.6452,230,328.6452,234,337.6452" style="stroke: #A80036; stroke-width: 1.0;" /><text fill="#000000" font-family="sans-serif" font-size="13" lengthAdjust="spacingAndGlyphs" textLength="55" x="235" y="277.4951">«include»</text>
        <!--MD5=[b53fbdf23097f227d0a918db14ddb0c4]
reverse link Retrieve violations info to Google Maps-->
        <path d="M301.633,228.285 C336.666,236.636 379.787,248.416 417,263 C459.573,279.684 469.095,286.974 508,311 C513.162,314.1878 518.473,317.6757 523.686,321.232 " fill="none" id="Retrieve violations info&lt;-Google Maps" style="stroke: #A80036; stroke-width: 1.0;" />
        <polygon fill="#A80036" points="296.524,227.078,304.3627,233.0408,301.3899,228.2281,306.2027,225.2553,296.524,227.078" style="stroke: #A80036; stroke-width: 1.0;" /><text fill="#000000" font-family="sans-serif" font-size="13" lengthAdjust="spacingAndGlyphs" textLength="74" x="459" y="277.4951">«participate»</text>
        <!--MD5=[505ee5d736c797bca520412b3ce557b4]
link authority to Get tickets info-->
        <path d="M261.628,74.838 C301.458,108.485 373.843,169.631 406.814,197.482 " fill="none" id="authority-Get tickets info" style="stroke: #A80036; stroke-width: 1.0;" /><text fill="#000000" font-family="sans-serif" font-size="13" lengthAdjust="spacingAndGlyphs" textLength="52" x="336" y="137.4951">«initiate»</text>
        <!--MD5=[4b81883d8b8fca0df07b80085038cfdc]
reverse link Get tickets info to MTS-->
        <path d="M496.669,215.384 C540.015,219.753 593.694,231.823 631,263 C645.566,275.173 654.852,293.826 660.689,310.9582 " fill="none" id="Get tickets info&lt;-MTS" style="stroke: #A80036; stroke-width: 1.0;" />
        <polygon fill="#A80036" points="491.436,214.888,500.0188,219.7186,496.4137,215.3593,500.773,211.7542,491.436,214.888" style="stroke: #A80036; stroke-width: 1.0;" /><text fill="#000000" font-family="sans-serif" font-size="13" lengthAdjust="spacingAndGlyphs" textLength="74" x="647" y="277.4951">«participate»</text>
        <!--MD5=[3dd6318647ca31b57f058a40c0735cfa]
link Get tickets info to Login-->
        <path d="M404.026,228.56 C367.678,255.055 291.102,310.8759 254.425,337.6115 " fill="none" id="Get tickets info-&gt;Login" style="stroke: #A80036; stroke-width: 1.0; stroke-dasharray: 7.0,7.0;" />
        <polygon fill="#A80036" points="250.155,340.7238,259.7844,338.6562,254.1959,337.7792,255.0729,332.1907,250.155,340.7238" style="stroke: #A80036; stroke-width: 1.0;" /><text fill="#000000" font-family="sans-serif" font-size="13" lengthAdjust="spacingAndGlyphs" textLength="55" x="353" y="277.4951">«include»</text>
        <!--MD5=[e13f8739ff402a994d2ac79078bd1bfa]
@startuml

actor authority
actor :Google Maps:
actor MTS

rectangle SafeStreets{

  :authority: - - (Sign up) : <<initiate>>
  (Sign up) ..> (Login) : <<include>>

  :authority: - - (Retrieve violations info) : <<initiate>>
  (Retrieve violations info) ..> (Login) : <<include>>
  (Retrieve violations info) <- - :Google Maps: : <<participate>>

  :authority: - - (Get tickets info) : <<initiate>>
  (Get tickets info) <- - :MTS: : <<participate>>
  (Get tickets info) ..> (Login) : <<include>>

}


@enduml

PlantUML version 1.2019.11(Sun Sep 22 12:02:15 CEST 2019)
(GPL source distribution)
Java Runtime: Java(TM) SE Runtime Environment
JVM: Java HotSpot(TM) Client VM
Java Version: 1.8.0_221-b11
Operating System: Windows 10
Default Encoding: Cp1252
Language: en
Country: US
-->
    </g>
</svg>