<svg version="1.1" xmlns="http://www.w3.org/2000/svg" xmlns:xlink="http://www.w3.org/1999/xlink" width="1106.58984375" height="920"><defs/><g transform="translate(-78,-54) scale(1,1)"><rect fill="#C0C0C0" stroke="none" x="799" y="319" width="80.2353515625" height="85" opacity="0.2"/></g><g transform="translate(-78,-54) scale(1,1)"><rect fill="#ffffff" stroke="none" x="792" y="312" width="80.2353515625" height="85"/></g><g transform="translate(-78,-54) scale(1,1)"><path fill="none" stroke="#000000" d="M 792 312 L 872.2353515625 312 L 872.2353515625 397 L 792 397 L 792 312 Z Z" stroke-miterlimit="10"/></g><g transform="translate(-78,-54) scale(1,1)"><path fill="none" stroke="#000000" d="M 792 350 L 872.2353515625 350" stroke-miterlimit="10"/></g><g transform="translate(-78,-54) scale(1,1)"><path fill="none" stroke="#000000" d="M 792 388 L 872.2353515625 388" stroke-miterlimit="10"/></g><g transform="translate(-78,-54) scale(1,1)"><g><path fill="none" stroke="none"/><text fill="#000000" stroke="none" font-family="Arial" font-size="13px" font-style="normal" font-weight="normal" text-decoration="none" x="801.766357421875" y="329.5">«abstract»</text></g></g><g transform="translate(-78,-54) scale(1,1)"><g><path fill="none" stroke="none"/><text fill="#000000" stroke="none" font-family="Arial" font-size="13px" font-style="normal" font-weight="bold" text-decoration="none" x="818.39404296875" y="344.5">User</text></g></g><g transform="translate(-78,-54) scale(1,1)"><g><path fill="none" stroke="none"/><text fill="#000000" stroke="none" font-family="Arial" font-size="13px" font-style="normal" font-weight="normal" text-decoration="none" x="797" y="367.5">+email</text></g></g><g transform="translate(-78,-54) scale(1,1)"><g><path fill="none" stroke="none"/><text fill="#000000" stroke="none" font-family="Arial" font-size="13px" font-style="normal" font-weight="normal" text-decoration="none" x="797" y="382.5">+password</text></g></g><g transform="translate(-78,-54) scale(1,1)"><rect fill="#C0C0C0" stroke="none" x="671" y="519" width="94.236328125" height="44" opacity="0.2"/></g><g transform="translate(-78,-54) scale(1,1)"><rect fill="#ffffff" stroke="none" x="664" y="512" width="94.236328125" height="44"/></g><g transform="translate(-78,-54) scale(1,1)"><path fill="none" stroke="#000000" d="M 664 512 L 758.236328125 512 L 758.236328125 556 L 664 556 L 664 512 Z Z" stroke-miterlimit="10"/></g><g transform="translate(-78,-54) scale(1,1)"><path fill="none" stroke="#000000" d="M 664 537 L 758.236328125 537" stroke-miterlimit="10"/></g><g transform="translate(-78,-54) scale(1,1)"><path fill="none" stroke="#000000" d="M 664 547 L 758.236328125 547" stroke-miterlimit="10"/></g><g transform="translate(-78,-54) scale(1,1)"><g><path fill="none" stroke="none"/><text fill="#000000" stroke="none" font-family="Arial" font-size="13px" font-style="normal" font-weight="bold" text-decoration="none" x="671.0263671875" y="531.5">CommonUser</text></g></g><g transform="translate(-78,-54) scale(1,1)"><rect fill="#C0C0C0" stroke="none" x="799" y="519" width="74.77001953125" height="44" opacity="0.2"/></g><g transform="translate(-78,-54) scale(1,1)"><rect fill="#ffffff" stroke="none" x="792" y="512" width="74.77001953125" height="44"/></g><g transform="translate(-78,-54) scale(1,1)"><path fill="none" stroke="#000000" d="M 792 512 L 866.77001953125 512 L 866.77001953125 556 L 792 556 L 792 512 Z Z" stroke-miterlimit="10"/></g><g transform="translate(-78,-54) scale(1,1)"><path fill="none" stroke="#000000" d="M 792 537 L 866.77001953125 537" stroke-miterlimit="10"/></g><g transform="translate(-78,-54) scale(1,1)"><path fill="none" stroke="#000000" d="M 792 547 L 866.77001953125 547" stroke-miterlimit="10"/></g><g transform="translate(-78,-54) scale(1,1)"><g><path fill="none" stroke="none"/><text fill="#000000" stroke="none" font-family="Arial" font-size="13px" font-style="normal" font-weight="bold" text-decoration="none" x="803.734130859375" y="531.5">Authority</text></g></g><g transform="translate(-78,-54) scale(1,1)"><rect fill="#C0C0C0" stroke="none" x="911" y="519" width="113.025390625" height="44" opacity="0.2"/></g><g transform="translate(-78,-54) scale(1,1)"><rect fill="#ffffff" stroke="none" x="904" y="512" width="113.025390625" height="44"/></g><g transform="translate(-78,-54) scale(1,1)"><path fill="none" stroke="#000000" d="M 904 512 L 1017.025390625 512 L 1017.025390625 556 L 904 556 L 904 512 Z Z" stroke-miterlimit="10"/></g><g transform="translate(-78,-54) scale(1,1)"><path fill="none" stroke="#000000" d="M 904 537 L 1017.025390625 537" stroke-miterlimit="10"/></g><g transform="translate(-78,-54) scale(1,1)"><path fill="none" stroke="#000000" d="M 904 547 L 1017.025390625 547" stroke-miterlimit="10"/></g><g transform="translate(-78,-54) scale(1,1)"><g><path fill="none" stroke="none"/><text fill="#000000" stroke="none" font-family="Arial" font-size="13px" font-style="normal" font-weight="bold" text-decoration="none" x="912.832275390625" y="531.5">MunicipalityUser</text></g></g><g transform="translate(-78,-54) scale(1,1)"><path fill="none" stroke="#000000" d="M 712 512 L 712 456 L 816 456 L 816 397" stroke-miterlimit="10"/></g><g transform="translate(-78,-54) scale(1,1)"><path fill="#FFFFFF" stroke="none" d="M 824.419035512032 417.3253497152483 L 816 397 L 807.580964487968 417.3253497152483"/></g><g transform="translate(-78,-54) scale(1,1)"><path fill="none" stroke="#000000" d="M 824.419035512032 417.3253497152483 L 816 397 L 807.580964487968 417.3253497152483 L 824.419035512032 417.3253497152483" stroke-miterlimit="10"/></g><g transform="translate(-78,-54) scale(1,1)"><path fill="none" stroke="#000000" d="M 832 512 L 832 397" stroke-miterlimit="10"/></g><g transform="translate(-78,-54) scale(1,1)"><path fill="#FFFFFF" stroke="none" d="M 840.419035512032 417.3253497152483 L 832 397 L 823.580964487968 417.3253497152483"/></g><g transform="translate(-78,-54) scale(1,1)"><path fill="none" stroke="#000000" d="M 840.419035512032 417.3253497152483 L 832 397 L 823.580964487968 417.3253497152483 L 840.419035512032 417.3253497152483" stroke-miterlimit="10"/></g><g transform="translate(-78,-54) scale(1,1)"><path fill="none" stroke="#000000" d="M 960 512 L 960 456 L 848 456 L 848 397" stroke-miterlimit="10"/></g><g transform="translate(-78,-54) scale(1,1)"><path fill="#FFFFFF" stroke="none" d="M 856.419035512032 417.3253497152483 L 848 397 L 839.580964487968 417.3253497152483"/></g><g transform="translate(-78,-54) scale(1,1)"><path fill="none" stroke="#000000" d="M 856.419035512032 417.3253497152483 L 848 397 L 839.580964487968 417.3253497152483 L 856.419035512032 417.3253497152483" stroke-miterlimit="10"/></g><g transform="translate(-78,-54) scale(1,1)"><rect fill="#C0C0C0" stroke="none" x="231" y="335" width="80.5380859375" height="44" opacity="0.2"/></g><g transform="translate(-78,-54) scale(1,1)"><rect fill="#ffffff" stroke="none" x="224" y="328" width="80.5380859375" height="44"/></g><g transform="translate(-78,-54) scale(1,1)"><path fill="none" stroke="#000000" d="M 224 328 L 304.5380859375 328 L 304.5380859375 372 L 224 372 L 224 328 Z Z" stroke-miterlimit="10"/></g><g transform="translate(-78,-54) scale(1,1)"><path fill="none" stroke="#000000" d="M 224 353 L 304.5380859375 353" stroke-miterlimit="10"/></g><g transform="translate(-78,-54) scale(1,1)"><path fill="none" stroke="#000000" d="M 224 363 L 304.5380859375 363" stroke-miterlimit="10"/></g><g transform="translate(-78,-54) scale(1,1)"><g><path fill="none" stroke="none"/><text fill="#000000" stroke="none" font-family="Arial" font-size="13px" font-style="normal" font-weight="bold" text-decoration="none" x="230.305908203125" y="347.5">SafeStreets</text></g></g><g transform="translate(-78,-54) scale(1,1)"><rect fill="#C0C0C0" stroke="none" x="343" y="639" width="96" height="44" opacity="0.2"/></g><g transform="translate(-78,-54) scale(1,1)"><rect fill="#ffffff" stroke="none" x="336" y="632" width="96" height="44"/></g><g transform="translate(-78,-54) scale(1,1)"><path fill="none" stroke="#000000" d="M 336 632 L 432 632 L 432 676 L 336 676 L 336 632 Z Z" stroke-miterlimit="10"/></g><g transform="translate(-78,-54) scale(1,1)"><path fill="none" stroke="#000000" d="M 336 657 L 432 657" stroke-miterlimit="10"/></g><g transform="translate(-78,-54) scale(1,1)"><path fill="none" stroke="#000000" d="M 336 667 L 432 667" stroke-miterlimit="10"/></g><g transform="translate(-78,-54) scale(1,1)"><g><path fill="none" stroke="none"/><text fill="#000000" stroke="none" font-family="Arial" font-size="13px" font-style="normal" font-weight="bold" text-decoration="none" x="347.869140625" y="651.5">SafeReports</text></g></g><g transform="translate(-78,-54) scale(1,1)"><rect fill="#C0C0C0" stroke="none" x="343" y="735" width="94.26171875" height="44" opacity="0.2"/></g><g transform="translate(-78,-54) scale(1,1)"><rect fill="#ffffff" stroke="none" x="336" y="728" width="94.26171875" height="44"/></g><g transform="translate(-78,-54) scale(1,1)"><path fill="none" stroke="#000000" d="M 336 728 L 430.26171875 728 L 430.26171875 772 L 336 772 L 336 728 Z Z" stroke-miterlimit="10"/></g><g transform="translate(-78,-54) scale(1,1)"><path fill="none" stroke="#000000" d="M 336 753 L 430.26171875 753" stroke-miterlimit="10"/></g><g transform="translate(-78,-54) scale(1,1)"><path fill="none" stroke="#000000" d="M 336 763 L 430.26171875 763" stroke-miterlimit="10"/></g><g transform="translate(-78,-54) scale(1,1)"><g><path fill="none" stroke="none"/><text fill="#000000" stroke="none" font-family="Arial" font-size="13px" font-style="normal" font-weight="bold" text-decoration="none" x="343.75" y="747.5">SafeAnalytics</text></g></g><g transform="translate(-78,-54) scale(1,1)"><rect fill="#C0C0C0" stroke="none" x="343" y="831" width="96" height="44" opacity="0.2"/></g><g transform="translate(-78,-54) scale(1,1)"><rect fill="#ffffff" stroke="none" x="336" y="824" width="96" height="44"/></g><g transform="translate(-78,-54) scale(1,1)"><path fill="none" stroke="#000000" d="M 336 824 L 432 824 L 432 868 L 336 868 L 336 824 Z Z" stroke-miterlimit="10"/></g><g transform="translate(-78,-54) scale(1,1)"><path fill="none" stroke="#000000" d="M 336 849 L 432 849" stroke-miterlimit="10"/></g><g transform="translate(-78,-54) scale(1,1)"><path fill="none" stroke="#000000" d="M 336 859 L 432 859" stroke-miterlimit="10"/></g><g transform="translate(-78,-54) scale(1,1)"><g><path fill="none" stroke="none"/><text fill="#000000" stroke="none" font-family="Arial" font-size="13px" font-style="normal" font-weight="bold" text-decoration="none" x="350.284423828125" y="843.5">SafeTickets</text></g></g><g transform="translate(-78,-54) scale(1,1)"><rect fill="#C0C0C0" stroke="none" x="335" y="927" width="114.46630859375" height="44" opacity="0.2"/></g><g transform="translate(-78,-54) scale(1,1)"><rect fill="#ffffff" stroke="none" x="328" y="920" width="114.46630859375" height="44"/></g><g transform="translate(-78,-54) scale(1,1)"><path fill="none" stroke="#000000" d="M 328 920 L 442.46630859375 920 L 442.46630859375 964 L 328 964 L 328 920 Z Z" stroke-miterlimit="10"/></g><g transform="translate(-78,-54) scale(1,1)"><path fill="none" stroke="#000000" d="M 328 945 L 442.46630859375 945" stroke-miterlimit="10"/></g><g transform="translate(-78,-54) scale(1,1)"><path fill="none" stroke="#000000" d="M 328 955 L 442.46630859375 955" stroke-miterlimit="10"/></g><g transform="translate(-78,-54) scale(1,1)"><g><path fill="none" stroke="none"/><text fill="#000000" stroke="none" font-family="Arial" font-size="13px" font-style="normal" font-weight="bold" text-decoration="none" x="336.08642578125" y="939.5">SafeSuggestions</text></g></g><g transform="translate(-78,-54) scale(1,1)"><path fill="none" stroke="#000000" d="M 305 350 L 792 350" stroke-miterlimit="10"/></g><g transform="translate(-78,-54) scale(1,1)"><path fill="none" stroke="#000000" d="M 432 654 L 704 654 L 704 556" stroke-miterlimit="10"/></g><g transform="translate(-78,-54) scale(1,1)"><g><path fill="none" stroke="none"/><text fill="#000000" stroke="none" font-family="Arial" font-size="13px" font-style="normal" font-weight="normal" text-decoration="none" x="525.75" y="644.5">+sends report</text></g></g><g transform="translate(-78,-54) scale(1,1)"><g><path fill="none" stroke="none"/><text fill="#000000" stroke="none" font-family="Arial" font-size="13px" font-style="normal" font-weight="normal" text-decoration="none" x="449.5" y="672.5">1</text></g></g><g transform="translate(-78,-54) scale(1,1)"><g><path fill="none" stroke="none"/><text fill="#000000" stroke="none" font-family="Arial" font-size="13px" font-style="normal" font-weight="normal" text-decoration="none" x="687.220458984375" y="580.5">*</text></g></g><g transform="translate(-78,-54) scale(1,1)"><path fill="none" stroke="#000000" d="M 430 744 L 720 744 L 720 556" stroke-miterlimit="10"/></g><g transform="translate(-78,-54) scale(1,1)"><g><path fill="none" stroke="none"/><text fill="#000000" stroke="none" font-family="Arial" font-size="13px" font-style="normal" font-weight="normal" text-decoration="none" x="525.5" y="732.5">+requests data</text></g></g><g transform="translate(-78,-54) scale(1,1)"><g><path fill="none" stroke="none"/><text fill="#000000" stroke="none" font-family="Arial" font-size="13px" font-style="normal" font-weight="normal" text-decoration="none" x="447.5" y="740.5">1</text></g></g><g transform="translate(-78,-54) scale(1,1)"><g><path fill="none" stroke="none"/><text fill="#000000" stroke="none" font-family="Arial" font-size="13px" font-style="normal" font-weight="normal" text-decoration="none" x="729.220458984375" y="579.5">*</text></g></g><g transform="translate(-78,-54) scale(1,1)"><path fill="none" stroke="#000000" d="M 430 760 L 824 760 L 824 556" stroke-miterlimit="10"/></g><g transform="translate(-78,-54) scale(1,1)"><g><path fill="none" stroke="none"/><text fill="#000000" stroke="none" font-family="Arial" font-size="13px" font-style="normal" font-weight="normal" text-decoration="none" x="574.5" y="780.5">+requests data</text></g></g><g transform="translate(-78,-54) scale(1,1)"><g><path fill="none" stroke="none"/><text fill="#000000" stroke="none" font-family="Arial" font-size="13px" font-style="normal" font-weight="normal" text-decoration="none" x="447.5" y="778.5">1</text></g></g><g transform="translate(-78,-54) scale(1,1)"><g><path fill="none" stroke="none"/><text fill="#000000" stroke="none" font-family="Arial" font-size="13px" font-style="normal" font-weight="normal" text-decoration="none" x="807.220458984375" y="580.5">*</text></g></g><g transform="translate(-78,-54) scale(1,1)"><path fill="none" stroke="#000000" d="M 432 846 L 841 846 L 841 556" stroke-miterlimit="10"/></g><g transform="translate(-78,-54) scale(1,1)"><g><path fill="none" stroke="none"/><text fill="#000000" stroke="none" font-family="Arial" font-size="13px" font-style="normal" font-weight="normal" text-decoration="none" x="597.5" y="836.5">+requests data</text></g></g><g transform="translate(-78,-54) scale(1,1)"><g><path fill="none" stroke="none"/><text fill="#000000" stroke="none" font-family="Arial" font-size="13px" font-style="normal" font-weight="normal" text-decoration="none" x="449.5" y="864.5">1</text></g></g><g transform="translate(-78,-54) scale(1,1)"><g><path fill="none" stroke="none"/><text fill="#000000" stroke="none" font-family="Arial" font-size="13px" font-style="normal" font-weight="normal" text-decoration="none" x="850.220458984375" y="579.5">*</text></g></g><g transform="translate(-78,-54) scale(1,1)"><path fill="none" stroke="#000000" d="M 442 944 L 960 944 L 960 556" stroke-miterlimit="10"/></g><g transform="translate(-78,-54) scale(1,1)"><g><path fill="none" stroke="none"/><text fill="#000000" stroke="none" font-family="Arial" font-size="13px" font-style="normal" font-weight="normal" text-decoration="none" x="653.5" y="932.5">+requests suggestion</text></g></g><g transform="translate(-78,-54) scale(1,1)"><g><path fill="none" stroke="none"/><text fill="#000000" stroke="none" font-family="Arial" font-size="13px" font-style="normal" font-weight="normal" text-decoration="none" x="459.5" y="962.5">1</text></g></g><g transform="translate(-78,-54) scale(1,1)"><g><path fill="none" stroke="none"/><text fill="#000000" stroke="none" font-family="Arial" font-size="13px" font-style="normal" font-weight="normal" text-decoration="none" x="969.220458984375" y="583.5">*</text></g></g><g transform="translate(-78,-54) scale(1,1)"><rect fill="#C0C0C0" stroke="none" x="447" y="463" width="113.54150390625" height="117" opacity="0.2"/></g><g transform="translate(-78,-54) scale(1,1)"><rect fill="#ffffff" stroke="none" x="440" y="456" width="113.54150390625" height="117"/></g><g transform="translate(-78,-54) scale(1,1)"><path fill="none" stroke="#000000" d="M 440 456 L 553.54150390625 456 L 553.54150390625 573 L 440 573 L 440 456 Z Z" stroke-miterlimit="10"/></g><g transform="translate(-78,-54) scale(1,1)"><path fill="none" stroke="#000000" d="M 440 481 L 553.54150390625 481" stroke-miterlimit="10"/></g><g transform="translate(-78,-54) scale(1,1)"><path fill="none" stroke="#000000" d="M 440 564 L 553.54150390625 564" stroke-miterlimit="10"/></g><g transform="translate(-78,-54) scale(1,1)"><g><path fill="none" stroke="none"/><text fill="#000000" stroke="none" font-family="Arial" font-size="13px" font-style="normal" font-weight="bold" text-decoration="none" x="452.445068359375" y="475.5">ViolationReport</text></g></g><g transform="translate(-78,-54) scale(1,1)"><g><path fill="none" stroke="none"/><text fill="#000000" stroke="none" font-family="Arial" font-size="13px" font-style="normal" font-weight="normal" text-decoration="none" x="445" y="498.5">+picture</text></g></g><g transform="translate(-78,-54) scale(1,1)"><g><path fill="none" stroke="none"/><text fill="#000000" stroke="none" font-family="Arial" font-size="13px" font-style="normal" font-weight="normal" text-decoration="none" x="445" y="513.5">+licensePlate</text></g></g><g transform="translate(-78,-54) scale(1,1)"><g><path fill="none" stroke="none"/><text fill="#000000" stroke="none" font-family="Arial" font-size="13px" font-style="normal" font-weight="normal" text-decoration="none" x="445" y="528.5">+violationType</text></g></g><g transform="translate(-78,-54) scale(1,1)"><g><path fill="none" stroke="none"/><text fill="#000000" stroke="none" font-family="Arial" font-size="13px" font-style="normal" font-weight="normal" text-decoration="none" x="445" y="543.5">+position</text></g></g><g transform="translate(-78,-54) scale(1,1)"><g><path fill="none" stroke="none"/><text fill="#000000" stroke="none" font-family="Arial" font-size="13px" font-style="normal" font-weight="normal" text-decoration="none" x="445" y="558.5">+timestamp</text></g></g><g transform="translate(-78,-54) scale(1,1)"><path fill="none" stroke="#000000" d="M 554 536 L 664 536" stroke-miterlimit="10"/></g><g transform="translate(-78,-54) scale(1,1)"><g><path fill="none" stroke="none"/><text fill="#000000" stroke="none" font-family="Arial" font-size="13px" font-style="normal" font-weight="normal" text-decoration="none" x="576.5" y="527.5">+generates</text></g></g><g transform="translate(-78,-54) scale(1,1)"><g><path fill="none" stroke="none"/><text fill="#000000" stroke="none" font-family="Arial" font-size="13px" font-style="normal" font-weight="normal" text-decoration="none" x="565.5" y="554.5">0..*</text></g></g><g transform="translate(-78,-54) scale(1,1)"><g><path fill="none" stroke="none"/><text fill="#000000" stroke="none" font-family="Arial" font-size="13px" font-style="normal" font-weight="normal" text-decoration="none" x="647.5" y="554.5">1</text></g></g><g transform="translate(-78,-54) scale(1,1)"><rect fill="#C0C0C0" stroke="none" x="1095" y="231" width="72.2353515625" height="72" opacity="0.2"/></g><g transform="translate(-78,-54) scale(1,1)"><rect fill="#ffffff" stroke="none" x="1088" y="224" width="72.2353515625" height="72"/></g><g transform="translate(-78,-54) scale(1,1)"><path fill="none" stroke="#000000" d="M 1088 224 L 1160.2353515625 224 L 1160.2353515625 296 L 1088 296 L 1088 224 Z Z" stroke-miterlimit="10"/></g><g transform="translate(-78,-54) scale(1,1)"><path fill="none" stroke="#000000" d="M 1088 249 L 1160.2353515625 249" stroke-miterlimit="10"/></g><g transform="translate(-78,-54) scale(1,1)"><path fill="none" stroke="#000000" d="M 1088 287 L 1160.2353515625 287" stroke-miterlimit="10"/></g><g transform="translate(-78,-54) scale(1,1)"><g><path fill="none" stroke="none"/><text fill="#000000" stroke="none" font-family="Arial" font-size="13px" font-style="normal" font-weight="bold" text-decoration="none" x="1108.213623046875" y="243.5">Login</text></g></g><g transform="translate(-78,-54) scale(1,1)"><g><path fill="none" stroke="none"/><text fill="#000000" stroke="none" font-family="Arial" font-size="13px" font-style="normal" font-weight="normal" text-decoration="none" x="1093" y="266.5">+email</text></g></g><g transform="translate(-78,-54) scale(1,1)"><g><path fill="none" stroke="none"/><text fill="#000000" stroke="none" font-family="Arial" font-size="13px" font-style="normal" font-weight="normal" text-decoration="none" x="1093" y="281.5">+password</text></g></g><g transform="translate(-78,-54) scale(1,1)"><rect fill="#C0C0C0" stroke="none" x="1079" y="415" width="102.58984375" height="87" opacity="0.2"/></g><g transform="translate(-78,-54) scale(1,1)"><rect fill="#ffffff" stroke="none" x="1072" y="408" width="102.58984375" height="87"/></g><g transform="translate(-78,-54) scale(1,1)"><path fill="none" stroke="#000000" d="M 1072 408 L 1174.58984375 408 L 1174.58984375 495 L 1072 495 L 1072 408 Z Z" stroke-miterlimit="10"/></g><g transform="translate(-78,-54) scale(1,1)"><path fill="none" stroke="#000000" d="M 1072 433 L 1174.58984375 433" stroke-miterlimit="10"/></g><g transform="translate(-78,-54) scale(1,1)"><path fill="none" stroke="#000000" d="M 1072 486 L 1174.58984375 486" stroke-miterlimit="10"/></g><g transform="translate(-78,-54) scale(1,1)"><g><path fill="none" stroke="none"/><text fill="#000000" stroke="none" font-family="Arial" font-size="13px" font-style="normal" font-weight="bold" text-decoration="none" x="1088.611328125" y="427.5">Registration</text></g></g><g transform="translate(-78,-54) scale(1,1)"><g><path fill="none" stroke="none"/><text fill="#000000" stroke="none" font-family="Arial" font-size="13px" font-style="normal" font-weight="normal" text-decoration="none" x="1077" y="450.5">+activationCode</text></g></g><g transform="translate(-78,-54) scale(1,1)"><g><path fill="none" stroke="none"/><text fill="#000000" stroke="none" font-family="Arial" font-size="13px" font-style="normal" font-weight="normal" text-decoration="none" x="1077" y="465.5">+email</text></g></g><g transform="translate(-78,-54) scale(1,1)"><g><path fill="none" stroke="none"/><text fill="#000000" stroke="none" font-family="Arial" font-size="13px" font-style="normal" font-weight="normal" text-decoration="none" x="1077" y="480.5">+password</text></g></g><g transform="translate(-78,-54) scale(1,1)"><path fill="none" stroke="#000000" d="M 872 336 L 1120 336 L 1120 296" stroke-miterlimit="10"/></g><g transform="translate(-78,-54) scale(1,1)"><g><path fill="none" stroke="none"/><text fill="#000000" stroke="none" font-family="Arial" font-size="13px" font-style="normal" font-weight="normal" text-decoration="none" x="953.5" y="332.5">+performs</text></g></g><g transform="translate(-78,-54) scale(1,1)"><g><path fill="none" stroke="none"/><text fill="#000000" stroke="none" font-family="Arial" font-size="13px" font-style="normal" font-weight="normal" text-decoration="none" x="889.726806640625" y="332.5">1</text></g></g><g transform="translate(-78,-54) scale(1,1)"><g><path fill="none" stroke="none"/><text fill="#000000" stroke="none" font-family="Arial" font-size="13px" font-style="normal" font-weight="normal" text-decoration="none" x="1103.220458984375" y="323.5">*</text></g></g><g transform="translate(-78,-54) scale(1,1)"><path fill="none" stroke="#000000" d="M 872 368 L 1120 368 L 1120 408" stroke-miterlimit="10"/></g><g transform="translate(-78,-54) scale(1,1)"><g><path fill="none" stroke="none"/><text fill="#000000" stroke="none" font-family="Arial" font-size="13px" font-style="normal" font-weight="normal" text-decoration="none" x="956.5" y="363.5">+performs</text></g></g><g transform="translate(-78,-54) scale(1,1)"><g><path fill="none" stroke="none"/><text fill="#000000" stroke="none" font-family="Arial" font-size="13px" font-style="normal" font-weight="normal" text-decoration="none" x="889.5" y="364.5">1</text></g></g><g transform="translate(-78,-54) scale(1,1)"><g><path fill="none" stroke="none"/><text fill="#000000" stroke="none" font-family="Arial" font-size="13px" font-style="normal" font-weight="normal" text-decoration="none" x="1103.5" y="392.5">1</text></g></g><g transform="translate(-78,-54) scale(1,1)"><rect fill="#C0C0C0" stroke="none" x="231" y="471" width="80" height="57" opacity="0.2"/></g><g transform="translate(-78,-54) scale(1,1)"><rect fill="#ffffff" stroke="none" x="224" y="464" width="80" height="57"/></g><g transform="translate(-78,-54) scale(1,1)"><path fill="none" stroke="#000000" d="M 224 464 L 304 464 L 304 521 L 224 521 L 224 464 Z Z" stroke-miterlimit="10"/></g><g transform="translate(-78,-54) scale(1,1)"><path fill="none" stroke="#000000" d="M 224 502 L 304 502" stroke-miterlimit="10"/></g><g transform="translate(-78,-54) scale(1,1)"><path fill="none" stroke="#000000" d="M 224 512 L 304 512" stroke-miterlimit="10"/></g><g transform="translate(-78,-54) scale(1,1)"><g><path fill="none" stroke="none"/><text fill="#000000" stroke="none" font-family="Arial" font-size="13px" font-style="normal" font-weight="normal" text-decoration="none" x="233.648681640625" y="481.5">«abstract»</text></g></g><g transform="translate(-78,-54) scale(1,1)"><g><path fill="none" stroke="none"/><text fill="#000000" stroke="none" font-family="Arial" font-size="13px" font-style="normal" font-weight="bold" text-decoration="none" x="242.325927734375" y="496.5">Service</text></g></g><g transform="translate(-78,-54) scale(1,1)"><path fill="none" stroke="#000000" d="M 263 464 L 263 372" stroke-miterlimit="10"/></g><g transform="translate(-78,-54) scale(1,1)"><g><path fill="none" stroke="none"/><text fill="#000000" stroke="none" font-family="Arial" font-size="13px" font-style="normal" font-weight="normal" text-decoration="none" x="270.5" y="426.5">+provides</text></g></g><g transform="translate(-78,-54) scale(1,1)"><g><path fill="none" stroke="none"/><text fill="#000000" stroke="none" font-family="Arial" font-size="13px" font-style="normal" font-weight="normal" text-decoration="none" x="272.58544921875" y="460.5">*</text></g></g><g transform="translate(-78,-54) scale(1,1)"><g><path fill="none" stroke="none"/><text fill="#000000" stroke="none" font-family="Arial" font-size="13px" font-style="normal" font-weight="normal" text-decoration="none" x="271.5" y="395.5">1</text></g></g><g transform="translate(-78,-54) scale(1,1)"><path fill="none" stroke="#000000" d="M 336 654 L 288 654 L 288 521" stroke-miterlimit="10"/></g><g transform="translate(-78,-54) scale(1,1)"><path fill="#FFFFFF" stroke="none" d="M 296.419035512032 541.3253497152483 L 288 521 L 279.580964487968 541.3253497152483"/></g><g transform="translate(-78,-54) scale(1,1)"><path fill="none" stroke="#000000" d="M 296.419035512032 541.3253497152483 L 288 521 L 279.580964487968 541.3253497152483 L 296.419035512032 541.3253497152483" stroke-miterlimit="10"/></g><g transform="translate(-78,-54) scale(1,1)"><path fill="none" stroke="#000000" d="M 336 750 L 272 750 L 272 521" stroke-miterlimit="10"/></g><g transform="translate(-78,-54) scale(1,1)"><path fill="#FFFFFF" stroke="none" d="M 280.419035512032 541.3253497152483 L 272 521 L 263.580964487968 541.3253497152483"/></g><g transform="translate(-78,-54) scale(1,1)"><path fill="none" stroke="#000000" d="M 280.419035512032 541.3253497152483 L 272 521 L 263.580964487968 541.3253497152483 L 280.419035512032 541.3253497152483" stroke-miterlimit="10"/></g><g transform="translate(-78,-54) scale(1,1)"><path fill="none" stroke="#000000" d="M 336 846 L 256 846 L 256 521" stroke-miterlimit="10"/></g><g transform="translate(-78,-54) scale(1,1)"><path fill="#FFFFFF" stroke="none" d="M 264.419035512032 541.3253497152483 L 256 521 L 247.58096448796803 541.3253497152483"/></g><g transform="translate(-78,-54) scale(1,1)"><path fill="none" stroke="#000000" d="M 264.419035512032 541.3253497152483 L 256 521 L 247.58096448796803 541.3253497152483 L 264.419035512032 541.3253497152483" stroke-miterlimit="10"/></g><g transform="translate(-78,-54) scale(1,1)"><path fill="none" stroke="#000000" d="M 328 942 L 240 942 L 240 521" stroke-miterlimit="10"/></g><g transform="translate(-78,-54) scale(1,1)"><path fill="#FFFFFF" stroke="none" d="M 248.41903551203197 541.3253497152483 L 240 521 L 231.58096448796803 541.3253497152483"/></g><g transform="translate(-78,-54) scale(1,1)"><path fill="none" stroke="#000000" d="M 248.41903551203197 541.3253497152483 L 240 521 L 231.58096448796803 541.3253497152483 L 248.41903551203197 541.3253497152483" stroke-miterlimit="10"/></g><g transform="translate(-78,-54) scale(1,1)"><rect fill="#C0C0C0" stroke="none" x="519" y="71" width="50.919921875" height="44" opacity="0.2"/></g><g transform="translate(-78,-54) scale(1,1)"><rect fill="#ffffff" stroke="none" x="512" y="64" width="50.919921875" height="44"/></g><g transform="translate(-78,-54) scale(1,1)"><path fill="none" stroke="#000000" d="M 512 64 L 562.919921875 64 L 562.919921875 108 L 512 108 L 512 64 Z Z" stroke-miterlimit="10"/></g><g transform="translate(-78,-54) scale(1,1)"><path fill="none" stroke="#000000" d="M 512 89 L 562.919921875 89" stroke-miterlimit="10"/></g><g transform="translate(-78,-54) scale(1,1)"><path fill="none" stroke="#000000" d="M 512 99 L 562.919921875 99" stroke-miterlimit="10"/></g><g transform="translate(-78,-54) scale(1,1)"><g><path fill="none" stroke="none"/><text fill="#000000" stroke="none" font-family="Arial" font-size="13px" font-style="normal" font-weight="bold" text-decoration="none" x="523.739501953125" y="83.5">MTS</text></g></g><g transform="translate(-78,-54) scale(1,1)"><rect fill="#C0C0C0" stroke="none" x="471" y="207" width="155.61181640625" height="44" opacity="0.2"/></g><g transform="translate(-78,-54) scale(1,1)"><rect fill="#ffffff" stroke="none" x="464" y="200" width="155.61181640625" height="44"/></g><g transform="translate(-78,-54) scale(1,1)"><path fill="none" stroke="#000000" d="M 464 200 L 619.61181640625 200 L 619.61181640625 244 L 464 244 L 464 200 Z Z" stroke-miterlimit="10"/></g><g transform="translate(-78,-54) scale(1,1)"><path fill="none" stroke="#000000" d="M 464 225 L 619.61181640625 225" stroke-miterlimit="10"/></g><g transform="translate(-78,-54) scale(1,1)"><path fill="none" stroke="#000000" d="M 464 235 L 619.61181640625 235" stroke-miterlimit="10"/></g><g transform="translate(-78,-54) scale(1,1)"><g><path fill="none" stroke="none"/><text fill="#000000" stroke="none" font-family="Arial" font-size="13px" font-style="normal" font-weight="bold" text-decoration="none" x="475.333251953125" y="219.5">MunicipalityInformation</text></g></g><g transform="translate(-78,-54) scale(1,1)"><path fill="none" stroke="#000000" d="M 248 328 L 248 86 L 512 86" stroke-miterlimit="10"/></g><g transform="translate(-78,-54) scale(1,1)"><g><path fill="none" stroke="none"/><text fill="#000000" stroke="none" font-family="Arial" font-size="13px" font-style="normal" font-weight="normal" text-decoration="none" x="311.5" y="77.5">+generates ticket</text></g></g><g transform="translate(-78,-54) scale(1,1)"><g><path fill="none" stroke="none"/><text fill="#000000" stroke="none" font-family="Arial" font-size="13px" font-style="normal" font-weight="normal" text-decoration="none" x="231.5" y="311.5">1</text></g></g><g transform="translate(-78,-54) scale(1,1)"><g><path fill="none" stroke="none"/><text fill="#000000" stroke="none" font-family="Arial" font-size="13px" font-style="normal" font-weight="normal" text-decoration="none" x="486.5" y="104.5">1</text></g></g><g transform="translate(-78,-54) scale(1,1)"><path fill="none" stroke="#000000" d="M 280 328 L 280 222 L 464 222" stroke-miterlimit="10"/></g><g transform="translate(-78,-54) scale(1,1)"><g><path fill="none" stroke="none"/><text fill="#000000" stroke="none" font-family="Arial" font-size="13px" font-style="normal" font-weight="normal" text-decoration="none" x="327.5" y="213.5">+gets data</text></g></g><g transform="translate(-78,-54) scale(1,1)"><g><path fill="none" stroke="none"/><text fill="#000000" stroke="none" font-family="Arial" font-size="13px" font-style="normal" font-weight="normal" text-decoration="none" x="288.5" y="312.5">1</text></g></g><g transform="translate(-78,-54) scale(1,1)"><g><path fill="none" stroke="none"/><text fill="#000000" stroke="none" font-family="Arial" font-size="13px" font-style="normal" font-weight="normal" text-decoration="none" x="438.5" y="240.5">1</text></g></g><g transform="translate(-78,-54) scale(1,1)"><rect fill="#C0C0C0" stroke="none" x="95" y="127" width="109.80712890625" height="102" opacity="0.2"/></g><g transform="translate(-78,-54) scale(1,1)"><rect fill="#ffffff" stroke="none" x="88" y="120" width="109.80712890625" height="102"/></g><g transform="translate(-78,-54) scale(1,1)"><path fill="none" stroke="#000000" d="M 88 120 L 197.80712890625 120 L 197.80712890625 222 L 88 222 L 88 120 Z Z" stroke-miterlimit="10"/></g><g transform="translate(-78,-54) scale(1,1)"><path fill="none" stroke="#000000" d="M 88 145 L 197.80712890625 145" stroke-miterlimit="10"/></g><g transform="translate(-78,-54) scale(1,1)"><path fill="none" stroke="#000000" d="M 88 213 L 197.80712890625 213" stroke-miterlimit="10"/></g><g transform="translate(-78,-54) scale(1,1)"><g><path fill="none" stroke="none"/><text fill="#000000" stroke="none" font-family="Arial" font-size="13px" font-style="normal" font-weight="bold" text-decoration="none" x="110.022705078125" y="139.5">StoredData</text></g></g><g transform="translate(-78,-54) scale(1,1)"><g><path fill="none" stroke="none"/><text fill="#000000" stroke="none" font-family="Arial" font-size="13px" font-style="normal" font-weight="normal" text-decoration="none" x="93" y="162.5">+violationData</text></g></g><g transform="translate(-78,-54) scale(1,1)"><g><path fill="none" stroke="none"/><text fill="#000000" stroke="none" font-family="Arial" font-size="13px" font-style="normal" font-weight="normal" text-decoration="none" x="93" y="177.5">+accidentData</text></g></g><g transform="translate(-78,-54) scale(1,1)"><g><path fill="none" stroke="none"/><text fill="#000000" stroke="none" font-family="Arial" font-size="13px" font-style="normal" font-weight="normal" text-decoration="none" x="93" y="192.5">+ticketData</text></g></g><g transform="translate(-78,-54) scale(1,1)"><g><path fill="none" stroke="none"/><text fill="#000000" stroke="none" font-family="Arial" font-size="13px" font-style="normal" font-weight="normal" text-decoration="none" x="93" y="207.5">+suggestionData</text></g></g><g transform="translate(-78,-54) scale(1,1)"><path fill="none" stroke="#000000" d="M 144 222 L 144 352 L 224 352" stroke-miterlimit="10"/></g><g transform="translate(-78,-54) scale(1,1)"><path fill="#000000" stroke="none" d="M 213.83732514237585 356.209517756016 L 224 352 L 213.83732514237585 347.790482243984 L 202 352"/></g><g transform="translate(-78,-54) scale(1,1)"><path fill="none" stroke="#000000" d="M 213.83732514237585 356.209517756016 L 224 352 L 213.83732514237585 347.790482243984 L 202 352 L 213.83732514237585 356.209517756016" stroke-miterlimit="10"/></g><g transform="translate(-78,-54) scale(1,1)"><rect fill="#C0C0C0" stroke="none" x="767" y="135" width="124.5654296875" height="57" opacity="0.2"/></g><g transform="translate(-78,-54) scale(1,1)"><rect fill="#ffffff" stroke="none" x="760" y="128" width="124.5654296875" height="57"/></g><g transform="translate(-78,-54) scale(1,1)"><path fill="none" stroke="#000000" d="M 760 128 L 884.5654296875 128 L 884.5654296875 185 L 760 185 L 760 128 Z Z" stroke-miterlimit="10"/></g><g transform="translate(-78,-54) scale(1,1)"><path fill="none" stroke="#000000" d="M 760 166 L 884.5654296875 166" stroke-miterlimit="10"/></g><g transform="translate(-78,-54) scale(1,1)"><path fill="none" stroke="#000000" d="M 760 176 L 884.5654296875 176" stroke-miterlimit="10"/></g><g transform="translate(-78,-54) scale(1,1)"><g><path fill="none" stroke="none"/><text fill="#000000" stroke="none" font-family="Arial" font-size="13px" font-style="normal" font-weight="normal" text-decoration="none" x="791.931396484375" y="145.5">«abstract»</text></g></g><g transform="translate(-78,-54) scale(1,1)"><g><path fill="none" stroke="none"/><text fill="#000000" stroke="none" font-family="Arial" font-size="13px" font-style="normal" font-weight="bold" text-decoration="none" x="769.171875" y="160.5">InformationSource</text></g></g><g transform="translate(-78,-54) scale(1,1)"><path fill="none" stroke="#000000" d="M 620 224 L 822 224 L 822 185" stroke-miterlimit="10"/></g><g transform="translate(-78,-54) scale(1,1)"><path fill="#FFFFFF" stroke="none" d="M 830.419035512032 205.3253497152483 L 822 185 L 813.580964487968 205.3253497152483"/></g><g transform="translate(-78,-54) scale(1,1)"><path fill="none" stroke="#000000" d="M 830.419035512032 205.3253497152483 L 822 185 L 813.580964487968 205.3253497152483 L 830.419035512032 205.3253497152483" stroke-miterlimit="10"/></g><g transform="translate(-78,-54) scale(1,1)"><path fill="none" stroke="#000000" d="M 563 86 L 824 86 L 824 128" stroke-miterlimit="10"/></g><g transform="translate(-78,-54) scale(1,1)"><path fill="#FFFFFF" stroke="none" d="M 815.580964487968 107.67465028475169 L 824 128 L 832.419035512032 107.67465028475169"/></g><g transform="translate(-78,-54) scale(1,1)"><path fill="none" stroke="#000000" d="M 815.580964487968 107.67465028475169 L 824 128 L 832.419035512032 107.67465028475169 L 815.580964487968 107.67465028475169" stroke-miterlimit="10"/></g></svg>