<?xml version="1.0" encoding="UTF-8" standalone="no"?><svg xmlns="http://www.w3.org/2000/svg" xmlns:xlink="http://www.w3.org/1999/xlink" contentScriptType="application/ecmascript" contentStyleType="text/css" height="407px" preserveAspectRatio="none" style="width:482px;height:407px;" version="1.1" viewBox="0 0 482 407" width="482px" zoomAndPan="magnify">
    <defs>
        <filter height="300%" id="fog7mss7b1ttk" width="300%" x="-1" y="-1">
            <feGaussianBlur result="blurOut" stdDeviation="2.0" />
            <feColorMatrix in="blurOut" result="blurOut2" type="matrix" values="0 0 0 0 0 0 0 0 0 0 0 0 0 0 0 0 0 0 .4 0" />
            <feOffset dx="4.0" dy="4.0" in="blurOut2" result="blurOut3" />
            <feBlend in="SourceGraphic" in2="blurOut3" mode="normal" />
        </filter>
    </defs>
    <g><text fill="#000000" font-family="sans-serif" font-size="14" font-weight="bold" lengthAdjust="spacingAndGlyphs" textLength="97" x="193.5" y="24.5332">Get accidents</text>
        <rect fill="#FFFFFF" filter="url(#fog7mss7b1ttk)" height="180.7578" style="stroke: #A80036; stroke-width: 1.0;" width="10" x="64" y="129.2188" />
        <rect fill="#FFFFFF" filter="url(#fog7mss7b1ttk)" height="180.7578" style="stroke: #A80036; stroke-width: 1.0;" width="10" x="293" y="129.2188" />
        <rect fill="#FFFFFF" filter="url(#fog7mss7b1ttk)" height="165.7578" style="stroke: #000000; stroke-width: 2.0;" width="458" x="13" y="136.2188" />
        <line style="stroke: #A80036; stroke-width: 1.0; stroke-dasharray: 5.0,5.0;" x1="69" x2="69" y1="119.2188" y2="318.9766" />
        <line style="stroke: #A80036; stroke-width: 1.0; stroke-dasharray: 5.0,5.0;" x1="297.5" x2="297.5" y1="119.2188" y2="318.9766" />
        <rect fill="#FEFECE" filter="url(#fog7mss7b1ttk)" height="31.6094" style="stroke: #A80036; stroke-width: 1.5;" width="88" x="23" y="82.6094" /><text fill="#000000" font-family="sans-serif" font-size="14" lengthAdjust="spacingAndGlyphs" textLength="74" x="30" y="104.1426">SafeStreets</text>
        <rect fill="#FEFECE" filter="url(#fog7mss7b1ttk)" height="31.6094" style="stroke: #A80036; stroke-width: 1.5;" width="88" x="23" y="317.9766" /><text fill="#000000" font-family="sans-serif" font-size="14" lengthAdjust="spacingAndGlyphs" textLength="74" x="30" y="339.5098">SafeStreets</text><text fill="#000000" font-family="sans-serif" font-size="14" lengthAdjust="spacingAndGlyphs" textLength="73" x="258.5" y="116.1426">municipality</text>
        <ellipse cx="298" cy="44.6094" fill="#FEFECE" filter="url(#fog7mss7b1ttk)" rx="8" ry="8" style="stroke: #A80036; stroke-width: 2.0;" />
        <path d="M298,52.6094 L298,79.6094 M285,60.6094 L311,60.6094 M298,79.6094 L285,94.6094 M298,79.6094 L311,94.6094 " fill="none" filter="url(#fog7mss7b1ttk)" style="stroke: #A80036; stroke-width: 2.0;" /><text fill="#000000" font-family="sans-serif" font-size="14" lengthAdjust="spacingAndGlyphs" textLength="73" x="258.5" y="332.5098">municipality</text>
        <ellipse cx="298" cy="345.5859" fill="#FEFECE" filter="url(#fog7mss7b1ttk)" rx="8" ry="8" style="stroke: #A80036; stroke-width: 2.0;" />
        <path d="M298,353.5859 L298,380.5859 M285,361.5859 L311,361.5859 M298,380.5859 L285,395.5859 M298,380.5859 L311,395.5859 " fill="none" filter="url(#fog7mss7b1ttk)" style="stroke: #A80036; stroke-width: 2.0;" />
        <rect fill="#FFFFFF" filter="url(#fog7mss7b1ttk)" height="180.7578" style="stroke: #A80036; stroke-width: 1.0;" width="10" x="64" y="129.2188" />
        <rect fill="#FFFFFF" filter="url(#fog7mss7b1ttk)" height="180.7578" style="stroke: #A80036; stroke-width: 1.0;" width="10" x="293" y="129.2188" />
        <path d="M13,136.2188 L86,136.2188 L86,144.2188 L76,154.2188 L13,154.2188 L13,136.2188 " fill="#EEEEEE" style="stroke: #000000; stroke-width: 1.0;" />
        <rect fill="none" height="165.7578" style="stroke: #000000; stroke-width: 2.0;" width="458" x="13" y="136.2188" /><text fill="#000000" font-family="sans-serif" font-size="13" font-weight="bold" lengthAdjust="spacingAndGlyphs" textLength="28" x="28" y="150.7139">loop</text><text fill="#000000" font-family="sans-serif" font-size="11" font-weight="bold" lengthAdjust="spacingAndGlyphs" textLength="31" x="101" y="149.6377">[true]</text>
        <polygon fill="#A80036" points="281,172.9219,291,176.9219,281,180.9219,285,176.9219" style="stroke: #A80036; stroke-width: 1.0;" />
        <line style="stroke: #A80036; stroke-width: 1.0;" x1="74" x2="287" y1="176.9219" y2="176.9219" /><text fill="#000000" font-family="sans-serif" font-size="13" lengthAdjust="spacingAndGlyphs" textLength="195" x="81" y="172.0654">get updates in the accident's data</text>
        <line style="stroke: #A80036; stroke-width: 1.0;" x1="303" x2="345" y1="207.2734" y2="207.2734" />
        <line style="stroke: #A80036; stroke-width: 1.0;" x1="345" x2="345" y1="207.2734" y2="220.2734" />
        <line style="stroke: #A80036; stroke-width: 1.0;" x1="304" x2="345" y1="220.2734" y2="220.2734" />
        <polygon fill="#A80036" points="314,216.2734,304,220.2734,314,224.2734,310,220.2734" style="stroke: #A80036; stroke-width: 1.0;" /><text fill="#000000" font-family="sans-serif" font-size="13" lengthAdjust="spacingAndGlyphs" textLength="149" x="310" y="202.417">calculate updates on data</text>
        <polygon fill="#A80036" points="85,246.625,75,250.625,85,254.625,81,250.625" style="stroke: #A80036; stroke-width: 1.0;" />
        <line style="stroke: #A80036; stroke-width: 1.0; stroke-dasharray: 2.0,2.0;" x1="79" x2="292" y1="250.625" y2="250.625" /><text fill="#000000" font-family="sans-serif" font-size="13" lengthAdjust="spacingAndGlyphs" textLength="52" x="91" y="245.7686">new data</text>
        <line style="stroke: #A80036; stroke-width: 1.0;" x1="74" x2="116" y1="280.9766" y2="280.9766" />
        <line style="stroke: #A80036; stroke-width: 1.0;" x1="116" x2="116" y1="280.9766" y2="293.9766" />
        <line style="stroke: #A80036; stroke-width: 1.0;" x1="75" x2="116" y1="293.9766" y2="293.9766" />
        <polygon fill="#A80036" points="85,289.9766,75,293.9766,85,297.9766,81,293.9766" style="stroke: #A80036; stroke-width: 1.0;" /><text fill="#000000" font-family="sans-serif" font-size="13" lengthAdjust="spacingAndGlyphs" textLength="194" x="81" y="276.1201">merge new data with the old ones</text>
        <!--MD5=[a2aed9480bbd46f2a422fd1d760445d8]
@startuml

title Get accidents

participant SafeStreets as safe
actor municipality

activate safe

loop true
activate municipality
safe -> municipality : get updates in the accident's data
municipality -> municipality : calculate updates on data
municipality - -> safe : new data
safe -> safe : merge new data with the old ones
end



@enduml

PlantUML version 1.2019.11(Sun Sep 22 12:02:15 CEST 2019)
(GPL source distribution)
Java Runtime: Java(TM) SE Runtime Environment
JVM: Java HotSpot(TM) Client VM
Java Version: 1.8.0_221-b11
Operating System: Windows 10
Default Encoding: Cp1252
Language: en
Country: US
-->
    </g>
</svg>