<?xml version="1.0" encoding="UTF-8" standalone="no"?><svg xmlns="http://www.w3.org/2000/svg" xmlns:xlink="http://www.w3.org/1999/xlink" contentScriptType="application/ecmascript" contentStyleType="text/css" height="364px" preserveAspectRatio="none" style="width:453px;height:364px;" version="1.1" viewBox="0 0 453 364" width="453px" zoomAndPan="magnify">
    <defs>
        <filter height="300%" id="f27crop46aodq" width="300%" x="-1" y="-1">
            <feGaussianBlur result="blurOut" stdDeviation="2.0" />
            <feColorMatrix in="blurOut" result="blurOut2" type="matrix" values="0 0 0 0 0 0 0 0 0 0 0 0 0 0 0 0 0 0 .4 0" />
            <feOffset dx="4.0" dy="4.0" in="blurOut2" result="blurOut3" />
            <feBlend in="SourceGraphic" in2="blurOut3" mode="normal" />
        </filter>
    </defs>
    <g><text fill="#000000" font-family="sans-serif" font-size="14" font-weight="bold" lengthAdjust="spacingAndGlyphs" textLength="97" x="179" y="24.5332">Get accidents</text>
        <rect fill="#FFFFFF" filter="url(#f27crop46aodq)" height="137.4063" style="stroke: #A80036; stroke-width: 1.0;" width="10" x="64" y="129.2188" />
        <rect fill="#FFFFFF" filter="url(#f27crop46aodq)" height="137.4063" style="stroke: #A80036; stroke-width: 1.0;" width="10" x="264" y="129.2188" />
        <rect fill="#FFFFFF" filter="url(#f27crop46aodq)" height="122.4063" style="stroke: #000000; stroke-width: 2.0;" width="429" x="13" y="136.2188" />
        <line style="stroke: #A80036; stroke-width: 1.0; stroke-dasharray: 5.0,5.0;" x1="69" x2="69" y1="119.2188" y2="275.625" />
        <line style="stroke: #A80036; stroke-width: 1.0; stroke-dasharray: 5.0,5.0;" x1="268.5" x2="268.5" y1="119.2188" y2="275.625" />
        <rect fill="#FEFECE" filter="url(#f27crop46aodq)" height="31.6094" style="stroke: #A80036; stroke-width: 1.5;" width="88" x="23" y="82.6094" /><text fill="#000000" font-family="sans-serif" font-size="14" lengthAdjust="spacingAndGlyphs" textLength="74" x="30" y="104.1426">SafeStreets</text>
        <rect fill="#FEFECE" filter="url(#f27crop46aodq)" height="31.6094" style="stroke: #A80036; stroke-width: 1.5;" width="88" x="23" y="274.625" /><text fill="#000000" font-family="sans-serif" font-size="14" lengthAdjust="spacingAndGlyphs" textLength="74" x="30" y="296.1582">SafeStreets</text><text fill="#000000" font-family="sans-serif" font-size="14" lengthAdjust="spacingAndGlyphs" textLength="73" x="229.5" y="116.1426">municipality</text>
        <ellipse cx="269" cy="44.6094" fill="#FEFECE" filter="url(#f27crop46aodq)" rx="8" ry="8" style="stroke: #A80036; stroke-width: 2.0;" />
        <path d="M269,52.6094 L269,79.6094 M256,60.6094 L282,60.6094 M269,79.6094 L256,94.6094 M269,79.6094 L282,94.6094 " fill="none" filter="url(#f27crop46aodq)" style="stroke: #A80036; stroke-width: 2.0;" /><text fill="#000000" font-family="sans-serif" font-size="14" lengthAdjust="spacingAndGlyphs" textLength="73" x="229.5" y="289.1582">municipality</text>
        <ellipse cx="269" cy="302.2344" fill="#FEFECE" filter="url(#f27crop46aodq)" rx="8" ry="8" style="stroke: #A80036; stroke-width: 2.0;" />
        <path d="M269,310.2344 L269,337.2344 M256,318.2344 L282,318.2344 M269,337.2344 L256,352.2344 M269,337.2344 L282,352.2344 " fill="none" filter="url(#f27crop46aodq)" style="stroke: #A80036; stroke-width: 2.0;" />
        <rect fill="#FFFFFF" filter="url(#f27crop46aodq)" height="137.4063" style="stroke: #A80036; stroke-width: 1.0;" width="10" x="64" y="129.2188" />
        <rect fill="#FFFFFF" filter="url(#f27crop46aodq)" height="137.4063" style="stroke: #A80036; stroke-width: 1.0;" width="10" x="264" y="129.2188" />
        <path d="M13,136.2188 L86,136.2188 L86,144.2188 L76,154.2188 L13,154.2188 L13,136.2188 " fill="#EEEEEE" style="stroke: #000000; stroke-width: 1.0;" />
        <rect fill="none" height="122.4063" style="stroke: #000000; stroke-width: 2.0;" width="429" x="13" y="136.2188" /><text fill="#000000" font-family="sans-serif" font-size="13" font-weight="bold" lengthAdjust="spacingAndGlyphs" textLength="28" x="28" y="150.7139">loop</text><text fill="#000000" font-family="sans-serif" font-size="11" font-weight="bold" lengthAdjust="spacingAndGlyphs" textLength="31" x="101" y="149.6377">[true]</text>
        <polygon fill="#A80036" points="252,172.9219,262,176.9219,252,180.9219,256,176.9219" style="stroke: #A80036; stroke-width: 1.0;" />
        <line style="stroke: #A80036; stroke-width: 1.0;" x1="74" x2="258" y1="176.9219" y2="176.9219" /><text fill="#000000" font-family="sans-serif" font-size="13" lengthAdjust="spacingAndGlyphs" textLength="166" x="81" y="172.0654">update in the accident's data</text>
        <line style="stroke: #A80036; stroke-width: 1.0;" x1="274" x2="316" y1="207.2734" y2="207.2734" />
        <line style="stroke: #A80036; stroke-width: 1.0;" x1="316" x2="316" y1="207.2734" y2="220.2734" />
        <line style="stroke: #A80036; stroke-width: 1.0;" x1="275" x2="316" y1="220.2734" y2="220.2734" />
        <polygon fill="#A80036" points="285,216.2734,275,220.2734,285,224.2734,281,220.2734" style="stroke: #A80036; stroke-width: 1.0;" /><text fill="#000000" font-family="sans-serif" font-size="13" lengthAdjust="spacingAndGlyphs" textLength="149" x="281" y="202.417">calculate updates on data</text>
        <polygon fill="#A80036" points="85,246.625,75,250.625,85,254.625,81,250.625" style="stroke: #A80036; stroke-width: 1.0;" />
        <line style="stroke: #A80036; stroke-width: 1.0; stroke-dasharray: 2.0,2.0;" x1="79" x2="263" y1="250.625" y2="250.625" /><text fill="#000000" font-family="sans-serif" font-size="13" lengthAdjust="spacingAndGlyphs" textLength="52" x="91" y="245.7686">new data</text>
        <!--MD5=[f3cec9207eeddce98bbc38448ef35f71]
@startuml

title Get accidents

participant SafeStreets as safe
actor municipality

activate safe

loop true
activate municipality
safe -> municipality : update in the accident's data
municipality -> municipality : calculate updates on data
municipality - -> safe : new data
end



@enduml

PlantUML version 1.2019.11(Sun Sep 22 12:02:15 CEST 2019)
(GPL source distribution)
Java Runtime: Java(TM) SE Runtime Environment
JVM: Java HotSpot(TM) Client VM
Java Version: 1.8.0_221-b11
Operating System: Windows 10
Default Encoding: Cp1252
Language: en
Country: US
-->
    </g>
</svg>