<?xml version="1.0" encoding="UTF-8" standalone="no"?><svg xmlns="http://www.w3.org/2000/svg" xmlns:xlink="http://www.w3.org/1999/xlink" contentScriptType="application/ecmascript" contentStyleType="text/css" height="483px" preserveAspectRatio="none" style="width:366px;height:483px;" version="1.1" viewBox="0 0 366 483" width="366px" zoomAndPan="magnify">
    <defs>
        <filter height="300%" id="fnep4r89ha24t" width="300%" x="-1" y="-1">
            <feGaussianBlur result="blurOut" stdDeviation="2.0" />
            <feColorMatrix in="blurOut" result="blurOut2" type="matrix" values="0 0 0 0 0 0 0 0 0 0 0 0 0 0 0 0 0 0 .4 0" />
            <feOffset dx="4.0" dy="4.0" in="blurOut2" result="blurOut3" />
            <feBlend in="SourceGraphic" in2="blurOut3" mode="normal" />
        </filter>
    </defs>
    <g><text fill="#000000" font-family="sans-serif" font-size="14" font-weight="bold" lengthAdjust="spacingAndGlyphs" textLength="157" x="105.5" y="24.5332">Retrieve violation info</text>
        <rect fill="#FFFFFF" filter="url(#fnep4r89ha24t)" height="256.8125" style="stroke: #A80036; stroke-width: 1.0;" width="10" x="34" y="129.2188" />
        <rect fill="#FFFFFF" filter="url(#fnep4r89ha24t)" height="256.8125" style="stroke: #A80036; stroke-width: 1.0;" width="10" x="176" y="129.2188" />
        <rect fill="#FFFFFF" filter="url(#fnep4r89ha24t)" height="60.7031" style="stroke: #A80036; stroke-width: 1.0;" width="10" x="310" y="285.9766" />
        <line style="stroke: #A80036; stroke-width: 1.0; stroke-dasharray: 5.0,5.0;" x1="39" x2="39" y1="119.2188" y2="395.0313" />
        <line style="stroke: #A80036; stroke-width: 1.0; stroke-dasharray: 5.0,5.0;" x1="180.5" x2="180.5" y1="119.2188" y2="395.0313" />
        <line style="stroke: #A80036; stroke-width: 1.0; stroke-dasharray: 5.0,5.0;" x1="315" x2="315" y1="119.2188" y2="395.0313" /><text fill="#000000" font-family="sans-serif" font-size="14" lengthAdjust="spacingAndGlyphs" textLength="56" x="8" y="116.1426">Authority</text>
        <ellipse cx="39" cy="44.6094" fill="#FEFECE" filter="url(#fnep4r89ha24t)" rx="8" ry="8" style="stroke: #A80036; stroke-width: 2.0;" />
        <path d="M39,52.6094 L39,79.6094 M26,60.6094 L52,60.6094 M39,79.6094 L26,94.6094 M39,79.6094 L52,94.6094 " fill="none" filter="url(#fnep4r89ha24t)" style="stroke: #A80036; stroke-width: 2.0;" /><text fill="#000000" font-family="sans-serif" font-size="14" lengthAdjust="spacingAndGlyphs" textLength="56" x="8" y="408.5645">Authority</text>
        <ellipse cx="39" cy="421.6406" fill="#FEFECE" filter="url(#fnep4r89ha24t)" rx="8" ry="8" style="stroke: #A80036; stroke-width: 2.0;" />
        <path d="M39,429.6406 L39,456.6406 M26,437.6406 L52,437.6406 M39,456.6406 L26,471.6406 M39,456.6406 L52,471.6406 " fill="none" filter="url(#fnep4r89ha24t)" style="stroke: #A80036; stroke-width: 2.0;" />
        <rect fill="#FEFECE" filter="url(#fnep4r89ha24t)" height="31.6094" style="stroke: #A80036; stroke-width: 1.5;" width="99" x="129.5" y="82.6094" /><text fill="#000000" font-family="sans-serif" font-size="14" lengthAdjust="spacingAndGlyphs" textLength="85" x="136.5" y="104.1426">SafeAnalytics</text>
        <rect fill="#FEFECE" filter="url(#fnep4r89ha24t)" height="31.6094" style="stroke: #A80036; stroke-width: 1.5;" width="99" x="129.5" y="394.0313" /><text fill="#000000" font-family="sans-serif" font-size="14" lengthAdjust="spacingAndGlyphs" textLength="85" x="136.5" y="415.5645">SafeAnalytics</text><text fill="#000000" font-family="sans-serif" font-size="14" lengthAdjust="spacingAndGlyphs" textLength="84" x="270" y="116.1426">Google Maps</text>
        <ellipse cx="315" cy="44.6094" fill="#FEFECE" filter="url(#fnep4r89ha24t)" rx="8" ry="8" style="stroke: #A80036; stroke-width: 2.0;" />
        <path d="M315,52.6094 L315,79.6094 M302,60.6094 L328,60.6094 M315,79.6094 L302,94.6094 M315,79.6094 L328,94.6094 " fill="none" filter="url(#fnep4r89ha24t)" style="stroke: #A80036; stroke-width: 2.0;" /><text fill="#000000" font-family="sans-serif" font-size="14" lengthAdjust="spacingAndGlyphs" textLength="84" x="270" y="408.5645">Google Maps</text>
        <ellipse cx="315" cy="421.6406" fill="#FEFECE" filter="url(#fnep4r89ha24t)" rx="8" ry="8" style="stroke: #A80036; stroke-width: 2.0;" />
        <path d="M315,429.6406 L315,456.6406 M302,437.6406 L328,437.6406 M315,456.6406 L302,471.6406 M315,456.6406 L328,471.6406 " fill="none" filter="url(#fnep4r89ha24t)" style="stroke: #A80036; stroke-width: 2.0;" />
        <rect fill="#FFFFFF" filter="url(#fnep4r89ha24t)" height="256.8125" style="stroke: #A80036; stroke-width: 1.0;" width="10" x="34" y="129.2188" />
        <rect fill="#FFFFFF" filter="url(#fnep4r89ha24t)" height="256.8125" style="stroke: #A80036; stroke-width: 1.0;" width="10" x="176" y="129.2188" />
        <rect fill="#FFFFFF" filter="url(#fnep4r89ha24t)" height="60.7031" style="stroke: #A80036; stroke-width: 1.0;" width="10" x="310" y="285.9766" />
        <polygon fill="#A80036" points="164,147.5703,174,151.5703,164,155.5703,168,151.5703" style="stroke: #A80036; stroke-width: 1.0;" />
        <line style="stroke: #A80036; stroke-width: 1.0; stroke-dasharray: 2.0,2.0;" x1="44" x2="170" y1="151.5703" y2="151.5703" /><text fill="#000000" font-family="sans-serif" font-size="13" lengthAdjust="spacingAndGlyphs" textLength="108" x="51" y="146.7139">geographical filters</text>
        <polygon fill="#A80036" points="164,177.9219,174,181.9219,164,185.9219,168,181.9219" style="stroke: #A80036; stroke-width: 1.0;" />
        <line style="stroke: #A80036; stroke-width: 1.0; stroke-dasharray: 2.0,2.0;" x1="44" x2="170" y1="181.9219" y2="181.9219" /><text fill="#000000" font-family="sans-serif" font-size="13" lengthAdjust="spacingAndGlyphs" textLength="60" x="51" y="177.0654">time filters</text>
        <polygon fill="#A80036" points="164,208.2734,174,212.2734,164,216.2734,168,212.2734" style="stroke: #A80036; stroke-width: 1.0;" />
        <line style="stroke: #A80036; stroke-width: 1.0; stroke-dasharray: 2.0,2.0;" x1="44" x2="170" y1="212.2734" y2="212.2734" /><text fill="#000000" font-family="sans-serif" font-size="13" lengthAdjust="spacingAndGlyphs" textLength="108" x="51" y="207.417">licence plate filters</text>
        <line style="stroke: #A80036; stroke-width: 1.0;" x1="186" x2="228" y1="242.625" y2="242.625" />
        <line style="stroke: #A80036; stroke-width: 1.0;" x1="228" x2="228" y1="242.625" y2="255.625" />
        <line style="stroke: #A80036; stroke-width: 1.0;" x1="187" x2="228" y1="255.625" y2="255.625" />
        <polygon fill="#A80036" points="197,251.625,187,255.625,197,259.625,193,255.625" style="stroke: #A80036; stroke-width: 1.0;" /><text fill="#000000" font-family="sans-serif" font-size="13" lengthAdjust="spacingAndGlyphs" textLength="110" x="193" y="237.7686">select queried data</text>
        <polygon fill="#A80036" points="55,281.9766,45,285.9766,55,289.9766,51,285.9766" style="stroke: #A80036; stroke-width: 1.0;" />
        <line style="stroke: #A80036; stroke-width: 1.0; stroke-dasharray: 2.0,2.0;" x1="49" x2="175" y1="285.9766" y2="285.9766" /><text fill="#000000" font-family="sans-serif" font-size="13" lengthAdjust="spacingAndGlyphs" textLength="71" x="61" y="281.1201">send results</text>
        <polygon fill="#A80036" points="298,312.3281,308,316.3281,298,320.3281,302,316.3281" style="stroke: #A80036; stroke-width: 1.0;" />
        <line style="stroke: #A80036; stroke-width: 1.0;" x1="186" x2="304" y1="316.3281" y2="316.3281" /><text fill="#000000" font-family="sans-serif" font-size="13" lengthAdjust="spacingAndGlyphs" textLength="71" x="193" y="311.4717">send results</text>
        <polygon fill="#A80036" points="197,342.6797,187,346.6797,197,350.6797,193,346.6797" style="stroke: #A80036; stroke-width: 1.0;" />
        <line style="stroke: #A80036; stroke-width: 1.0; stroke-dasharray: 2.0,2.0;" x1="191" x2="314" y1="346.6797" y2="346.6797" /><text fill="#000000" font-family="sans-serif" font-size="13" lengthAdjust="spacingAndGlyphs" textLength="57" x="203" y="341.8232">send map</text>
        <polygon fill="#A80036" points="55,373.0313,45,377.0313,55,381.0313,51,377.0313" style="stroke: #A80036; stroke-width: 1.0;" />
        <line style="stroke: #A80036; stroke-width: 1.0; stroke-dasharray: 2.0,2.0;" x1="49" x2="175" y1="377.0313" y2="377.0313" /><text fill="#000000" font-family="sans-serif" font-size="13" lengthAdjust="spacingAndGlyphs" textLength="57" x="61" y="372.1748">send map</text>
        <!--MD5=[3534447f867417980ffbee016d12ae34]
@startuml

title Retrieve violation info

actor Authority
participant "SafeAnalytics" as SafeStreets
actor "Google Maps" as Google

activate Authority
activate SafeStreets

Authority - -> SafeStreets : geographical filters
Authority - -> SafeStreets : time filters
Authority - -> SafeStreets : licence plate filters

SafeStreets -> SafeStreets : select queried data


SafeStreets - -> Authority : send results
activate Google
SafeStreets -> Google : send results
Google - -> SafeStreets : send map
deactivate Google
SafeStreets - -> Authority : send map



@enduml

PlantUML version 1.2019.11(Sun Sep 22 12:02:15 CEST 2019)
(GPL source distribution)
Java Runtime: Java(TM) SE Runtime Environment
JVM: Java HotSpot(TM) Client VM
Java Version: 1.8.0_221-b11
Operating System: Windows 10
Default Encoding: Cp1252
Language: en
Country: US
-->
    </g>
</svg>