<?xml version="1.0" encoding="UTF-8" standalone="no"?><svg xmlns="http://www.w3.org/2000/svg" xmlns:xlink="http://www.w3.org/1999/xlink" contentScriptType="application/ecmascript" contentStyleType="text/css" height="560px" preserveAspectRatio="none" style="width:619px;height:560px;" version="1.1" viewBox="0 0 619 560" width="619px" zoomAndPan="magnify">
    <defs>
        <filter height="300%" id="f1beck9alplia7" width="300%" x="-1" y="-1">
            <feGaussianBlur result="blurOut" stdDeviation="2.0" />
            <feColorMatrix in="blurOut" result="blurOut2" type="matrix" values="0 0 0 0 0 0 0 0 0 0 0 0 0 0 0 0 0 0 .4 0" />
            <feOffset dx="4.0" dy="4.0" in="blurOut2" result="blurOut3" />
            <feBlend in="SourceGraphic" in2="blurOut3" mode="normal" />
        </filter>
    </defs>
    <g><text fill="#000000" font-family="sans-serif" font-size="14" font-weight="bold" lengthAdjust="spacingAndGlyphs" textLength="148" x="237" y="22.9951">Tickets generation</text>
        <rect fill="#FFFFFF" filter="url(#f1beck9alplia7)" height="316.1328" style="stroke: #A80036; stroke-width: 1.0;" width="10" x="254" y="126.5938" />
        <rect fill="#FFFFFF" filter="url(#f1beck9alplia7)" height="316.1328" style="stroke: #A80036; stroke-width: 1.0;" width="10" x="473" y="126.5938" />
        <rect fill="#FFFFFF" filter="url(#f1beck9alplia7)" height="174.4688" style="stroke: #000000; stroke-width: 2.0;" width="306" x="200" y="260.2578" />
        <rect fill="#FFFFFF" height="86.0703" style="stroke: none; stroke-width: 1.0;" width="306" x="200" y="348.6563" />
        <line style="stroke: #A80036; stroke-width: 1.0; stroke-dasharray: 5.0,5.0;" x1="259" x2="259" y1="116.5938" y2="451.7266" />
        <line style="stroke: #A80036; stroke-width: 1.0; stroke-dasharray: 5.0,5.0;" x1="478" x2="478" y1="116.5938" y2="451.7266" />
        <rect fill="#FEFECE" filter="url(#f1beck9alplia7)" height="30.2969" style="stroke: #A80036; stroke-width: 1.5;" width="94" x="210" y="81.2969" /><text fill="#000000" font-family="sans-serif" font-size="14" lengthAdjust="spacingAndGlyphs" textLength="80" x="217" y="101.292">SafeStreets</text>
        <rect fill="#FEFECE" filter="url(#f1beck9alplia7)" height="30.2969" style="stroke: #A80036; stroke-width: 1.5;" width="94" x="210" y="450.7266" /><text fill="#000000" font-family="sans-serif" font-size="14" lengthAdjust="spacingAndGlyphs" textLength="80" x="217" y="470.7217">SafeStreets</text><text fill="#000000" font-family="sans-serif" font-size="14" lengthAdjust="spacingAndGlyphs" textLength="30" x="460" y="113.292">MTS</text>
        <ellipse cx="478" cy="43.2969" fill="#FEFECE" filter="url(#f1beck9alplia7)" rx="8" ry="8" style="stroke: #A80036; stroke-width: 2.0;" />
        <path d="M478,51.2969 L478,78.2969 M465,59.2969 L491,59.2969 M478,78.2969 L465,93.2969 M478,78.2969 L491,93.2969 " fill="none" filter="url(#f1beck9alplia7)" style="stroke: #A80036; stroke-width: 2.0;" /><text fill="#000000" font-family="sans-serif" font-size="14" lengthAdjust="spacingAndGlyphs" textLength="30" x="460" y="463.7217">MTS</text>
        <ellipse cx="478" cy="477.0234" fill="#FEFECE" filter="url(#f1beck9alplia7)" rx="8" ry="8" style="stroke: #A80036; stroke-width: 2.0;" />
        <path d="M478,485.0234 L478,512.0234 M465,493.0234 L491,493.0234 M478,512.0234 L465,527.0234 M478,512.0234 L491,527.0234 " fill="none" filter="url(#f1beck9alplia7)" style="stroke: #A80036; stroke-width: 2.0;" />
        <rect fill="#FFFFFF" filter="url(#f1beck9alplia7)" height="316.1328" style="stroke: #A80036; stroke-width: 1.0;" width="10" x="254" y="126.5938" />
        <rect fill="#FFFFFF" filter="url(#f1beck9alplia7)" height="316.1328" style="stroke: #A80036; stroke-width: 1.0;" width="10" x="473" y="126.5938" />
        <polygon fill="#A80036" points="461,171.4258,471,175.4258,461,179.4258,465,175.4258" style="stroke: #A80036; stroke-width: 1.0;" />
        <line style="stroke: #A80036; stroke-width: 1.0;" x1="264" x2="467" y1="175.4258" y2="175.4258" /><text fill="#000000" font-family="sans-serif" font-size="13" lengthAdjust="spacingAndGlyphs" textLength="133" x="271" y="170.3599">Send violation report</text>
        <path d="M8,131.5938 L8,201.5938 L245,201.5938 L245,141.5938 L235,131.5938 L8,131.5938 " fill="#FBFB77" filter="url(#f1beck9alplia7)" style="stroke: #A80036; stroke-width: 1.0;" />
        <path d="M235,131.5938 L235,141.5938 L245,141.5938 L235,131.5938 " fill="#FBFB77" style="stroke: #A80036; stroke-width: 1.0;" /><text fill="#000000" font-family="sans-serif" font-size="13" lengthAdjust="spacingAndGlyphs" textLength="212" x="14" y="148.6606">This action is triggered everytime</text><text fill="#000000" font-family="sans-serif" font-size="13" lengthAdjust="spacingAndGlyphs" textLength="213" x="14" y="163.7935">a new violation report is validated</text><text fill="#000000" font-family="sans-serif" font-size="13" lengthAdjust="spacingAndGlyphs" textLength="200" x="14" y="178.9263">and stored into SafeStreets, as</text><text fill="#000000" font-family="sans-serif" font-size="13" lengthAdjust="spacingAndGlyphs" textLength="216" x="14" y="194.0591">illustrated in x sequence diagram.</text>
        <line style="stroke: #A80036; stroke-width: 1.0;" x1="483" x2="525" y1="232.2578" y2="232.2578" />
        <line style="stroke: #A80036; stroke-width: 1.0;" x1="525" x2="525" y1="232.2578" y2="245.2578" />
        <line style="stroke: #A80036; stroke-width: 1.0;" x1="484" x2="525" y1="245.2578" y2="245.2578" />
        <polygon fill="#A80036" points="494,241.2578,484,245.2578,494,249.2578,490,245.2578" style="stroke: #A80036; stroke-width: 1.0;" /><text fill="#000000" font-family="sans-serif" font-size="13" lengthAdjust="spacingAndGlyphs" textLength="117" x="490" y="227.1919">Generating tickets</text>
        <path d="M200,260.2578 L264,260.2578 L264,267.2578 L254,277.2578 L200,277.2578 L200,260.2578 " fill="#EEEEEE" style="stroke: #000000; stroke-width: 1.0;" />
        <rect fill="none" height="174.4688" style="stroke: #000000; stroke-width: 2.0;" width="306" x="200" y="260.2578" /><text fill="#000000" font-family="sans-serif" font-size="13" font-weight="bold" lengthAdjust="spacingAndGlyphs" textLength="19" x="215" y="273.3247">alt</text><text fill="#000000" font-family="sans-serif" font-size="11" font-weight="bold" lengthAdjust="spacingAndGlyphs" textLength="186" x="279" y="272.4683">[Tickets correctly generated]</text>
        <polygon fill="#A80036" points="275,294.5234,265,298.5234,275,302.5234,271,298.5234" style="stroke: #A80036; stroke-width: 1.0;" />
        <line style="stroke: #A80036; stroke-width: 1.0; stroke-dasharray: 2.0,2.0;" x1="269" x2="472" y1="298.5234" y2="298.5234" /><text fill="#000000" font-family="sans-serif" font-size="13" lengthAdjust="spacingAndGlyphs" textLength="130" x="281" y="293.4575">return issued tickets</text>
        <line style="stroke: #A80036; stroke-width: 1.0;" x1="264" x2="306" y1="327.6563" y2="327.6563" />
        <line style="stroke: #A80036; stroke-width: 1.0;" x1="306" x2="306" y1="327.6563" y2="340.6563" />
        <line style="stroke: #A80036; stroke-width: 1.0;" x1="265" x2="306" y1="340.6563" y2="340.6563" />
        <polygon fill="#A80036" points="275,336.6563,265,340.6563,275,344.6563,271,340.6563" style="stroke: #A80036; stroke-width: 1.0;" /><text fill="#000000" font-family="sans-serif" font-size="13" lengthAdjust="spacingAndGlyphs" textLength="124" x="271" y="322.5903">store issued tickets</text>
        <line style="stroke: #000000; stroke-width: 1.0; stroke-dasharray: 2.0,2.0;" x1="200" x2="506" y1="349.6563" y2="349.6563" /><text fill="#000000" font-family="sans-serif" font-size="11" font-weight="bold" lengthAdjust="spacingAndGlyphs" textLength="151" x="205" y="359.8667">[Tickets not generated]</text>
        <polygon fill="#A80036" points="275,380.5938,265,384.5938,275,388.5938,271,384.5938" style="stroke: #A80036; stroke-width: 1.0;" />
        <line style="stroke: #A80036; stroke-width: 1.0; stroke-dasharray: 2.0,2.0;" x1="269" x2="472" y1="384.5938" y2="384.5938" /><text fill="#000000" font-family="sans-serif" font-size="13" lengthAdjust="spacingAndGlyphs" textLength="185" x="281" y="379.5278">error while generating tickets</text>
        <line style="stroke: #A80036; stroke-width: 1.0;" x1="264" x2="306" y1="413.7266" y2="413.7266" />
        <line style="stroke: #A80036; stroke-width: 1.0;" x1="306" x2="306" y1="413.7266" y2="426.7266" />
        <line style="stroke: #A80036; stroke-width: 1.0;" x1="265" x2="306" y1="426.7266" y2="426.7266" />
        <polygon fill="#A80036" points="275,422.7266,265,426.7266,275,430.7266,271,426.7266" style="stroke: #A80036; stroke-width: 1.0;" /><text fill="#000000" font-family="sans-serif" font-size="13" lengthAdjust="spacingAndGlyphs" textLength="94" x="271" y="408.6606">no data stored</text><text fill="#888888" font-family="sans-serif" font-size="10" lengthAdjust="spacingAndGlyphs" textLength="109" x="256.5" y="547.3057">Sequence diagram x.x</text>
        <!--
@startuml

title Tickets generation
participant SafeStreets as st
actor MTS as mts
activate mts
activate st
st -> mts : Send violation report
note left
  This action is triggered everytime
  a new violation report is validated
  and stored into SafeStreets, as
  illustrated in x sequence diagram.
end note
mts->mts : Generating tickets

alt Tickets correctly generated
  mts - -> st : return issued tickets
  st->st : store issued tickets
else Tickets not generated
  mts- ->st : error while generating tickets
  st->st : no data stored
end

footer Sequence diagram x.x

@enduml

PlantUML version 1.2018.14(Fri Dec 21 17:33:16 CET 2018)
(GPL source distribution)
Java Runtime: OpenJDK Runtime Environment
JVM: OpenJDK 64-Bit Server VM
Java Version: 11.0.4+11-post-Ubuntu-1ubuntu218.04.3
Operating System: Linux
OS Version: 4.18.0-22-generic
Default Encoding: UTF-8
Language: en
Country: US
-->
    </g>
</svg>