<svg version="1.1" xmlns="http://www.w3.org/2000/svg" xmlns:xlink="http://www.w3.org/1999/xlink" width="684" height="356"><defs/><g transform="translate(-54,-54) scale(1,1)"><path fill="#C0C0C0" stroke="none" d="M 71 232.5 C 71 227.2532944 75.2532944 223 80.5 223 C 85.7467056 223 90 227.2532944 90 232.5 C 90 237.7467056 85.7467056 242 80.5 242 C 75.2532944 242 71 237.7467056 71 232.5 Z" opacity="0.2"/></g><g transform="translate(-54,-54) scale(1,1)"><path fill="#000000" stroke="none" d="M 64 225.5 C 64 220.2532944 68.2532944 216 73.5 216 C 78.7467056 216 83 220.2532944 83 225.5 C 83 230.7467056 78.7467056 235 73.5 235 C 68.2532944 235 64 230.7467056 64 225.5 Z"/></g><g transform="translate(-54,-54) scale(1,1)"><path fill="#C0C0C0" stroke="none" d="M 185 215 L 244.75732421875 215 Q 254.75732421875 215 254.75732421875 225 L 254.75732421875 244 Q 254.75732421875 254 244.75732421875 254 L 185 254 Q 175 254 175 244 L 175 225 Q 175 215 185 215 Z" opacity="0.2"/></g><g transform="translate(-54,-54) scale(1,1)"><path fill="#ffffff" stroke="none" d="M 178 208 L 237.75732421875 208 Q 247.75732421875 208 247.75732421875 218 L 247.75732421875 237 Q 247.75732421875 247 237.75732421875 247 L 178 247 Q 168 247 168 237 L 168 218 Q 168 208 178 208 Z"/></g><g transform="translate(-54,-54) scale(1,1)"><path fill="none" stroke="#000000" d="M 178 208 L 237.75732421875 208 Q 247.75732421875 208 247.75732421875 218 L 247.75732421875 237 Q 247.75732421875 247 237.75732421875 247 L 178 247 Q 168 247 168 237 L 168 218 Q 168 208 178 208 Z" stroke-miterlimit="10"/></g><g transform="translate(-54,-54) scale(1,1)"><g><path fill="none" stroke="none"/><text fill="#000000" stroke="none" font-family="Arial" font-size="13px" font-style="normal" font-weight="bold" text-decoration="none" x="175.346923828125" y="227.5">Logged out</text></g></g><g transform="translate(-54,-54) scale(1,1)"><path fill="#C0C0C0" stroke="none" d="M 345 71 L 725 71 Q 735 71 735 81 L 735 397 Q 735 407 725 407 L 345 407 Q 335 407 335 397 L 335 81 Q 335 71 345 71 Z" opacity="0.2"/></g><g transform="translate(-54,-54) scale(1,1)"><path fill="#ffffff" stroke="none" d="M 338 64 L 718 64 Q 728 64 728 74 L 728 390 Q 728 400 718 400 L 338 400 Q 328 400 328 390 L 328 74 Q 328 64 338 64 Z"/></g><g transform="translate(-54,-54) scale(1,1)"><path fill="none" stroke="#000000" d="M 338 64 L 718 64 Q 728 64 728 74 L 728 390 Q 728 400 718 400 L 338 400 Q 328 400 328 390 L 328 74 Q 328 64 338 64 Z" stroke-miterlimit="10"/></g><g transform="translate(-54,-54) scale(1,1)"><path fill="none" stroke="#000000" d="M 328 89 L 728 89" stroke-miterlimit="10"/></g><g transform="translate(-54,-54) scale(1,1)"><g><path fill="none" stroke="none"/><text fill="#000000" stroke="none" font-family="Arial" font-size="13px" font-style="normal" font-weight="bold" text-decoration="none" x="499.445068359375" y="83.5">Logged in</text></g></g><g transform="translate(-54,-54) scale(1,1)"><path fill="none" stroke="#000000" d="M 207 208 L 207 160 L 328 160" stroke-miterlimit="10"/></g><g transform="translate(-54,-54) scale(1,1)"><path fill="none" stroke="#000000" d="M 317.83732514237585 164.209517756016 L 328 160 L 317.83732514237585 155.790482243984" stroke-miterlimit="10"/></g><g transform="translate(-54,-54) scale(1,1)"><g><path fill="none" stroke="none"/><text fill="#000000" stroke="none" font-family="Arial" font-size="13px" font-style="normal" font-weight="normal" text-decoration="none" x="215.5" y="156.5">login</text></g></g><g transform="translate(-54,-54) scale(1,1)"><path fill="none" stroke="#000000" d="M 328 304 L 207 304 L 207 247" stroke-miterlimit="10"/></g><g transform="translate(-54,-54) scale(1,1)"><path fill="none" stroke="#000000" d="M 211.209517756016 257.16267485762415 L 207 247 L 202.790482243984 257.16267485762415" stroke-miterlimit="10"/></g><g transform="translate(-54,-54) scale(1,1)"><g><path fill="none" stroke="none"/><text fill="#000000" stroke="none" font-family="Arial" font-size="13px" font-style="normal" font-weight="normal" text-decoration="none" x="214.858642578125" y="321.5">logout</text></g></g><g transform="translate(-54,-54) scale(1,1)"><path fill="none" stroke="#000000" d="M 83 224 L 168 224" stroke-miterlimit="10"/></g><g transform="translate(-54,-54) scale(1,1)"><path fill="none" stroke="#000000" d="M 157.83732514237585 228.209517756016 L 168 224 L 157.83732514237585 219.790482243984" stroke-miterlimit="10"/></g><g transform="translate(-54,-54) scale(1,1)"><path fill="#C0C0C0" stroke="none" d="M 527 136.5 C 527 131.2532944 531.2532944 127 536.5 127 C 541.7467056 127 546 131.2532944 546 136.5 C 546 141.7467056 541.7467056 146 536.5 146 C 531.2532944 146 527 141.7467056 527 136.5 Z" opacity="0.2"/></g><g transform="translate(-54,-54) scale(1,1)"><path fill="#000000" stroke="none" d="M 520 129.5 C 520 124.2532944 524.2532944 120 529.5 120 C 534.7467056 120 539 124.2532944 539 129.5 C 539 134.7467056 534.7467056 139 529.5 139 C 524.2532944 139 520 134.7467056 520 129.5 Z"/></g><g transform="translate(-54,-54) scale(1,1)"><path fill="#C0C0C0" stroke="none" d="M 505 175 L 564.07177734375 175 Q 574.07177734375 175 574.07177734375 185 L 574.07177734375 204 Q 574.07177734375 214 564.07177734375 214 L 505 214 Q 495 214 495 204 L 495 185 Q 495 175 505 175 Z" opacity="0.2"/></g><g transform="translate(-54,-54) scale(1,1)"><path fill="#ffffff" stroke="none" d="M 498 168 L 557.07177734375 168 Q 567.07177734375 168 567.07177734375 178 L 567.07177734375 197 Q 567.07177734375 207 557.07177734375 207 L 498 207 Q 488 207 488 197 L 488 178 Q 488 168 498 168 Z"/></g><g transform="translate(-54,-54) scale(1,1)"><path fill="none" stroke="#000000" d="M 498 168 L 557.07177734375 168 Q 567.07177734375 168 567.07177734375 178 L 567.07177734375 197 Q 567.07177734375 207 557.07177734375 207 L 498 207 Q 488 207 488 197 L 488 178 Q 488 168 498 168 Z" stroke-miterlimit="10"/></g><g transform="translate(-54,-54) scale(1,1)"><g><path fill="none" stroke="none"/><text fill="#000000" stroke="none" font-family="Arial" font-size="13px" font-style="normal" font-weight="bold" text-decoration="none" x="493.931396484375" y="187.5">Home page</text></g></g><g transform="translate(-54,-54) scale(1,1)"><path fill="none" stroke="#000000" d="M 529 139 L 529 168" stroke-miterlimit="10"/></g><g transform="translate(-54,-54) scale(1,1)"><path fill="none" stroke="#000000" d="M 524.790482243984 157.83732514237585 L 529 168 L 533.209517756016 157.83732514237585" stroke-miterlimit="10"/></g><g transform="translate(-54,-54) scale(1,1)"><path fill="#C0C0C0" stroke="none" d="M 393 279 L 454.02685546875 279 Q 464.02685546875 279 464.02685546875 289 L 464.02685546875 308 Q 464.02685546875 318 454.02685546875 318 L 393 318 Q 383 318 383 308 L 383 289 Q 383 279 393 279 Z" opacity="0.2"/></g><g transform="translate(-54,-54) scale(1,1)"><path fill="#ffffff" stroke="none" d="M 386 272 L 447.02685546875 272 Q 457.02685546875 272 457.02685546875 282 L 457.02685546875 301 Q 457.02685546875 311 447.02685546875 311 L 386 311 Q 376 311 376 301 L 376 282 Q 376 272 386 272 Z"/></g><g transform="translate(-54,-54) scale(1,1)"><path fill="none" stroke="#000000" d="M 386 272 L 447.02685546875 272 Q 457.02685546875 272 457.02685546875 282 L 457.02685546875 301 Q 457.02685546875 311 447.02685546875 311 L 386 311 Q 376 311 376 301 L 376 282 Q 376 272 386 272 Z" stroke-miterlimit="10"/></g><g transform="translate(-54,-54) scale(1,1)"><g><path fill="none" stroke="none"/><text fill="#000000" stroke="none" font-family="Arial" font-size="13px" font-style="normal" font-weight="bold" text-decoration="none" x="382.7978515625" y="291.5">SafeTickets</text></g></g><g transform="translate(-54,-54) scale(1,1)"><path fill="#C0C0C0" stroke="none" d="M 609 279 L 683.26171875 279 Q 693.26171875 279 693.26171875 289 L 693.26171875 308 Q 693.26171875 318 683.26171875 318 L 609 318 Q 599 318 599 308 L 599 289 Q 599 279 609 279 Z" opacity="0.2"/></g><g transform="translate(-54,-54) scale(1,1)"><path fill="#ffffff" stroke="none" d="M 602 272 L 676.26171875 272 Q 686.26171875 272 686.26171875 282 L 686.26171875 301 Q 686.26171875 311 676.26171875 311 L 602 311 Q 592 311 592 301 L 592 282 Q 592 272 602 272 Z"/></g><g transform="translate(-54,-54) scale(1,1)"><path fill="none" stroke="#000000" d="M 602 272 L 676.26171875 272 Q 686.26171875 272 686.26171875 282 L 686.26171875 301 Q 686.26171875 311 676.26171875 311 L 602 311 Q 592 311 592 301 L 592 282 Q 592 272 602 272 Z" stroke-miterlimit="10"/></g><g transform="translate(-54,-54) scale(1,1)"><g><path fill="none" stroke="none"/><text fill="#000000" stroke="none" font-family="Arial" font-size="13px" font-style="normal" font-weight="bold" text-decoration="none" x="599.75" y="291.5">SafeAnalytics</text></g></g><g transform="translate(-54,-54) scale(1,1)"><path fill="none" stroke="#000000" d="M 488 184 L 432 184 L 432 272" stroke-miterlimit="10"/></g><g transform="translate(-54,-54) scale(1,1)"><path fill="none" stroke="#000000" d="M 427.790482243984 261.83732514237585 L 432 272 L 436.209517756016 261.83732514237585" stroke-miterlimit="10"/></g><g transform="translate(-54,-54) scale(1,1)"><g><path fill="none" stroke="none"/><text fill="#000000" stroke="none" font-family="Arial" font-size="13px" font-style="normal" font-weight="normal" text-decoration="none" x="376.30908203125" y="179.5">select safetickets</text></g></g><g transform="translate(-54,-54) scale(1,1)"><path fill="none" stroke="#000000" d="M 567 184 L 624 184 L 624 272" stroke-miterlimit="10"/></g><g transform="translate(-54,-54) scale(1,1)"><path fill="none" stroke="#000000" d="M 619.790482243984 261.83732514237585 L 624 272 L 628.209517756016 261.83732514237585" stroke-miterlimit="10"/></g><g transform="translate(-54,-54) scale(1,1)"><g><path fill="none" stroke="none"/><text fill="#000000" stroke="none" font-family="Arial" font-size="13px" font-style="normal" font-weight="normal" text-decoration="none" x="582.5" y="180.5">select safeanalytics</text></g></g><g transform="translate(-54,-54) scale(1,1)"><path fill="none" stroke="#000000" d="M 457 291 L 507 291 L 507 207" stroke-miterlimit="10"/></g><g transform="translate(-54,-54) scale(1,1)"><path fill="none" stroke="#000000" d="M 511.209517756016 217.16267485762415 L 507 207 L 502.790482243984 217.16267485762415" stroke-miterlimit="10"/></g><g transform="translate(-54,-54) scale(1,1)"><g><path fill="none" stroke="none"/><text fill="#000000" stroke="none" font-family="Arial" font-size="13px" font-style="normal" font-weight="normal" text-decoration="none" x="471.5" y="307.5">go back</text></g></g><g transform="translate(-54,-54) scale(1,1)"><path fill="none" stroke="#000000" d="M 592 291 L 546 291 L 546 207" stroke-miterlimit="10"/></g><g transform="translate(-54,-54) scale(1,1)"><path fill="none" stroke="#000000" d="M 550.209517756016 217.16267485762415 L 546 207 L 541.790482243984 217.16267485762415" stroke-miterlimit="10"/></g><g transform="translate(-54,-54) scale(1,1)"><g><path fill="none" stroke="none"/><text fill="#000000" stroke="none" font-family="Arial" font-size="13px" font-style="normal" font-weight="normal" text-decoration="none" x="535.5" y="307.5">go back</text></g></g><g transform="translate(-54,-54) scale(1,1)"><path fill="none" stroke="#000000" d="M 400 311 L 400 336 L 432 336 L 432 311" stroke-miterlimit="10"/></g><g transform="translate(-54,-54) scale(1,1)"><path fill="none" stroke="#000000" d="M 436.209517756016 321.16267485762415 L 432 311 L 427.790482243984 321.16267485762415" stroke-miterlimit="10"/></g><g transform="translate(-54,-54) scale(1,1)"><g><path fill="none" stroke="none"/><text fill="#000000" stroke="none" font-family="Arial" font-size="13px" font-style="normal" font-weight="normal" text-decoration="none" x="385.5" y="355.5">query data</text></g></g><g transform="translate(-54,-54) scale(1,1)"><path fill="none" stroke="#000000" d="M 624 311 L 624 336 L 656 336 L 656 311" stroke-miterlimit="10"/></g><g transform="translate(-54,-54) scale(1,1)"><path fill="none" stroke="#000000" d="M 660.209517756016 321.16267485762415 L 656 311 L 651.790482243984 321.16267485762415" stroke-miterlimit="10"/></g><g transform="translate(-54,-54) scale(1,1)"><g><path fill="none" stroke="none"/><text fill="#000000" stroke="none" font-family="Arial" font-size="13px" font-style="normal" font-weight="normal" text-decoration="none" x="609.5" y="355.5">query data</text></g></g></svg>