<svg version="1.1" xmlns="http://www.w3.org/2000/svg" xmlns:xlink="http://www.w3.org/1999/xlink" width="556" height="356"><defs/><g transform="translate(-54,-54) scale(1,1)"><path fill="#C0C0C0" stroke="none" d="M 71 232.5 C 71 227.2532944 75.2532944 223 80.5 223 C 85.7467056 223 90 227.2532944 90 232.5 C 90 237.7467056 85.7467056 242 80.5 242 C 75.2532944 242 71 237.7467056 71 232.5 Z" opacity="0.2"/></g><g transform="translate(-54,-54) scale(1,1)"><path fill="#000000" stroke="none" d="M 64 225.5 C 64 220.2532944 68.2532944 216 73.5 216 C 78.7467056 216 83 220.2532944 83 225.5 C 83 230.7467056 78.7467056 235 73.5 235 C 68.2532944 235 64 230.7467056 64 225.5 Z"/></g><g transform="translate(-54,-54) scale(1,1)"><path fill="#C0C0C0" stroke="none" d="M 185 215 L 244.75732421875 215 Q 254.75732421875 215 254.75732421875 225 L 254.75732421875 244 Q 254.75732421875 254 244.75732421875 254 L 185 254 Q 175 254 175 244 L 175 225 Q 175 215 185 215 Z" opacity="0.2"/></g><g transform="translate(-54,-54) scale(1,1)"><path fill="#ffffff" stroke="none" d="M 178 208 L 237.75732421875 208 Q 247.75732421875 208 247.75732421875 218 L 247.75732421875 237 Q 247.75732421875 247 237.75732421875 247 L 178 247 Q 168 247 168 237 L 168 218 Q 168 208 178 208 Z"/></g><g transform="translate(-54,-54) scale(1,1)"><path fill="none" stroke="#000000" d="M 178 208 L 237.75732421875 208 Q 247.75732421875 208 247.75732421875 218 L 247.75732421875 237 Q 247.75732421875 247 237.75732421875 247 L 178 247 Q 168 247 168 237 L 168 218 Q 168 208 178 208 Z" stroke-miterlimit="10"/></g><g transform="translate(-54,-54) scale(1,1)"><g><path fill="none" stroke="none"/><text fill="#000000" stroke="none" font-family="Arial" font-size="13px" font-style="normal" font-weight="bold" text-decoration="none" x="175.346923828125" y="227.5">Logged out</text></g></g><g transform="translate(-54,-54) scale(1,1)"><path fill="#C0C0C0" stroke="none" d="M 345 71 L 597 71 Q 607 71 607 81 L 607 397 Q 607 407 597 407 L 345 407 Q 335 407 335 397 L 335 81 Q 335 71 345 71 Z" opacity="0.2"/></g><g transform="translate(-54,-54) scale(1,1)"><path fill="#ffffff" stroke="none" d="M 338 64 L 590 64 Q 600 64 600 74 L 600 390 Q 600 400 590 400 L 338 400 Q 328 400 328 390 L 328 74 Q 328 64 338 64 Z"/></g><g transform="translate(-54,-54) scale(1,1)"><path fill="none" stroke="#000000" d="M 338 64 L 590 64 Q 600 64 600 74 L 600 390 Q 600 400 590 400 L 338 400 Q 328 400 328 390 L 328 74 Q 328 64 338 64 Z" stroke-miterlimit="10"/></g><g transform="translate(-54,-54) scale(1,1)"><path fill="none" stroke="#000000" d="M 328 89 L 600 89" stroke-miterlimit="10"/></g><g transform="translate(-54,-54) scale(1,1)"><g><path fill="none" stroke="none"/><text fill="#000000" stroke="none" font-family="Arial" font-size="13px" font-style="normal" font-weight="bold" text-decoration="none" x="435.445068359375" y="83.5">Logged in</text></g></g><g transform="translate(-54,-54) scale(1,1)"><path fill="none" stroke="#000000" d="M 207 208 L 207 160 L 328 160" stroke-miterlimit="10"/></g><g transform="translate(-54,-54) scale(1,1)"><path fill="none" stroke="#000000" d="M 317.83732514237585 164.209517756016 L 328 160 L 317.83732514237585 155.790482243984" stroke-miterlimit="10"/></g><g transform="translate(-54,-54) scale(1,1)"><g><path fill="none" stroke="none"/><text fill="#000000" stroke="none" font-family="Arial" font-size="13px" font-style="normal" font-weight="normal" text-decoration="none" x="215.5" y="156.5">login</text></g></g><g transform="translate(-54,-54) scale(1,1)"><path fill="none" stroke="#000000" d="M 328 304 L 207 304 L 207 247" stroke-miterlimit="10"/></g><g transform="translate(-54,-54) scale(1,1)"><path fill="none" stroke="#000000" d="M 211.209517756016 257.16267485762415 L 207 247 L 202.790482243984 257.16267485762415" stroke-miterlimit="10"/></g><g transform="translate(-54,-54) scale(1,1)"><g><path fill="none" stroke="none"/><text fill="#000000" stroke="none" font-family="Arial" font-size="13px" font-style="normal" font-weight="normal" text-decoration="none" x="214.858642578125" y="321.5">logout</text></g></g><g transform="translate(-54,-54) scale(1,1)"><path fill="none" stroke="#000000" d="M 83 224 L 168 224" stroke-miterlimit="10"/></g><g transform="translate(-54,-54) scale(1,1)"><path fill="none" stroke="#000000" d="M 157.83732514237585 228.209517756016 L 168 224 L 157.83732514237585 219.790482243984" stroke-miterlimit="10"/></g><g transform="translate(-54,-54) scale(1,1)"><path fill="#C0C0C0" stroke="none" d="M 441 175 L 500.07177734375 175 Q 510.07177734375 175 510.07177734375 185 L 510.07177734375 204 Q 510.07177734375 214 500.07177734375 214 L 441 214 Q 431 214 431 204 L 431 185 Q 431 175 441 175 Z" opacity="0.2"/></g><g transform="translate(-54,-54) scale(1,1)"><path fill="#ffffff" stroke="none" d="M 434 168 L 493.07177734375 168 Q 503.07177734375 168 503.07177734375 178 L 503.07177734375 197 Q 503.07177734375 207 493.07177734375 207 L 434 207 Q 424 207 424 197 L 424 178 Q 424 168 434 168 Z"/></g><g transform="translate(-54,-54) scale(1,1)"><path fill="none" stroke="#000000" d="M 434 168 L 493.07177734375 168 Q 503.07177734375 168 503.07177734375 178 L 503.07177734375 197 Q 503.07177734375 207 493.07177734375 207 L 434 207 Q 424 207 424 197 L 424 178 Q 424 168 434 168 Z" stroke-miterlimit="10"/></g><g transform="translate(-54,-54) scale(1,1)"><g><path fill="none" stroke="none"/><text fill="#000000" stroke="none" font-family="Arial" font-size="13px" font-style="normal" font-weight="bold" text-decoration="none" x="429.931396484375" y="187.5">Home page</text></g></g><g transform="translate(-54,-54) scale(1,1)"><path fill="none" stroke="#000000" d="M 465 139 L 465 168" stroke-miterlimit="10"/></g><g transform="translate(-54,-54) scale(1,1)"><path fill="none" stroke="#000000" d="M 460.790482243984 157.83732514237585 L 465 168 L 469.209517756016 157.83732514237585" stroke-miterlimit="10"/></g><g transform="translate(-54,-54) scale(1,1)"><path fill="#C0C0C0" stroke="none" d="M 425 279 L 519.46630859375 279 Q 529.46630859375 279 529.46630859375 289 L 529.46630859375 308 Q 529.46630859375 318 519.46630859375 318 L 425 318 Q 415 318 415 308 L 415 289 Q 415 279 425 279 Z" opacity="0.2"/></g><g transform="translate(-54,-54) scale(1,1)"><path fill="#ffffff" stroke="none" d="M 418 272 L 512.46630859375 272 Q 522.46630859375 272 522.46630859375 282 L 522.46630859375 301 Q 522.46630859375 311 512.46630859375 311 L 418 311 Q 408 311 408 301 L 408 282 Q 408 272 418 272 Z"/></g><g transform="translate(-54,-54) scale(1,1)"><path fill="none" stroke="#000000" d="M 418 272 L 512.46630859375 272 Q 522.46630859375 272 522.46630859375 282 L 522.46630859375 301 Q 522.46630859375 311 512.46630859375 311 L 418 311 Q 408 311 408 301 L 408 282 Q 408 272 418 272 Z" stroke-miterlimit="10"/></g><g transform="translate(-54,-54) scale(1,1)"><g><path fill="none" stroke="none"/><text fill="#000000" stroke="none" font-family="Arial" font-size="13px" font-style="normal" font-weight="bold" text-decoration="none" x="416.08642578125" y="291.5">SafeSuggestions</text></g></g><g transform="translate(-54,-54) scale(1,1)"><path fill="none" stroke="#000000" d="M 448 207 L 448 272" stroke-miterlimit="10"/></g><g transform="translate(-54,-54) scale(1,1)"><path fill="none" stroke="#000000" d="M 443.790482243984 261.83732514237585 L 448 272 L 452.209517756016 261.83732514237585" stroke-miterlimit="10"/></g><g transform="translate(-54,-54) scale(1,1)"><g><path fill="none" stroke="none"/><text fill="#000000" stroke="none" font-family="Arial" font-size="13px" font-style="normal" font-weight="normal" text-decoration="none" x="376.52001953125" y="234.5">select</text><text fill="#000000" stroke="none" font-family="Arial" font-size="13px" font-style="normal" font-weight="normal" text-decoration="none" x="346.524169921875" y="247.5">safesuggestions</text></g></g><g transform="translate(-54,-54) scale(1,1)"><path fill="none" stroke="#000000" d="M 480 272 L 480 207" stroke-miterlimit="10"/></g><g transform="translate(-54,-54) scale(1,1)"><path fill="none" stroke="#000000" d="M 484.209517756016 217.16267485762415 L 480 207 L 475.790482243984 217.16267485762415" stroke-miterlimit="10"/></g><g transform="translate(-54,-54) scale(1,1)"><g><path fill="none" stroke="none"/><text fill="#000000" stroke="none" font-family="Arial" font-size="13px" font-style="normal" font-weight="normal" text-decoration="none" x="486.5" y="243.5">go back</text></g></g><g transform="translate(-54,-54) scale(1,1)"><path fill="none" stroke="#000000" d="M 448 311 L 448 336 L 480 336 L 480 311" stroke-miterlimit="10"/></g><g transform="translate(-54,-54) scale(1,1)"><path fill="none" stroke="#000000" d="M 484.209517756016 321.16267485762415 L 480 311 L 475.790482243984 321.16267485762415" stroke-miterlimit="10"/></g><g transform="translate(-54,-54) scale(1,1)"><g><path fill="none" stroke="none"/><text fill="#000000" stroke="none" font-family="Arial" font-size="13px" font-style="normal" font-weight="normal" text-decoration="none" x="433.5" y="355.5">query data</text></g></g><g transform="translate(-54,-54) scale(1,1)"><path fill="#C0C0C0" stroke="none" d="M 463 136.5 C 463 131.2532944 467.2532944 127 472.5 127 C 477.7467056 127 482 131.2532944 482 136.5 C 482 141.7467056 477.7467056 146 472.5 146 C 467.2532944 146 463 141.7467056 463 136.5 Z" opacity="0.2"/></g><g transform="translate(-54,-54) scale(1,1)"><path fill="#000000" stroke="none" d="M 456 129.5 C 456 124.2532944 460.2532944 120 465.5 120 C 470.7467056 120 475 124.2532944 475 129.5 C 475 134.7467056 470.7467056 139 465.5 139 C 460.2532944 139 456 134.7467056 456 129.5 Z"/></g></svg>