<svg version="1.1" xmlns="http://www.w3.org/2000/svg" xmlns:xlink="http://www.w3.org/1999/xlink" width="448.82275390625" height="197"><defs/><g transform="translate(-46,-34) scale(1,1)"><path fill="#C0C0C0" stroke="none" d="M 63 144.5 C 63 139.2532944 67.2532944 135 72.5 135 C 77.7467056 135 82 139.2532944 82 144.5 C 82 149.7467056 77.7467056 154 72.5 154 C 67.2532944 154 63 149.7467056 63 144.5 Z" opacity="0.2"/></g><g transform="translate(-46,-34) scale(1,1)"><path fill="#000000" stroke="none" d="M 56 137.5 C 56 132.2532944 60.2532944 128 65.5 128 C 70.7467056 128 75 132.2532944 75 137.5 C 75 142.7467056 70.7467056 147 65.5 147 C 60.2532944 147 56 142.7467056 56 137.5 Z"/></g><g transform="translate(-46,-34) scale(1,1)"><path fill="#C0C0C0" stroke="none" d="M 153 127 L 205.552734375 127 Q 215.552734375 127 215.552734375 137 L 215.552734375 156 Q 215.552734375 166 205.552734375 166 L 153 166 Q 143 166 143 156 L 143 137 Q 143 127 153 127 Z" opacity="0.2"/></g><g transform="translate(-46,-34) scale(1,1)"><path fill="#ffffff" stroke="none" d="M 146 120 L 198.552734375 120 Q 208.552734375 120 208.552734375 130 L 208.552734375 149 Q 208.552734375 159 198.552734375 159 L 146 159 Q 136 159 136 149 L 136 130 Q 136 120 146 120 Z"/></g><g transform="translate(-46,-34) scale(1,1)"><path fill="none" stroke="#000000" d="M 146 120 L 198.552734375 120 Q 208.552734375 120 208.552734375 130 L 208.552734375 149 Q 208.552734375 159 198.552734375 159 L 146 159 Q 136 159 136 149 L 136 130 Q 136 120 146 120 Z" stroke-miterlimit="10"/></g><g transform="translate(-46,-34) scale(1,1)"><g><path fill="none" stroke="none"/><text fill="#000000" stroke="none" font-family="Arial" font-size="13px" font-style="normal" font-weight="bold" text-decoration="none" x="142.28369140625" y="139.5">Up to date</text></g></g><g transform="translate(-46,-34) scale(1,1)"><path fill="#C0C0C0" stroke="none" d="M 417 127 L 481.82275390625 127 Q 491.82275390625 127 491.82275390625 137 L 491.82275390625 156 Q 491.82275390625 166 481.82275390625 166 L 417 166 Q 407 166 407 156 L 407 137 Q 407 127 417 127 Z" opacity="0.2"/></g><g transform="translate(-46,-34) scale(1,1)"><path fill="#ffffff" stroke="none" d="M 410 120 L 474.82275390625 120 Q 484.82275390625 120 484.82275390625 130 L 484.82275390625 149 Q 484.82275390625 159 474.82275390625 159 L 410 159 Q 400 159 400 149 L 400 130 Q 400 120 410 120 Z"/></g><g transform="translate(-46,-34) scale(1,1)"><path fill="none" stroke="#000000" d="M 410 120 L 474.82275390625 120 Q 484.82275390625 120 484.82275390625 130 L 484.82275390625 149 Q 484.82275390625 159 474.82275390625 159 L 410 159 Q 400 159 400 149 L 400 130 Q 400 120 410 120 Z" stroke-miterlimit="10"/></g><g transform="translate(-46,-34) scale(1,1)"><g><path fill="none" stroke="none"/><text fill="#000000" stroke="none" font-family="Arial" font-size="13px" font-style="normal" font-weight="bold" text-decoration="none" x="406.99462890625" y="139.5">Not updated</text></g></g><g transform="translate(-46,-34) scale(1,1)"><path fill="none" stroke="#000000" d="M 172 120 L 172 72 L 440 72 L 440 120" stroke-miterlimit="10"/></g><g transform="translate(-46,-34) scale(1,1)"><path fill="none" stroke="#000000" d="M 435.790482243984 109.83732514237585 L 440 120 L 444.209517756016 109.83732514237585" stroke-miterlimit="10"/></g><g transform="translate(-46,-34) scale(1,1)"><g><path fill="none" stroke="none"/><text fill="#000000" stroke="none" font-family="Arial" font-size="13px" font-style="normal" font-weight="normal" text-decoration="none" x="250.5927734375" y="56.5">municipality makes</text><text fill="#000000" stroke="none" font-family="Arial" font-size="13px" font-style="normal" font-weight="normal" text-decoration="none" x="251.656005859375" y="69.5">new data available</text></g></g><g transform="translate(-46,-34) scale(1,1)"><path fill="none" stroke="#000000" d="M 440 159 L 440 200 L 172 200 L 172 159" stroke-miterlimit="10"/></g><g transform="translate(-46,-34) scale(1,1)"><path fill="none" stroke="#000000" d="M 176.209517756016 169.16267485762415 L 172 159 L 167.790482243984 169.16267485762415" stroke-miterlimit="10"/></g><g transform="translate(-46,-34) scale(1,1)"><g><path fill="none" stroke="none"/><text fill="#000000" stroke="none" font-family="Arial" font-size="13px" font-style="normal" font-weight="normal" text-decoration="none" x="255.55908203125" y="221.5">request new data</text></g></g><g transform="translate(-46,-34) scale(1,1)"><path fill="none" stroke="#000000" d="M 75 138 L 136 138" stroke-miterlimit="10"/></g><g transform="translate(-46,-34) scale(1,1)"><path fill="none" stroke="#000000" d="M 125.83732514237585 142.209517756016 L 136 138 L 125.83732514237585 133.790482243984" stroke-miterlimit="10"/></g><g transform="translate(-46,-34) scale(1,1)"><path fill="none" stroke="#000000" d="M 209 128 L 238 128 L 238 152 L 209 152" stroke-miterlimit="10"/></g><g transform="translate(-46,-34) scale(1,1)"><path fill="none" stroke="#000000" d="M 219.16267485762415 147.790482243984 L 209 152 L 219.16267485762415 156.209517756016" stroke-miterlimit="10"/></g><g transform="translate(-46,-34) scale(1,1)"><g><path fill="none" stroke="none"/><text fill="#000000" stroke="none" font-family="Arial" font-size="13px" font-style="normal" font-weight="normal" text-decoration="none" x="246.5" y="145.5">identify suggestions</text></g></g></svg>