<?xml version="1.0" encoding="UTF-8" standalone="no"?><svg xmlns="http://www.w3.org/2000/svg" xmlns:xlink="http://www.w3.org/1999/xlink" contentScriptType="application/ecmascript" contentStyleType="text/css" height="421px" preserveAspectRatio="none" style="width:907px;height:421px;" version="1.1" viewBox="0 0 907 421" width="907px" zoomAndPan="magnify">
    <defs>
        <filter height="300%" id="fev00jq8zipe" width="300%" x="-1" y="-1">
            <feGaussianBlur result="blurOut" stdDeviation="2.0" />
            <feColorMatrix in="blurOut" result="blurOut2" type="matrix" values="0 0 0 0 0 0 0 0 0 0 0 0 0 0 0 0 0 0 .4 0" />
            <feOffset dx="4.0" dy="4.0" in="blurOut2" result="blurOut3" />
            <feBlend in="SourceGraphic" in2="blurOut3" mode="normal" />
        </filter>
    </defs>
    <g>
        <!--cluster SafeStreets-->
        <rect fill="#FFFFFF" filter="url(#fev00jq8zipe)" height="385" style="stroke: #000000; stroke-width: 1.5;" width="515" x="151" y="16.5" /><text fill="#000000" font-family="sans-serif" font-size="14" font-weight="bold" lengthAdjust="spacingAndGlyphs" textLength="93" x="362" y="31.4951">SafeStreets</text>
        <ellipse cx="240.234" cy="58.5236" fill="#FEFECE" filter="url(#fev00jq8zipe)" rx="36.234" ry="14.5236" style="stroke: #A80036; stroke-width: 1.5;" /><text fill="#000000" font-family="sans-serif" font-size="14" lengthAdjust="spacingAndGlyphs" textLength="47" x="216.734" y="63.1721">signup</text>
        <ellipse cx="239.9883" cy="126.5977" fill="#FEFECE" filter="url(#fev00jq8zipe)" rx="80.9883" ry="18.5977" style="stroke: #A80036; stroke-width: 1.5;" /><text fill="#000000" font-family="sans-serif" font-size="14" lengthAdjust="spacingAndGlyphs" textLength="133" x="173.4883" y="131.2461">retrieve information</text>
        <ellipse cx="239.9465" cy="233.6893" fill="#FEFECE" filter="url(#fev00jq8zipe)" rx="71.4465" ry="16.6893" style="stroke: #A80036; stroke-width: 1.5;" /><text fill="#000000" font-family="sans-serif" font-size="14" lengthAdjust="spacingAndGlyphs" textLength="110" x="184.9465" y="238.3377">report violations</text>
        <ellipse cx="581.9597" cy="254.5919" fill="#FEFECE" filter="url(#fev00jq8zipe)" rx="65.9597" ry="15.5919" style="stroke: #A80036; stroke-width: 1.5;" /><text fill="#000000" font-family="sans-serif" font-size="14" lengthAdjust="spacingAndGlyphs" textLength="96" x="533.9597" y="259.2404">read the plate</text>
        <ellipse cx="581.8345" cy="178.5236" fill="#FEFECE" filter="url(#fev00jq8zipe)" rx="26.3345" ry="14.5236" style="stroke: #A80036; stroke-width: 1.5;" /><text fill="#000000" font-family="sans-serif" font-size="14" lengthAdjust="spacingAndGlyphs" textLength="33" x="565.3345" y="183.1721">login</text>
        <ellipse cx="581.7756" cy="58.5236" fill="#FEFECE" filter="url(#fev00jq8zipe)" rx="60.2756" ry="14.5236" style="stroke: #A80036; stroke-width: 1.5;" /><text fill="#000000" font-family="sans-serif" font-size="14" lengthAdjust="spacingAndGlyphs" textLength="81" x="541.2756" y="63.1721">display map</text>
        <ellipse cx="581.9395" cy="366.5879" fill="#FEFECE" filter="url(#fev00jq8zipe)" rx="75.9395" ry="17.5879" style="stroke: #A80036; stroke-width: 1.5;" /><text fill="#000000" font-family="sans-serif" font-size="14" lengthAdjust="spacingAndGlyphs" textLength="121" x="521.4395" y="371.2363">generates tickets</text>
        <!--entity user-->
        <ellipse cx="22" cy="95" fill="#FEFECE" filter="url(#fev00jq8zipe)" rx="8" ry="8" style="stroke: #A80036; stroke-width: 2.0;" />
        <path d="M22,103 L22,130 M9,111 L35,111 M22,130 L9,145 M22,130 L35,145 " fill="none" filter="url(#fev00jq8zipe)" style="stroke: #A80036; stroke-width: 2.0;" /><text fill="#000000" font-family="sans-serif" font-size="14" lengthAdjust="spacingAndGlyphs" textLength="32" x="6" y="164.9951">User</text>
        <!--entity ocr-->
        <ellipse cx="849.5" cy="220" fill="#FEFECE" filter="url(#fev00jq8zipe)" rx="8" ry="8" style="stroke: #A80036; stroke-width: 2.0;" />
        <path d="M849.5,228 L849.5,255 M836.5,236 L862.5,236 M849.5,255 L836.5,270 M849.5,255 L862.5,270 " fill="none" filter="url(#fev00jq8zipe)" style="stroke: #A80036; stroke-width: 2.0;" /><text fill="#000000" font-family="sans-serif" font-size="14" lengthAdjust="spacingAndGlyphs" textLength="31" x="834" y="289.9951">OCR</text>
        <!--entity gm-->
        <ellipse cx="849.5" cy="27" fill="#FEFECE" filter="url(#fev00jq8zipe)" rx="8" ry="8" style="stroke: #A80036; stroke-width: 2.0;" />
        <path d="M849.5,35 L849.5,62 M836.5,43 L862.5,43 M849.5,62 L836.5,77 M849.5,62 L862.5,77 " fill="none" filter="url(#fev00jq8zipe)" style="stroke: #A80036; stroke-width: 2.0;" /><text fill="#000000" font-family="sans-serif" font-size="14" lengthAdjust="spacingAndGlyphs" textLength="91" x="804" y="96.9951">Google Maps</text>
        <!--entity mts-->
        <ellipse cx="849.5" cy="338" fill="#FEFECE" filter="url(#fev00jq8zipe)" rx="8" ry="8" style="stroke: #A80036; stroke-width: 2.0;" />
        <path d="M849.5,346 L849.5,373 M836.5,354 L862.5,354 M849.5,373 L836.5,388 M849.5,373 L862.5,388 " fill="none" filter="url(#fev00jq8zipe)" style="stroke: #A80036; stroke-width: 2.0;" /><text fill="#000000" font-family="sans-serif" font-size="14" lengthAdjust="spacingAndGlyphs" textLength="30" x="834.5" y="407.9951">MTS</text>
        <!--link user to signup-->
        <path d="M38.2356,117.3442 C46.8793,112.7383 57.8043,107.335 68,103.5 C115.2353,85.7329 172.294,72.3049 207.3608,64.9207 " fill="none" id="user-signup" style="stroke: #A80036; stroke-width: 1.0;" /><text fill="#000000" font-family="sans-serif" font-size="13" lengthAdjust="spacingAndGlyphs" textLength="59" x="69" y="80.5669">«initiate»</text>
        <!--link user to retrieve information-->
        <path d="M38.0301,126.5 C63.3989,126.5 114.4852,126.5 158.9289,126.5 " fill="none" id="user-retrieve information" style="stroke: #A80036; stroke-width: 1.0;" /><text fill="#000000" font-family="sans-serif" font-size="13" lengthAdjust="spacingAndGlyphs" textLength="59" x="69" y="122.5669">«initiate»</text>
        <!--link user to report violations-->
        <path d="M38.0684,135.5037 C46.8519,140.3567 57.9582,146.3821 68,151.5 C116.1896,176.0604 172.9836,202.6966 207.7346,218.739 " fill="none" id="user-report violations" style="stroke: #A80036; stroke-width: 1.0;" /><text fill="#000000" font-family="sans-serif" font-size="13" lengthAdjust="spacingAndGlyphs" textLength="59" x="69" y="147.5669">«initiate»</text>
        <!--link report violations to read the plate-->
        <path d="M307.5094,239.109 C331.0694,240.9657 357.6936,242.9512 382,244.5 C424.9997,247.24 473.2402,249.6707 511.569,251.4495 " fill="none" id="report violations-read the plate" style="stroke: #A80036; stroke-width: 1.0;" />
        <polygon fill="#A80036" points="516.6703,251.6851,507.8645,247.2741,511.6756,251.4544,507.4953,255.2655,516.6703,251.6851" style="stroke: #A80036; stroke-width: 1.0;" /><text fill="#000000" font-family="sans-serif" font-size="13" lengthAdjust="spacingAndGlyphs" textLength="46" x="390.5" y="240.5669">«uses»</text>
        <!--link report violations to login-->
        <path d="M304.1805,223.1786 C377.7962,211.3398 495.4684,192.4159 551.0306,183.4805 " fill="none" id="report violations-login" style="stroke: #A80036; stroke-width: 1.0;" />
        <polygon fill="#A80036" points="556.2101,182.6475,546.6892,180.1272,551.2735,183.4414,547.9593,188.0257,556.2101,182.6475" style="stroke: #A80036; stroke-width: 1.0;" />
        <polygon fill="#A80036" points="298.7919,224.0452,308.3129,226.5652,303.7285,223.2512,307.0425,218.6668,298.7919,224.0452" style="stroke: #A80036; stroke-width: 1.0;" /><text fill="#000000" font-family="sans-serif" font-size="13" lengthAdjust="spacingAndGlyphs" textLength="61" x="383" y="197.5669">«include»</text>
        <!--link retrieve information to login-->
        <path d="M312.5464,137.5304 C386.6267,148.7941 498.0963,165.7427 551.4393,173.8533 " fill="none" id="retrieve information-login" style="stroke: #A80036; stroke-width: 1.0;" />
        <polygon fill="#A80036" points="556.4168,174.6102,548.1205,169.3026,551.4736,173.8585,546.9177,177.2116,556.4168,174.6102" style="stroke: #A80036; stroke-width: 1.0;" />
        <polygon fill="#A80036" points="307.5682,136.7735,315.8645,142.0811,312.5114,137.5252,317.0673,134.1721,307.5682,136.7735" style="stroke: #A80036; stroke-width: 1.0;" /><text fill="#000000" font-family="sans-serif" font-size="13" lengthAdjust="spacingAndGlyphs" textLength="61" x="383" y="144.5669">«include»</text>
        <!--link read the plate to ocr-->
        <path d="M653.2704,253.7007 C714.9585,253.0089 799.5181,252.0605 833.9572,251.6743 " fill="none" id="read the plate-ocr" style="stroke: #A80036; stroke-width: 1.0;" />
        <polygon fill="#A80036" points="648.1236,253.7584,657.1681,257.6568,653.1233,253.7021,657.078,249.6573,648.1236,253.7584" style="stroke: #A80036; stroke-width: 1.0;" /><text fill="#000000" font-family="sans-serif" font-size="13" lengthAdjust="spacingAndGlyphs" textLength="84" x="689" y="248.5669">«participate»</text>
        <!--link retrieve information to display map-->
        <path d="M301.1427,114.343 C368.2927,100.9915 474.6372,79.847 535.3769,67.7701 " fill="none" id="retrieve information-display map" style="stroke: #A80036; stroke-width: 1.0;" />
        <!--link display map to gm-->
        <path d="M647.9214,58.5 C696.2913,58.5 760.7568,58.5 803.622,58.5 " fill="none" id="display map-gm" style="stroke: #A80036; stroke-width: 1.0;" />
        <polygon fill="#A80036" points="642.6999,58.5,651.6999,62.5,647.6999,58.5,651.6999,54.5,642.6999,58.5" style="stroke: #A80036; stroke-width: 1.0;" /><text fill="#000000" font-family="sans-serif" font-size="13" lengthAdjust="spacingAndGlyphs" textLength="84" x="689" y="54.5669">«participate»</text>
        <!--link report violations to generates tickets-->
        <path d="M276.6,247.7333 C340.0412,272.4049 470.1558,323.005 538.2551,349.4881 " fill="none" id="report violations-generates tickets" style="stroke: #A80036; stroke-width: 1.0;" />
        <polygon fill="#A80036" points="543.0493,351.3525,536.1111,344.3624,538.3893,349.5402,533.2115,351.8184,543.0493,351.3525" style="stroke: #A80036; stroke-width: 1.0;" /><text fill="#000000" font-family="sans-serif" font-size="13" lengthAdjust="spacingAndGlyphs" textLength="49" x="389" y="284.5669">triggers</text>
        <!--link generates tickets to mts-->
        <path d="M663.026,367.4087 C723.8445,368.0908 801.9793,368.9671 834.3819,369.3305 " fill="none" id="generates tickets-mts" style="stroke: #A80036; stroke-width: 1.0;" />
        <polygon fill="#A80036" points="657.9392,367.3517,666.8937,371.4525,662.9389,367.4078,666.9835,363.453,657.9392,367.3517" style="stroke: #A80036; stroke-width: 1.0;" /><text fill="#000000" font-family="sans-serif" font-size="13" lengthAdjust="spacingAndGlyphs" textLength="84" x="689" y="363.5669">«participate»</text>
        <!--
@startuml

left to right direction

:User: as user
:OCR: as ocr
:Google Maps: as gm
:MTS: as mts

rectangle SafeStreets{

  user - - (signup) :<<initiate>>
  user - - (retrieve information) :<<initiate>>
  user - -(report violations) :<<initiate>>
  (report violations)- ->(read the plate)  :<<uses>>
  (report violations)<- ->(login) :<<include>>
  (retrieve information)<- ->(login) :<<include>>
  (read the plate)<- -ocr :<<participate>>
  (retrieve information)- -(display map)
  (display map) <- - gm :<<participate>>
  (report violations) - -> (generates tickets) : triggers
  (generates tickets) <- - mts :<<participate>>

}

@enduml

PlantUML version 1.2018.14(Fri Dec 21 17:33:16 CET 2018)
(GPL source distribution)
Java Runtime: OpenJDK Runtime Environment
JVM: OpenJDK 64-Bit Server VM
Java Version: 11.0.4+11-post-Ubuntu-1ubuntu218.04.3
Operating System: Linux
OS Version: 4.18.0-22-generic
Default Encoding: UTF-8
Language: en
Country: US
-->
    </g>
</svg>