<svg version="1.1" xmlns="http://www.w3.org/2000/svg" xmlns:xlink="http://www.w3.org/1999/xlink" width="912.44091796875" height="236"><defs/><g transform="translate(-22,-22) scale(1,1)"><rect fill="#C0C0C0" stroke="none" x="49" y="143" width="98.44091796875" height="44" opacity="0.2"/></g><g transform="translate(-22,-22) scale(1,1)"><rect fill="#ffffff" stroke="none" x="32" y="136" width="108.44091796875" height="44"/></g><g transform="translate(-22,-22) scale(1,1)"><path fill="none" stroke="#000000" d="M 32 136 L 140.44091796875 136 L 140.44091796875 180 L 32 180 L 32 136 Z Z" stroke-miterlimit="10"/></g><g transform="translate(-22,-22) scale(1,1)"><rect fill="#ffffff" stroke="none" x="32" y="136" width="108.44091796875" height="44"/></g><g transform="translate(-22,-22) scale(1,1)"><path fill="none" stroke="#000000" d="M 32 136 L 140.44091796875 136 L 140.44091796875 180 L 32 180 L 32 136 Z Z" stroke-miterlimit="10"/></g><g transform="translate(-22,-22) scale(1,1)"><rect fill="#ffffff" stroke="none" x="120.44091796875" y="146" width="13" height="16"/></g><g transform="translate(-22,-22) scale(1,1)"><path fill="none" stroke="#000000" d="M 120.44091796875 146 L 133.44091796875 146 L 133.44091796875 162 L 120.44091796875 162 L 120.44091796875 146 Z Z" stroke-miterlimit="10"/></g><g transform="translate(-22,-22) scale(1,1)"><rect fill="#ffffff" stroke="none" x="117.44091796875" y="149" width="7" height="4"/></g><g transform="translate(-22,-22) scale(1,1)"><path fill="none" stroke="#000000" d="M 117.44091796875 149 L 124.44091796875 149 L 124.44091796875 153 L 117.44091796875 153 L 117.44091796875 149 Z Z" stroke-miterlimit="10"/></g><g transform="translate(-22,-22) scale(1,1)"><rect fill="#ffffff" stroke="none" x="117.44091796875" y="155" width="7" height="4"/></g><g transform="translate(-22,-22) scale(1,1)"><path fill="none" stroke="#000000" d="M 117.44091796875 155 L 124.44091796875 155 L 124.44091796875 159 L 117.44091796875 159 L 117.44091796875 155 Z Z" stroke-miterlimit="10"/></g><g transform="translate(-22,-22) scale(1,1)"><g><path fill="none" stroke="none"/><text fill="#000000" stroke="none" font-family="Arial" font-size="13px" font-style="normal" font-weight="bold" text-decoration="none" x="54.7109375" y="155.5">Router</text></g></g><g transform="translate(-22,-22) scale(1,1)"><rect fill="#C0C0C0" stroke="none" x="409" y="39" width="206" height="216" opacity="0.2"/></g><g transform="translate(-22,-22) scale(1,1)"><rect fill="#ffffff" stroke="none" x="392" y="32" width="216" height="216"/></g><g transform="translate(-22,-22) scale(1,1)"><path fill="none" stroke="#000000" d="M 392 32 L 608 32 L 608 248 L 392 248 L 392 32 Z Z" stroke-miterlimit="10"/></g><g transform="translate(-22,-22) scale(1,1)"><rect fill="#ffffff" stroke="none" x="392" y="32" width="216" height="216"/></g><g transform="translate(-22,-22) scale(1,1)"><path fill="none" stroke="#000000" d="M 392 32 L 608 32 L 608 248 L 392 248 L 392 32 Z Z" stroke-miterlimit="10"/></g><g transform="translate(-22,-22) scale(1,1)"><rect fill="#ffffff" stroke="none" x="588" y="42" width="13" height="16"/></g><g transform="translate(-22,-22) scale(1,1)"><path fill="none" stroke="#000000" d="M 588 42 L 601 42 L 601 58 L 588 58 L 588 42 Z Z" stroke-miterlimit="10"/></g><g transform="translate(-22,-22) scale(1,1)"><rect fill="#ffffff" stroke="none" x="585" y="45" width="7" height="4"/></g><g transform="translate(-22,-22) scale(1,1)"><path fill="none" stroke="#000000" d="M 585 45 L 592 45 L 592 49 L 585 49 L 585 45 Z Z" stroke-miterlimit="10"/></g><g transform="translate(-22,-22) scale(1,1)"><rect fill="#ffffff" stroke="none" x="585" y="51" width="7" height="4"/></g><g transform="translate(-22,-22) scale(1,1)"><path fill="none" stroke="#000000" d="M 585 51 L 592 51 L 592 55 L 585 55 L 585 51 Z Z" stroke-miterlimit="10"/></g><g transform="translate(-22,-22) scale(1,1)"><g><path fill="none" stroke="none"/><text fill="#000000" stroke="none" font-family="Arial" font-size="13px" font-style="normal" font-weight="bold" text-decoration="none" x="448.622314453125" y="51.5">UserManager</text></g></g><g transform="translate(-22,-22) scale(1,1)"><rect fill="#C0C0C0" stroke="none" x="425" y="95" width="174" height="44" opacity="0.2"/></g><g transform="translate(-22,-22) scale(1,1)"><rect fill="#ffffff" stroke="none" x="408" y="88" width="184" height="44"/></g><g transform="translate(-22,-22) scale(1,1)"><path fill="none" stroke="#000000" d="M 408 88 L 592 88 L 592 132 L 408 132 L 408 88 Z Z" stroke-miterlimit="10"/></g><g transform="translate(-22,-22) scale(1,1)"><rect fill="#ffffff" stroke="none" x="408" y="88" width="184" height="44"/></g><g transform="translate(-22,-22) scale(1,1)"><path fill="none" stroke="#000000" d="M 408 88 L 592 88 L 592 132 L 408 132 L 408 88 Z Z" stroke-miterlimit="10"/></g><g transform="translate(-22,-22) scale(1,1)"><rect fill="#ffffff" stroke="none" x="572" y="98" width="13" height="16"/></g><g transform="translate(-22,-22) scale(1,1)"><path fill="none" stroke="#000000" d="M 572 98 L 585 98 L 585 114 L 572 114 L 572 98 Z Z" stroke-miterlimit="10"/></g><g transform="translate(-22,-22) scale(1,1)"><rect fill="#ffffff" stroke="none" x="569" y="101" width="7" height="4"/></g><g transform="translate(-22,-22) scale(1,1)"><path fill="none" stroke="#000000" d="M 569 101 L 576 101 L 576 105 L 569 105 L 569 101 Z Z" stroke-miterlimit="10"/></g><g transform="translate(-22,-22) scale(1,1)"><rect fill="#ffffff" stroke="none" x="569" y="107" width="7" height="4"/></g><g transform="translate(-22,-22) scale(1,1)"><path fill="none" stroke="#000000" d="M 569 107 L 576 107 L 576 111 L 569 111 L 569 107 Z Z" stroke-miterlimit="10"/></g><g transform="translate(-22,-22) scale(1,1)"><g><path fill="none" stroke="none"/><text fill="#000000" stroke="none" font-family="Arial" font-size="13px" font-style="normal" font-weight="bold" text-decoration="none" x="427.662353515625" y="107.5">RegistrationManager</text></g></g><g transform="translate(-22,-22) scale(1,1)"><rect fill="#C0C0C0" stroke="none" x="425" y="183" width="174" height="44" opacity="0.2"/></g><g transform="translate(-22,-22) scale(1,1)"><rect fill="#ffffff" stroke="none" x="408" y="176" width="184" height="44"/></g><g transform="translate(-22,-22) scale(1,1)"><path fill="none" stroke="#000000" d="M 408 176 L 592 176 L 592 220 L 408 220 L 408 176 Z Z" stroke-miterlimit="10"/></g><g transform="translate(-22,-22) scale(1,1)"><rect fill="#ffffff" stroke="none" x="408" y="176" width="184" height="44"/></g><g transform="translate(-22,-22) scale(1,1)"><path fill="none" stroke="#000000" d="M 408 176 L 592 176 L 592 220 L 408 220 L 408 176 Z Z" stroke-miterlimit="10"/></g><g transform="translate(-22,-22) scale(1,1)"><rect fill="#ffffff" stroke="none" x="572" y="186" width="13" height="16"/></g><g transform="translate(-22,-22) scale(1,1)"><path fill="none" stroke="#000000" d="M 572 186 L 585 186 L 585 202 L 572 202 L 572 186 Z Z" stroke-miterlimit="10"/></g><g transform="translate(-22,-22) scale(1,1)"><rect fill="#ffffff" stroke="none" x="569" y="189" width="7" height="4"/></g><g transform="translate(-22,-22) scale(1,1)"><path fill="none" stroke="#000000" d="M 569 189 L 576 189 L 576 193 L 569 193 L 569 189 Z Z" stroke-miterlimit="10"/></g><g transform="translate(-22,-22) scale(1,1)"><rect fill="#ffffff" stroke="none" x="569" y="195" width="7" height="4"/></g><g transform="translate(-22,-22) scale(1,1)"><path fill="none" stroke="#000000" d="M 569 195 L 576 195 L 576 199 L 569 199 L 569 195 Z Z" stroke-miterlimit="10"/></g><g transform="translate(-22,-22) scale(1,1)"><g><path fill="none" stroke="none"/><text fill="#000000" stroke="none" font-family="Arial" font-size="13px" font-style="normal" font-weight="bold" text-decoration="none" x="446.44189453125" y="195.5">LoginManager</text></g></g><g transform="translate(-22,-22) scale(1,1)"><path fill="#C0C0C0" stroke="none" d="M 207.01904296875 162.5 C 207.01904296875 156.1487248 212.16776776875 151 218.51904296875 151 C 224.87031816875 151 230.01904296875 156.1487248 230.01904296875 162.5 C 230.01904296875 168.8512752 224.87031816875 174 218.51904296875 174 C 212.16776776875 174 207.01904296875 168.8512752 207.01904296875 162.5 Z" opacity="0.2"/></g><g transform="translate(-22,-22) scale(1,1)"><path fill="none" stroke="#000000" d="M 211 166.5 A 11.5 11.5 0 0 1 211 143.5" stroke-miterlimit="10"/></g><g transform="translate(-22,-22) scale(1,1)"><path fill="#ffffff" stroke="none" d="M 203.01904296875 155.5 C 203.01904296875 150.8055792 206.82462216875 147 211.51904296875 147 C 216.21346376875 147 220.01904296875 150.8055792 220.01904296875 155.5 C 220.01904296875 160.1944208 216.21346376875 164 211.51904296875 164 C 206.82462216875 164 203.01904296875 160.1944208 203.01904296875 155.5 Z"/></g><g transform="translate(-22,-22) scale(1,1)"><path fill="none" stroke="#000000" d="M 203.01904296875 155.5 C 203.01904296875 150.8055792 206.82462216875 147 211.51904296875 147 C 216.21346376875 147 220.01904296875 150.8055792 220.01904296875 155.5 C 220.01904296875 160.1944208 216.21346376875 164 211.51904296875 164 C 206.82462216875 164 203.01904296875 160.1944208 203.01904296875 155.5 Z" stroke-miterlimit="10"/></g><g transform="translate(-22,-22) scale(1,1)"><g><path fill="none" stroke="none"/><text fill="#000000" stroke="none" font-family="Arial" font-size="13px" font-style="normal" font-weight="bold" text-decoration="none" x="174.305908203125" y="186.5">manageUser</text></g></g><g transform="translate(-22,-22) scale(1,1)"><path fill="none" stroke="#000000" d="M 408 112 L 288 112 L 288 155 L 223.01904296875 155" stroke-miterlimit="10"/></g><g transform="translate(-22,-22) scale(1,1)"><path fill="none" stroke="#000000" d="M 408 200 L 288 200 L 288 155 L 223.01904296875 155" stroke-miterlimit="10"/></g><g transform="translate(-22,-22) scale(1,1)"><path fill="none" stroke="#000000" d="M 140 155 L 200.01904296875 155" stroke-miterlimit="10"/></g><g transform="translate(-22,-22) scale(1,1)"><rect fill="#C0C0C0" stroke="none" x="833" y="143" width="98.44091796875" height="44" opacity="0.2"/></g><g transform="translate(-22,-22) scale(1,1)"><rect fill="#ffffff" stroke="none" x="816" y="136" width="108.44091796875" height="44"/></g><g transform="translate(-22,-22) scale(1,1)"><path fill="none" stroke="#000000" d="M 816 136 L 924.44091796875 136 L 924.44091796875 180 L 816 180 L 816 136 Z Z" stroke-miterlimit="10"/></g><g transform="translate(-22,-22) scale(1,1)"><rect fill="#ffffff" stroke="none" x="816" y="136" width="108.44091796875" height="44"/></g><g transform="translate(-22,-22) scale(1,1)"><path fill="none" stroke="#000000" d="M 816 136 L 924.44091796875 136 L 924.44091796875 180 L 816 180 L 816 136 Z Z" stroke-miterlimit="10"/></g><g transform="translate(-22,-22) scale(1,1)"><rect fill="#ffffff" stroke="none" x="904.44091796875" y="146" width="13" height="16"/></g><g transform="translate(-22,-22) scale(1,1)"><path fill="none" stroke="#000000" d="M 904.44091796875 146 L 917.44091796875 146 L 917.44091796875 162 L 904.44091796875 162 L 904.44091796875 146 Z Z" stroke-miterlimit="10"/></g><g transform="translate(-22,-22) scale(1,1)"><rect fill="#ffffff" stroke="none" x="901.44091796875" y="149" width="7" height="4"/></g><g transform="translate(-22,-22) scale(1,1)"><path fill="none" stroke="#000000" d="M 901.44091796875 149 L 908.44091796875 149 L 908.44091796875 153 L 901.44091796875 153 L 901.44091796875 149 Z Z" stroke-miterlimit="10"/></g><g transform="translate(-22,-22) scale(1,1)"><rect fill="#ffffff" stroke="none" x="901.44091796875" y="155" width="7" height="4"/></g><g transform="translate(-22,-22) scale(1,1)"><path fill="none" stroke="#000000" d="M 901.44091796875 155 L 908.44091796875 155 L 908.44091796875 159 L 901.44091796875 159 L 901.44091796875 155 Z Z" stroke-miterlimit="10"/></g><g transform="translate(-22,-22) scale(1,1)"><g><path fill="none" stroke="none"/><text fill="#000000" stroke="none" font-family="Arial" font-size="13px" font-style="normal" font-weight="bold" text-decoration="none" x="839.44091796875" y="155.5">DBMS</text></g></g><g transform="translate(-22,-22) scale(1,1)"><path fill="#C0C0C0" stroke="none" d="M 719.200439453125 162.5 C 719.200439453125 156.1487248 724.349164253125 151 730.700439453125 151 C 737.051714653125 151 742.200439453125 156.1487248 742.200439453125 162.5 C 742.200439453125 168.8512752 737.051714653125 174 730.700439453125 174 C 724.349164253125 174 719.200439453125 168.8512752 719.200439453125 162.5 Z" opacity="0.2"/></g><g transform="translate(-22,-22) scale(1,1)"><path fill="none" stroke="#000000" d="M 711.9052160557661 158.02585016660925 A 11.5 11.5 0 0 1 734.0947839442339 151.97414983339075" stroke-miterlimit="10"/></g><g transform="translate(-22,-22) scale(1,1)"><path fill="none" stroke="#000000" d="M 734.5 155 A 11.5 11.5 0 0 1 711.5 155" stroke-miterlimit="10"/></g><g transform="translate(-22,-22) scale(1,1)"><path fill="#ffffff" stroke="none" d="M 715.200439453125 155.5 C 715.200439453125 150.8055792 719.006018653125 147 723.700439453125 147 C 728.394860253125 147 732.200439453125 150.8055792 732.200439453125 155.5 C 732.200439453125 160.1944208 728.394860253125 164 723.700439453125 164 C 719.006018653125 164 715.200439453125 160.1944208 715.200439453125 155.5 Z"/></g><g transform="translate(-22,-22) scale(1,1)"><path fill="none" stroke="#000000" d="M 715.200439453125 155.5 C 715.200439453125 150.8055792 719.006018653125 147 723.700439453125 147 C 728.394860253125 147 732.200439453125 150.8055792 732.200439453125 155.5 C 732.200439453125 160.1944208 728.394860253125 164 723.700439453125 164 C 719.006018653125 164 715.200439453125 160.1944208 715.200439453125 155.5 Z" stroke-miterlimit="10"/></g><g transform="translate(-22,-22) scale(1,1)"><g><path fill="none" stroke="none"/><text fill="#000000" stroke="none" font-family="Arial" font-size="13px" font-style="normal" font-weight="bold" text-decoration="none" x="666.25732421875" y="186.5">dbmsFunctionalities</text></g></g><g transform="translate(-22,-22) scale(1,1)"><path fill="none" stroke="#000000" d="M 816 155 L 735.200439453125 155" stroke-miterlimit="10"/></g><g transform="translate(-22,-22) scale(1,1)"><path fill="none" stroke="#000000" d="M 592 112 L 720 112 L 720 144" stroke-miterlimit="10"/></g><g transform="translate(-22,-22) scale(1,1)"><path fill="none" stroke="#000000" d="M 592 200 L 723 200 L 723 167" stroke-miterlimit="10"/></g></svg>