<svg version="1.1" xmlns="http://www.w3.org/2000/svg" xmlns:xlink="http://www.w3.org/1999/xlink" width="968.44091796875" height="560"><defs/><g transform="translate(-14,-22) scale(1,1)"><rect fill="#C0C0C0" stroke="none" x="337" y="39" width="294" height="360" opacity="0.2"/></g><g transform="translate(-14,-22) scale(1,1)"><rect fill="#ffffff" stroke="none" x="320" y="32" width="304" height="360"/></g><g transform="translate(-14,-22) scale(1,1)"><path fill="none" stroke="#000000" d="M 320 32 L 624 32 L 624 392 L 320 392 L 320 32 Z Z" stroke-miterlimit="10"/></g><g transform="translate(-14,-22) scale(1,1)"><rect fill="#ffffff" stroke="none" x="320" y="32" width="304" height="360"/></g><g transform="translate(-14,-22) scale(1,1)"><path fill="none" stroke="#000000" d="M 320 32 L 624 32 L 624 392 L 320 392 L 320 32 Z Z" stroke-miterlimit="10"/></g><g transform="translate(-14,-22) scale(1,1)"><rect fill="#ffffff" stroke="none" x="604" y="42" width="13" height="16"/></g><g transform="translate(-14,-22) scale(1,1)"><path fill="none" stroke="#000000" d="M 604 42 L 617 42 L 617 58 L 604 58 L 604 42 Z Z" stroke-miterlimit="10"/></g><g transform="translate(-14,-22) scale(1,1)"><rect fill="#ffffff" stroke="none" x="601" y="45" width="7" height="4"/></g><g transform="translate(-14,-22) scale(1,1)"><path fill="none" stroke="#000000" d="M 601 45 L 608 45 L 608 49 L 601 49 L 601 45 Z Z" stroke-miterlimit="10"/></g><g transform="translate(-14,-22) scale(1,1)"><rect fill="#ffffff" stroke="none" x="601" y="51" width="7" height="4"/></g><g transform="translate(-14,-22) scale(1,1)"><path fill="none" stroke="#000000" d="M 601 51 L 608 51 L 608 55 L 601 55 L 601 51 Z Z" stroke-miterlimit="10"/></g><g transform="translate(-14,-22) scale(1,1)"><g><path fill="none" stroke="none"/><text fill="#000000" stroke="none" font-family="Arial" font-size="13px" font-style="normal" font-weight="bold" text-decoration="none" x="423.869140625" y="51.5">SafeReports</text></g></g><g transform="translate(-14,-22) scale(1,1)"><rect fill="#C0C0C0" stroke="none" x="465" y="87" width="134" height="44" opacity="0.2"/></g><g transform="translate(-14,-22) scale(1,1)"><rect fill="#ffffff" stroke="none" x="448" y="80" width="144" height="44"/></g><g transform="translate(-14,-22) scale(1,1)"><path fill="none" stroke="#000000" d="M 448 80 L 592 80 L 592 124 L 448 124 L 448 80 Z Z" stroke-miterlimit="10"/></g><g transform="translate(-14,-22) scale(1,1)"><rect fill="#ffffff" stroke="none" x="448" y="80" width="144" height="44"/></g><g transform="translate(-14,-22) scale(1,1)"><path fill="none" stroke="#000000" d="M 448 80 L 592 80 L 592 124 L 448 124 L 448 80 Z Z" stroke-miterlimit="10"/></g><g transform="translate(-14,-22) scale(1,1)"><rect fill="#ffffff" stroke="none" x="572" y="90" width="13" height="16"/></g><g transform="translate(-14,-22) scale(1,1)"><path fill="none" stroke="#000000" d="M 572 90 L 585 90 L 585 106 L 572 106 L 572 90 Z Z" stroke-miterlimit="10"/></g><g transform="translate(-14,-22) scale(1,1)"><rect fill="#ffffff" stroke="none" x="569" y="93" width="7" height="4"/></g><g transform="translate(-14,-22) scale(1,1)"><path fill="none" stroke="#000000" d="M 569 93 L 576 93 L 576 97 L 569 97 L 569 93 Z Z" stroke-miterlimit="10"/></g><g transform="translate(-14,-22) scale(1,1)"><rect fill="#ffffff" stroke="none" x="569" y="99" width="7" height="4"/></g><g transform="translate(-14,-22) scale(1,1)"><path fill="none" stroke="#000000" d="M 569 99 L 576 99 L 576 103 L 569 103 L 569 99 Z Z" stroke-miterlimit="10"/></g><g transform="translate(-14,-22) scale(1,1)"><g><path fill="none" stroke="none"/><text fill="#000000" stroke="none" font-family="Arial" font-size="13px" font-style="normal" font-weight="bold" text-decoration="none" x="462.83642578125" y="99.5">ReportManager</text></g></g><g transform="translate(-14,-22) scale(1,1)"><rect fill="#C0C0C0" stroke="none" x="465" y="231" width="134" height="44" opacity="0.2"/></g><g transform="translate(-14,-22) scale(1,1)"><rect fill="#ffffff" stroke="none" x="448" y="224" width="144" height="44"/></g><g transform="translate(-14,-22) scale(1,1)"><path fill="none" stroke="#000000" d="M 448 224 L 592 224 L 592 268 L 448 268 L 448 224 Z Z" stroke-miterlimit="10"/></g><g transform="translate(-14,-22) scale(1,1)"><rect fill="#ffffff" stroke="none" x="448" y="224" width="144" height="44"/></g><g transform="translate(-14,-22) scale(1,1)"><path fill="none" stroke="#000000" d="M 448 224 L 592 224 L 592 268 L 448 268 L 448 224 Z Z" stroke-miterlimit="10"/></g><g transform="translate(-14,-22) scale(1,1)"><rect fill="#ffffff" stroke="none" x="572" y="234" width="13" height="16"/></g><g transform="translate(-14,-22) scale(1,1)"><path fill="none" stroke="#000000" d="M 572 234 L 585 234 L 585 250 L 572 250 L 572 234 Z Z" stroke-miterlimit="10"/></g><g transform="translate(-14,-22) scale(1,1)"><rect fill="#ffffff" stroke="none" x="569" y="237" width="7" height="4"/></g><g transform="translate(-14,-22) scale(1,1)"><path fill="none" stroke="#000000" d="M 569 237 L 576 237 L 576 241 L 569 241 L 569 237 Z Z" stroke-miterlimit="10"/></g><g transform="translate(-14,-22) scale(1,1)"><rect fill="#ffffff" stroke="none" x="569" y="243" width="7" height="4"/></g><g transform="translate(-14,-22) scale(1,1)"><path fill="none" stroke="#000000" d="M 569 243 L 576 243 L 576 247 L 569 247 L 569 243 Z Z" stroke-miterlimit="10"/></g><g transform="translate(-14,-22) scale(1,1)"><g><path fill="none" stroke="none"/><text fill="#000000" stroke="none" font-family="Arial" font-size="13px" font-style="normal" font-weight="bold" text-decoration="none" x="468.62548828125" y="243.5">MTSManager</text></g></g><g transform="translate(-14,-22) scale(1,1)"><rect fill="#C0C0C0" stroke="none" x="465" y="327" width="134" height="44" opacity="0.2"/></g><g transform="translate(-14,-22) scale(1,1)"><rect fill="#ffffff" stroke="none" x="448" y="320" width="144" height="44"/></g><g transform="translate(-14,-22) scale(1,1)"><path fill="none" stroke="#000000" d="M 448 320 L 592 320 L 592 364 L 448 364 L 448 320 Z Z" stroke-miterlimit="10"/></g><g transform="translate(-14,-22) scale(1,1)"><rect fill="#ffffff" stroke="none" x="448" y="320" width="144" height="44"/></g><g transform="translate(-14,-22) scale(1,1)"><path fill="none" stroke="#000000" d="M 448 320 L 592 320 L 592 364 L 448 364 L 448 320 Z Z" stroke-miterlimit="10"/></g><g transform="translate(-14,-22) scale(1,1)"><rect fill="#ffffff" stroke="none" x="572" y="330" width="13" height="16"/></g><g transform="translate(-14,-22) scale(1,1)"><path fill="none" stroke="#000000" d="M 572 330 L 585 330 L 585 346 L 572 346 L 572 330 Z Z" stroke-miterlimit="10"/></g><g transform="translate(-14,-22) scale(1,1)"><rect fill="#ffffff" stroke="none" x="569" y="333" width="7" height="4"/></g><g transform="translate(-14,-22) scale(1,1)"><path fill="none" stroke="#000000" d="M 569 333 L 576 333 L 576 337 L 569 337 L 569 333 Z Z" stroke-miterlimit="10"/></g><g transform="translate(-14,-22) scale(1,1)"><rect fill="#ffffff" stroke="none" x="569" y="339" width="7" height="4"/></g><g transform="translate(-14,-22) scale(1,1)"><path fill="none" stroke="#000000" d="M 569 339 L 576 339 L 576 343 L 569 343 L 569 339 Z Z" stroke-miterlimit="10"/></g><g transform="translate(-14,-22) scale(1,1)"><g><path fill="none" stroke="none"/><text fill="#000000" stroke="none" font-family="Arial" font-size="13px" font-style="normal" font-weight="bold" text-decoration="none" x="462.115966796875" y="339.5">PictureManager</text></g></g><g transform="translate(-14,-22) scale(1,1)"><path fill="#C0C0C0" stroke="none" d="M 518.285888671875 178.5 C 518.285888671875 172.1487248 523.434613471875 167 529.785888671875 167 C 536.137163871875 167 541.285888671875 172.1487248 541.285888671875 178.5 C 541.285888671875 184.8512752 536.137163871875 190 529.785888671875 190 C 523.434613471875 190 518.285888671875 184.8512752 518.285888671875 178.5 Z" opacity="0.2"/></g><g transform="translate(-14,-22) scale(1,1)"><path fill="none" stroke="#000000" d="M 510.5472281256214 172.04116107948897 A 11.5 11.5 0 0 1 533.4527718743786 169.95883892051103" stroke-miterlimit="10"/></g><g transform="translate(-14,-22) scale(1,1)"><path fill="#ffffff" stroke="none" d="M 514.285888671875 171.5 C 514.285888671875 166.8055792 518.091467871875 163 522.785888671875 163 C 527.480309471875 163 531.285888671875 166.8055792 531.285888671875 171.5 C 531.285888671875 176.1944208 527.480309471875 180 522.785888671875 180 C 518.091467871875 180 514.285888671875 176.1944208 514.285888671875 171.5 Z"/></g><g transform="translate(-14,-22) scale(1,1)"><path fill="none" stroke="#000000" d="M 514.285888671875 171.5 C 514.285888671875 166.8055792 518.091467871875 163 522.785888671875 163 C 527.480309471875 163 531.285888671875 166.8055792 531.285888671875 171.5 C 531.285888671875 176.1944208 527.480309471875 180 522.785888671875 180 C 518.091467871875 180 514.285888671875 176.1944208 514.285888671875 171.5 Z" stroke-miterlimit="10"/></g><g transform="translate(-14,-22) scale(1,1)"><g><path fill="none" stroke="none"/><text fill="#000000" stroke="none" font-family="Arial" font-size="13px" font-style="normal" font-weight="bold" text-decoration="none" x="485.575927734375" y="202.5">manageMTS</text></g></g><g transform="translate(-14,-22) scale(1,1)"><path fill="#C0C0C0" stroke="none" d="M 378.601318359375 242.5 C 378.601318359375 236.1487248 383.750043159375 231 390.101318359375 231 C 396.452593559375 231 401.601318359375 236.1487248 401.601318359375 242.5 C 401.601318359375 248.8512752 396.452593559375 254 390.101318359375 254 C 383.750043159375 254 378.601318359375 248.8512752 378.601318359375 242.5 Z" opacity="0.2"/></g><g transform="translate(-14,-22) scale(1,1)"><path fill="none" stroke="#000000" d="M 371.5472281256214 233.95883892051103 A 11.5 11.5 0 0 1 394.4527718743786 236.04116107948897" stroke-miterlimit="10"/></g><g transform="translate(-14,-22) scale(1,1)"><path fill="#ffffff" stroke="none" d="M 374.601318359375 235.5 C 374.601318359375 230.8055792 378.406897559375 227 383.101318359375 227 C 387.795739159375 227 391.601318359375 230.8055792 391.601318359375 235.5 C 391.601318359375 240.1944208 387.795739159375 244 383.101318359375 244 C 378.406897559375 244 374.601318359375 240.1944208 374.601318359375 235.5 Z"/></g><g transform="translate(-14,-22) scale(1,1)"><path fill="none" stroke="#000000" d="M 374.601318359375 235.5 C 374.601318359375 230.8055792 378.406897559375 227 383.101318359375 227 C 387.795739159375 227 391.601318359375 230.8055792 391.601318359375 235.5 C 391.601318359375 240.1944208 387.795739159375 244 383.101318359375 244 C 378.406897559375 244 374.601318359375 240.1944208 374.601318359375 235.5 Z" stroke-miterlimit="10"/></g><g transform="translate(-14,-22) scale(1,1)"><g><path fill="none" stroke="none"/><text fill="#000000" stroke="none" font-family="Arial" font-size="13px" font-style="normal" font-weight="bold" text-decoration="none" x="339.3818359375" y="266.5">managePicture</text></g></g><g transform="translate(-14,-22) scale(1,1)"><path fill="none" stroke="#000000" d="M 522 224 L 522 183" stroke-miterlimit="10"/></g><g transform="translate(-14,-22) scale(1,1)"><path fill="none" stroke="#000000" d="M 448 342 L 383 342 L 383 247" stroke-miterlimit="10"/></g><g transform="translate(-14,-22) scale(1,1)"><path fill="none" stroke="#000000" d="M 521 124 L 521 160" stroke-miterlimit="10"/></g><g transform="translate(-14,-22) scale(1,1)"><path fill="none" stroke="#000000" d="M 448 104 L 384 104 L 384 224" stroke-miterlimit="10"/></g><g transform="translate(-14,-22) scale(1,1)"><rect fill="#C0C0C0" stroke="none" x="881" y="183" width="98.44091796875" height="44" opacity="0.2"/></g><g transform="translate(-14,-22) scale(1,1)"><rect fill="#ffffff" stroke="none" x="864" y="176" width="108.44091796875" height="44"/></g><g transform="translate(-14,-22) scale(1,1)"><path fill="none" stroke="#000000" d="M 864 176 L 972.44091796875 176 L 972.44091796875 220 L 864 220 L 864 176 Z Z" stroke-miterlimit="10"/></g><g transform="translate(-14,-22) scale(1,1)"><rect fill="#ffffff" stroke="none" x="864" y="176" width="108.44091796875" height="44"/></g><g transform="translate(-14,-22) scale(1,1)"><path fill="none" stroke="#000000" d="M 864 176 L 972.44091796875 176 L 972.44091796875 220 L 864 220 L 864 176 Z Z" stroke-miterlimit="10"/></g><g transform="translate(-14,-22) scale(1,1)"><rect fill="#ffffff" stroke="none" x="952.44091796875" y="186" width="13" height="16"/></g><g transform="translate(-14,-22) scale(1,1)"><path fill="none" stroke="#000000" d="M 952.44091796875 186 L 965.44091796875 186 L 965.44091796875 202 L 952.44091796875 202 L 952.44091796875 186 Z Z" stroke-miterlimit="10"/></g><g transform="translate(-14,-22) scale(1,1)"><rect fill="#ffffff" stroke="none" x="949.44091796875" y="189" width="7" height="4"/></g><g transform="translate(-14,-22) scale(1,1)"><path fill="none" stroke="#000000" d="M 949.44091796875 189 L 956.44091796875 189 L 956.44091796875 193 L 949.44091796875 193 L 949.44091796875 189 Z Z" stroke-miterlimit="10"/></g><g transform="translate(-14,-22) scale(1,1)"><rect fill="#ffffff" stroke="none" x="949.44091796875" y="195" width="7" height="4"/></g><g transform="translate(-14,-22) scale(1,1)"><path fill="none" stroke="#000000" d="M 949.44091796875 195 L 956.44091796875 195 L 956.44091796875 199 L 949.44091796875 199 L 949.44091796875 195 Z Z" stroke-miterlimit="10"/></g><g transform="translate(-14,-22) scale(1,1)"><g><path fill="none" stroke="none"/><text fill="#000000" stroke="none" font-family="Arial" font-size="13px" font-style="normal" font-weight="bold" text-decoration="none" x="887.44091796875" y="195.5">DBMS</text></g></g><g transform="translate(-14,-22) scale(1,1)"><path fill="#C0C0C0" stroke="none" d="M 755.200439453125 202.5 C 755.200439453125 196.1487248 760.349164253125 191 766.700439453125 191 C 773.051714653125 191 778.200439453125 196.1487248 778.200439453125 202.5 C 778.200439453125 208.8512752 773.051714653125 214 766.700439453125 214 C 760.349164253125 214 755.200439453125 208.8512752 755.200439453125 202.5 Z" opacity="0.2"/></g><g transform="translate(-14,-22) scale(1,1)"><path fill="none" stroke="#000000" d="M 747.5472281256214 193.95883892051103 A 11.5 11.5 0 0 1 770.4527718743786 196.04116107948897" stroke-miterlimit="10"/></g><g transform="translate(-14,-22) scale(1,1)"><path fill="none" stroke="#000000" d="M 770.5 195 A 11.5 11.5 0 0 1 747.5 195" stroke-miterlimit="10"/></g><g transform="translate(-14,-22) scale(1,1)"><path fill="#ffffff" stroke="none" d="M 751.200439453125 195.5 C 751.200439453125 190.8055792 755.006018653125 187 759.700439453125 187 C 764.394860253125 187 768.200439453125 190.8055792 768.200439453125 195.5 C 768.200439453125 200.1944208 764.394860253125 204 759.700439453125 204 C 755.006018653125 204 751.200439453125 200.1944208 751.200439453125 195.5 Z"/></g><g transform="translate(-14,-22) scale(1,1)"><path fill="none" stroke="#000000" d="M 751.200439453125 195.5 C 751.200439453125 190.8055792 755.006018653125 187 759.700439453125 187 C 764.394860253125 187 768.200439453125 190.8055792 768.200439453125 195.5 C 768.200439453125 200.1944208 764.394860253125 204 759.700439453125 204 C 755.006018653125 204 751.200439453125 200.1944208 751.200439453125 195.5 Z" stroke-miterlimit="10"/></g><g transform="translate(-14,-22) scale(1,1)"><g><path fill="none" stroke="none"/><text fill="#000000" stroke="none" font-family="Arial" font-size="13px" font-style="normal" font-weight="bold" text-decoration="none" x="702.25732421875" y="226.5">dbmsFunctionalities</text></g></g><g transform="translate(-14,-22) scale(1,1)"><path fill="none" stroke="#000000" d="M 864 195 L 771.200439453125 195" stroke-miterlimit="10"/></g><g transform="translate(-14,-22) scale(1,1)"><path fill="none" stroke="#000000" d="M 592 104 L 760 104 L 760 184" stroke-miterlimit="10"/></g><g transform="translate(-14,-22) scale(1,1)"><path fill="none" stroke="#000000" d="M 592 248 L 759 248 L 759 207" stroke-miterlimit="10"/></g><g transform="translate(-14,-22) scale(1,1)"><rect fill="#C0C0C0" stroke="none" x="681" y="535" width="98.44091796875" height="44" opacity="0.2"/></g><g transform="translate(-14,-22) scale(1,1)"><rect fill="#ffffff" stroke="none" x="664" y="528" width="108.44091796875" height="44"/></g><g transform="translate(-14,-22) scale(1,1)"><path fill="none" stroke="#000000" d="M 664 528 L 772.44091796875 528 L 772.44091796875 572 L 664 572 L 664 528 Z Z" stroke-miterlimit="10"/></g><g transform="translate(-14,-22) scale(1,1)"><rect fill="#ffffff" stroke="none" x="664" y="528" width="108.44091796875" height="44"/></g><g transform="translate(-14,-22) scale(1,1)"><path fill="none" stroke="#000000" d="M 664 528 L 772.44091796875 528 L 772.44091796875 572 L 664 572 L 664 528 Z Z" stroke-miterlimit="10"/></g><g transform="translate(-14,-22) scale(1,1)"><rect fill="#ffffff" stroke="none" x="752.44091796875" y="538" width="13" height="16"/></g><g transform="translate(-14,-22) scale(1,1)"><path fill="none" stroke="#000000" d="M 752.44091796875 538 L 765.44091796875 538 L 765.44091796875 554 L 752.44091796875 554 L 752.44091796875 538 Z Z" stroke-miterlimit="10"/></g><g transform="translate(-14,-22) scale(1,1)"><rect fill="#ffffff" stroke="none" x="749.44091796875" y="541" width="7" height="4"/></g><g transform="translate(-14,-22) scale(1,1)"><path fill="none" stroke="#000000" d="M 749.44091796875 541 L 756.44091796875 541 L 756.44091796875 545 L 749.44091796875 545 L 749.44091796875 541 Z Z" stroke-miterlimit="10"/></g><g transform="translate(-14,-22) scale(1,1)"><rect fill="#ffffff" stroke="none" x="749.44091796875" y="547" width="7" height="4"/></g><g transform="translate(-14,-22) scale(1,1)"><path fill="none" stroke="#000000" d="M 749.44091796875 547 L 756.44091796875 547 L 756.44091796875 551 L 749.44091796875 551 L 749.44091796875 547 Z Z" stroke-miterlimit="10"/></g><g transform="translate(-14,-22) scale(1,1)"><g><path fill="none" stroke="none"/><text fill="#000000" stroke="none" font-family="Arial" font-size="13px" font-style="normal" font-weight="bold" text-decoration="none" x="692.5" y="547.5">MTS</text></g></g><g transform="translate(-14,-22) scale(1,1)"><rect fill="#C0C0C0" stroke="none" x="481" y="535" width="98.44091796875" height="44" opacity="0.2"/></g><g transform="translate(-14,-22) scale(1,1)"><rect fill="#ffffff" stroke="none" x="464" y="528" width="108.44091796875" height="44"/></g><g transform="translate(-14,-22) scale(1,1)"><path fill="none" stroke="#000000" d="M 464 528 L 572.44091796875 528 L 572.44091796875 572 L 464 572 L 464 528 Z Z" stroke-miterlimit="10"/></g><g transform="translate(-14,-22) scale(1,1)"><rect fill="#ffffff" stroke="none" x="464" y="528" width="108.44091796875" height="44"/></g><g transform="translate(-14,-22) scale(1,1)"><path fill="none" stroke="#000000" d="M 464 528 L 572.44091796875 528 L 572.44091796875 572 L 464 572 L 464 528 Z Z" stroke-miterlimit="10"/></g><g transform="translate(-14,-22) scale(1,1)"><rect fill="#ffffff" stroke="none" x="552.44091796875" y="538" width="13" height="16"/></g><g transform="translate(-14,-22) scale(1,1)"><path fill="none" stroke="#000000" d="M 552.44091796875 538 L 565.44091796875 538 L 565.44091796875 554 L 552.44091796875 554 L 552.44091796875 538 Z Z" stroke-miterlimit="10"/></g><g transform="translate(-14,-22) scale(1,1)"><rect fill="#ffffff" stroke="none" x="549.44091796875" y="541" width="7" height="4"/></g><g transform="translate(-14,-22) scale(1,1)"><path fill="none" stroke="#000000" d="M 549.44091796875 541 L 556.44091796875 541 L 556.44091796875 545 L 549.44091796875 545 L 549.44091796875 541 Z Z" stroke-miterlimit="10"/></g><g transform="translate(-14,-22) scale(1,1)"><rect fill="#ffffff" stroke="none" x="549.44091796875" y="547" width="7" height="4"/></g><g transform="translate(-14,-22) scale(1,1)"><path fill="none" stroke="#000000" d="M 549.44091796875 547 L 556.44091796875 547 L 556.44091796875 551 L 549.44091796875 551 L 549.44091796875 547 Z Z" stroke-miterlimit="10"/></g><g transform="translate(-14,-22) scale(1,1)"><g><path fill="none" stroke="none"/><text fill="#000000" stroke="none" font-family="Arial" font-size="13px" font-style="normal" font-weight="bold" text-decoration="none" x="491.7763671875" y="547.5">OCR</text></g></g><g transform="translate(-14,-22) scale(1,1)"><path fill="#C0C0C0" stroke="none" d="M 710.7099609375 466.5 C 710.7099609375 460.1487248 715.8586857375 455 722.2099609375 455 C 728.5612361375 455 733.7099609375 460.1487248 733.7099609375 466.5 C 733.7099609375 472.8512752 728.5612361375 478 722.2099609375 478 C 715.8586857375 478 710.7099609375 472.8512752 710.7099609375 466.5 Z" opacity="0.2"/></g><g transform="translate(-14,-22) scale(1,1)"><path fill="none" stroke="#000000" d="M 703.9052160557661 462.02585016660925 A 11.5 11.5 0 0 1 726.0947839442339 455.97414983339075" stroke-miterlimit="10"/></g><g transform="translate(-14,-22) scale(1,1)"><path fill="#ffffff" stroke="none" d="M 706.7099609375 459.5 C 706.7099609375 454.8055792 710.5155401375 451 715.2099609375 451 C 719.9043817375 451 723.7099609375 454.8055792 723.7099609375 459.5 C 723.7099609375 464.1944208 719.9043817375 468 715.2099609375 468 C 710.5155401375 468 706.7099609375 464.1944208 706.7099609375 459.5 Z"/></g><g transform="translate(-14,-22) scale(1,1)"><path fill="none" stroke="#000000" d="M 706.7099609375 459.5 C 706.7099609375 454.8055792 710.5155401375 451 715.2099609375 451 C 719.9043817375 451 723.7099609375 454.8055792 723.7099609375 459.5 C 723.7099609375 464.1944208 719.9043817375 468 715.2099609375 468 C 710.5155401375 468 706.7099609375 464.1944208 706.7099609375 459.5 Z" stroke-miterlimit="10"/></g><g transform="translate(-14,-22) scale(1,1)"><g><path fill="none" stroke="none"/><text fill="#000000" stroke="none" font-family="Arial" font-size="13px" font-style="normal" font-weight="bold" text-decoration="none" x="694.2626953125" y="490.5">mtsAPI</text></g></g><g transform="translate(-14,-22) scale(1,1)"><path fill="#C0C0C0" stroke="none" d="M 518.7099609375 466.5 C 518.7099609375 460.1487248 523.8586857375 455 530.2099609375 455 C 536.5612361375 455 541.7099609375 460.1487248 541.7099609375 466.5 C 541.7099609375 472.8512752 536.5612361375 478 530.2099609375 478 C 523.8586857375 478 518.7099609375 472.8512752 518.7099609375 466.5 Z" opacity="0.2"/></g><g transform="translate(-14,-22) scale(1,1)"><path fill="none" stroke="#000000" d="M 511.90521605576606 462.02585016660925 A 11.5 11.5 0 0 1 534.0947839442339 455.97414983339075" stroke-miterlimit="10"/></g><g transform="translate(-14,-22) scale(1,1)"><path fill="#ffffff" stroke="none" d="M 514.7099609375 459.5 C 514.7099609375 454.8055792 518.5155401375 451 523.2099609375 451 C 527.9043817375 451 531.7099609375 454.8055792 531.7099609375 459.5 C 531.7099609375 464.1944208 527.9043817375 468 523.2099609375 468 C 518.5155401375 468 514.7099609375 464.1944208 514.7099609375 459.5 Z"/></g><g transform="translate(-14,-22) scale(1,1)"><path fill="none" stroke="#000000" d="M 514.7099609375 459.5 C 514.7099609375 454.8055792 518.5155401375 451 523.2099609375 451 C 527.9043817375 451 531.7099609375 454.8055792 531.7099609375 459.5 C 531.7099609375 464.1944208 527.9043817375 468 523.2099609375 468 C 518.5155401375 468 514.7099609375 464.1944208 514.7099609375 459.5 Z" stroke-miterlimit="10"/></g><g transform="translate(-14,-22) scale(1,1)"><g><path fill="none" stroke="none"/><text fill="#000000" stroke="none" font-family="Arial" font-size="13px" font-style="normal" font-weight="bold" text-decoration="none" x="503.70361328125" y="490.5">ocrAPI</text></g></g><g transform="translate(-14,-22) scale(1,1)"><path fill="none" stroke="#000000" d="M 523 528 L 523 471" stroke-miterlimit="10"/></g><g transform="translate(-14,-22) scale(1,1)"><path fill="none" stroke="#000000" d="M 715 528 L 715 471" stroke-miterlimit="10"/></g><g transform="translate(-14,-22) scale(1,1)"><path fill="none" stroke="#000000" d="M 539 268 L 539 296 L 712 296 L 712 448" stroke-miterlimit="10"/></g><g transform="translate(-14,-22) scale(1,1)"><path fill="none" stroke="#000000" d="M 520 364 L 520 448" stroke-miterlimit="10"/></g><g transform="translate(-14,-22) scale(1,1)"><rect fill="#C0C0C0" stroke="none" x="41" y="71" width="98.44091796875" height="44" opacity="0.2"/></g><g transform="translate(-14,-22) scale(1,1)"><rect fill="#ffffff" stroke="none" x="24" y="64" width="108.44091796875" height="44"/></g><g transform="translate(-14,-22) scale(1,1)"><path fill="none" stroke="#000000" d="M 24 64 L 132.44091796875 64 L 132.44091796875 108 L 24 108 L 24 64 Z Z" stroke-miterlimit="10"/></g><g transform="translate(-14,-22) scale(1,1)"><rect fill="#ffffff" stroke="none" x="24" y="64" width="108.44091796875" height="44"/></g><g transform="translate(-14,-22) scale(1,1)"><path fill="none" stroke="#000000" d="M 24 64 L 132.44091796875 64 L 132.44091796875 108 L 24 108 L 24 64 Z Z" stroke-miterlimit="10"/></g><g transform="translate(-14,-22) scale(1,1)"><rect fill="#ffffff" stroke="none" x="112.44091796875" y="74" width="13" height="16"/></g><g transform="translate(-14,-22) scale(1,1)"><path fill="none" stroke="#000000" d="M 112.44091796875 74 L 125.44091796875 74 L 125.44091796875 90 L 112.44091796875 90 L 112.44091796875 74 Z Z" stroke-miterlimit="10"/></g><g transform="translate(-14,-22) scale(1,1)"><rect fill="#ffffff" stroke="none" x="109.44091796875" y="77" width="7" height="4"/></g><g transform="translate(-14,-22) scale(1,1)"><path fill="none" stroke="#000000" d="M 109.44091796875 77 L 116.44091796875 77 L 116.44091796875 81 L 109.44091796875 81 L 109.44091796875 77 Z Z" stroke-miterlimit="10"/></g><g transform="translate(-14,-22) scale(1,1)"><rect fill="#ffffff" stroke="none" x="109.44091796875" y="83" width="7" height="4"/></g><g transform="translate(-14,-22) scale(1,1)"><path fill="none" stroke="#000000" d="M 109.44091796875 83 L 116.44091796875 83 L 116.44091796875 87 L 109.44091796875 87 L 109.44091796875 83 Z Z" stroke-miterlimit="10"/></g><g transform="translate(-14,-22) scale(1,1)"><g><path fill="none" stroke="none"/><text fill="#000000" stroke="none" font-family="Arial" font-size="13px" font-style="normal" font-weight="bold" text-decoration="none" x="46.7109375" y="83.5">Router</text></g></g><g transform="translate(-14,-22) scale(1,1)"><path fill="#C0C0C0" stroke="none" d="M 221.509521484375 98.5 C 221.509521484375 92.1487248 226.658246284375 87 233.009521484375 87 C 239.360796684375 87 244.509521484375 92.1487248 244.509521484375 98.5 C 244.509521484375 104.8512752 239.360796684375 110 233.009521484375 110 C 226.658246284375 110 221.509521484375 104.8512752 221.509521484375 98.5 Z" opacity="0.2"/></g><g transform="translate(-14,-22) scale(1,1)"><path fill="none" stroke="#000000" d="M 226 102.5 A 11.5 11.5 0 0 1 226 79.5" stroke-miterlimit="10"/></g><g transform="translate(-14,-22) scale(1,1)"><path fill="#ffffff" stroke="none" d="M 217.509521484375 91.5 C 217.509521484375 86.8055792 221.315100684375 83 226.009521484375 83 C 230.703942284375 83 234.509521484375 86.8055792 234.509521484375 91.5 C 234.509521484375 96.1944208 230.703942284375 100 226.009521484375 100 C 221.315100684375 100 217.509521484375 96.1944208 217.509521484375 91.5 Z"/></g><g transform="translate(-14,-22) scale(1,1)"><path fill="none" stroke="#000000" d="M 217.509521484375 91.5 C 217.509521484375 86.8055792 221.315100684375 83 226.009521484375 83 C 230.703942284375 83 234.509521484375 86.8055792 234.509521484375 91.5 C 234.509521484375 96.1944208 230.703942284375 100 226.009521484375 100 C 221.315100684375 100 217.509521484375 96.1944208 217.509521484375 91.5 Z" stroke-miterlimit="10"/></g><g transform="translate(-14,-22) scale(1,1)"><g><path fill="none" stroke="none"/><text fill="#000000" stroke="none" font-family="Arial" font-size="13px" font-style="normal" font-weight="bold" text-decoration="none" x="183.010498046875" y="122.5">manageReport</text></g></g><g transform="translate(-14,-22) scale(1,1)"><path fill="none" stroke="#000000" d="M 448 91 L 237.509521484375 91" stroke-miterlimit="10"/></g><g transform="translate(-14,-22) scale(1,1)"><path fill="none" stroke="#000000" d="M 132 91 L 214.509521484375 91" stroke-miterlimit="10"/></g></svg>