<svg version="1.1" xmlns="http://www.w3.org/2000/svg" xmlns:xlink="http://www.w3.org/1999/xlink" width="1620" height="1060"><defs/><g transform="translate(-62,-62) scale(1,1)"><path fill="#C0C0C0" stroke="none" d="M 79 465 L 292 465 L 292 590 L 79 590" opacity="0.2"/></g><g transform="translate(-62,-62) scale(1,1)"><path fill="#C0C0C0" stroke="none" d="M 79 465 L 89 455 L 302 455 L 292 465" opacity="0.2"/></g><g transform="translate(-62,-62) scale(1,1)"><path fill="#C0C0C0" stroke="none" d="M 302 455 L 292 465 L 292 590 L 302 580" opacity="0.2"/></g><g transform="translate(-62,-62) scale(1,1)"><rect fill="#ffffff" stroke="none" x="72" y="448" width="224" height="136"/></g><g transform="translate(-62,-62) scale(1,1)"><path fill="none" stroke="#000000" d="M 72 448 L 296 448 L 296 584 L 72 584 L 72 448 Z Z" stroke-miterlimit="10"/></g><g transform="translate(-62,-62) scale(1,1)"><rect fill="#ffffff" stroke="none" x="72" y="448" width="224" height="136"/></g><g transform="translate(-62,-62) scale(1,1)"><path fill="none" stroke="#000000" d="M 72 448 L 296 448 L 296 584 L 72 584 L 72 448 Z Z" stroke-miterlimit="10"/></g><g transform="translate(-62,-62) scale(1,1)"><path fill="none" stroke="#000000" d="M 270 463 L 286 463 L 286 473 L 270 473 L 270 463 Z Z" stroke-miterlimit="10"/></g><g transform="translate(-62,-62) scale(1,1)"><path fill="none" stroke="#000000" d="M 270 463 L 275 458 L 291 458 L 286 463 L 270 463" stroke-miterlimit="10"/></g><g transform="translate(-62,-62) scale(1,1)"><path fill="none" stroke="#000000" d="M 286 463 L 291 458 L 291 468 L 286 473 L 286 463" stroke-miterlimit="10"/></g><g transform="translate(-62,-62) scale(1,1)"><g><path fill="none" stroke="none"/><text fill="#000000" stroke="none" font-family="Arial" font-size="13px" font-style="normal" font-weight="bold" text-decoration="none" x="158.2763671875" y="467.5">User</text></g></g><g transform="translate(-62,-62) scale(1,1)"><rect fill="#C0C0C0" stroke="none" x="129" y="519" width="132.68359375" height="44" opacity="0.2"/></g><g transform="translate(-62,-62) scale(1,1)"><rect fill="#ffffff" stroke="none" x="112" y="512" width="142.68359375" height="44"/></g><g transform="translate(-62,-62) scale(1,1)"><path fill="none" stroke="#000000" d="M 112 512 L 254.68359375 512 L 254.68359375 556 L 112 556 L 112 512 Z Z" stroke-miterlimit="10"/></g><g transform="translate(-62,-62) scale(1,1)"><rect fill="#ffffff" stroke="none" x="112" y="512" width="142.68359375" height="44"/></g><g transform="translate(-62,-62) scale(1,1)"><path fill="none" stroke="#000000" d="M 112 512 L 254.68359375 512 L 254.68359375 556 L 112 556 L 112 512 Z Z" stroke-miterlimit="10"/></g><g transform="translate(-62,-62) scale(1,1)"><rect fill="#ffffff" stroke="none" x="234.68359375" y="522" width="13" height="16"/></g><g transform="translate(-62,-62) scale(1,1)"><path fill="none" stroke="#000000" d="M 234.68359375 522 L 247.68359375 522 L 247.68359375 538 L 234.68359375 538 L 234.68359375 522 Z Z" stroke-miterlimit="10"/></g><g transform="translate(-62,-62) scale(1,1)"><rect fill="#ffffff" stroke="none" x="231.68359375" y="525" width="7" height="4"/></g><g transform="translate(-62,-62) scale(1,1)"><path fill="none" stroke="#000000" d="M 231.68359375 525 L 238.68359375 525 L 238.68359375 529 L 231.68359375 529 L 231.68359375 525 Z Z" stroke-miterlimit="10"/></g><g transform="translate(-62,-62) scale(1,1)"><rect fill="#ffffff" stroke="none" x="231.68359375" y="531" width="7" height="4"/></g><g transform="translate(-62,-62) scale(1,1)"><path fill="none" stroke="#000000" d="M 231.68359375 531 L 238.68359375 531 L 238.68359375 535 L 231.68359375 535 L 231.68359375 531 Z Z" stroke-miterlimit="10"/></g><g transform="translate(-62,-62) scale(1,1)"><g><path fill="none" stroke="none"/><text fill="#000000" stroke="none" font-family="Arial" font-size="13px" font-style="normal" font-weight="bold" text-decoration="none" x="125.819580078125" y="531.5">UserApplication</text></g></g><g transform="translate(-62,-62) scale(1,1)"><rect fill="#C0C0C0" stroke="none" x="761" y="79" width="111.00634765625" height="44" opacity="0.2"/></g><g transform="translate(-62,-62) scale(1,1)"><rect fill="#ffffff" stroke="none" x="744" y="72" width="121.00634765625" height="44"/></g><g transform="translate(-62,-62) scale(1,1)"><path fill="none" stroke="#000000" d="M 744 72 L 865.00634765625 72 L 865.00634765625 116 L 744 116 L 744 72 Z Z" stroke-miterlimit="10"/></g><g transform="translate(-62,-62) scale(1,1)"><rect fill="#ffffff" stroke="none" x="744" y="72" width="121.00634765625" height="44"/></g><g transform="translate(-62,-62) scale(1,1)"><path fill="none" stroke="#000000" d="M 744 72 L 865.00634765625 72 L 865.00634765625 116 L 744 116 L 744 72 Z Z" stroke-miterlimit="10"/></g><g transform="translate(-62,-62) scale(1,1)"><rect fill="#ffffff" stroke="none" x="845.00634765625" y="82" width="13" height="16"/></g><g transform="translate(-62,-62) scale(1,1)"><path fill="none" stroke="#000000" d="M 845.00634765625 82 L 858.00634765625 82 L 858.00634765625 98 L 845.00634765625 98 L 845.00634765625 82 Z Z" stroke-miterlimit="10"/></g><g transform="translate(-62,-62) scale(1,1)"><rect fill="#ffffff" stroke="none" x="842.00634765625" y="85" width="7" height="4"/></g><g transform="translate(-62,-62) scale(1,1)"><path fill="none" stroke="#000000" d="M 842.00634765625 85 L 849.00634765625 85 L 849.00634765625 89 L 842.00634765625 89 L 842.00634765625 85 Z Z" stroke-miterlimit="10"/></g><g transform="translate(-62,-62) scale(1,1)"><rect fill="#ffffff" stroke="none" x="842.00634765625" y="91" width="7" height="4"/></g><g transform="translate(-62,-62) scale(1,1)"><path fill="none" stroke="#000000" d="M 842.00634765625 91 L 849.00634765625 91 L 849.00634765625 95 L 842.00634765625 95 L 842.00634765625 91 Z Z" stroke-miterlimit="10"/></g><g transform="translate(-62,-62) scale(1,1)"><g><path fill="none" stroke="none"/><text fill="#000000" stroke="none" font-family="Arial" font-size="13px" font-style="normal" font-weight="bold" text-decoration="none" x="755.648681640625" y="91.5">GoogleMaps</text></g></g><g transform="translate(-62,-62) scale(1,1)"><rect fill="#C0C0C0" stroke="none" x="985" y="1015" width="98.44091796875" height="44" opacity="0.2"/></g><g transform="translate(-62,-62) scale(1,1)"><rect fill="#ffffff" stroke="none" x="968" y="1008" width="108.44091796875" height="44"/></g><g transform="translate(-62,-62) scale(1,1)"><path fill="none" stroke="#000000" d="M 968 1008 L 1076.44091796875 1008 L 1076.44091796875 1052 L 968 1052 L 968 1008 Z Z" stroke-miterlimit="10"/></g><g transform="translate(-62,-62) scale(1,1)"><rect fill="#ffffff" stroke="none" x="968" y="1008" width="108.44091796875" height="44"/></g><g transform="translate(-62,-62) scale(1,1)"><path fill="none" stroke="#000000" d="M 968 1008 L 1076.44091796875 1008 L 1076.44091796875 1052 L 968 1052 L 968 1008 Z Z" stroke-miterlimit="10"/></g><g transform="translate(-62,-62) scale(1,1)"><rect fill="#ffffff" stroke="none" x="1056.44091796875" y="1018" width="13" height="16"/></g><g transform="translate(-62,-62) scale(1,1)"><path fill="none" stroke="#000000" d="M 1056.44091796875 1018 L 1069.44091796875 1018 L 1069.44091796875 1034 L 1056.44091796875 1034 L 1056.44091796875 1018 Z Z" stroke-miterlimit="10"/></g><g transform="translate(-62,-62) scale(1,1)"><rect fill="#ffffff" stroke="none" x="1053.44091796875" y="1021" width="7" height="4"/></g><g transform="translate(-62,-62) scale(1,1)"><path fill="none" stroke="#000000" d="M 1053.44091796875 1021 L 1060.44091796875 1021 L 1060.44091796875 1025 L 1053.44091796875 1025 L 1053.44091796875 1021 Z Z" stroke-miterlimit="10"/></g><g transform="translate(-62,-62) scale(1,1)"><rect fill="#ffffff" stroke="none" x="1053.44091796875" y="1027" width="7" height="4"/></g><g transform="translate(-62,-62) scale(1,1)"><path fill="none" stroke="#000000" d="M 1053.44091796875 1027 L 1060.44091796875 1027 L 1060.44091796875 1031 L 1053.44091796875 1031 L 1053.44091796875 1027 Z Z" stroke-miterlimit="10"/></g><g transform="translate(-62,-62) scale(1,1)"><g><path fill="none" stroke="none"/><text fill="#000000" stroke="none" font-family="Arial" font-size="13px" font-style="normal" font-weight="bold" text-decoration="none" x="995.7763671875" y="1027.5">OCR</text></g></g><g transform="translate(-62,-62) scale(1,1)"><path fill="#C0C0C0" stroke="none" d="M 591 985 L 892 985 L 892 1118 L 591 1118" opacity="0.2"/></g><g transform="translate(-62,-62) scale(1,1)"><path fill="#C0C0C0" stroke="none" d="M 591 985 L 601 975 L 902 975 L 892 985" opacity="0.2"/></g><g transform="translate(-62,-62) scale(1,1)"><path fill="#C0C0C0" stroke="none" d="M 902 975 L 892 985 L 892 1118 L 902 1108" opacity="0.2"/></g><g transform="translate(-62,-62) scale(1,1)"><rect fill="#ffffff" stroke="none" x="584" y="968" width="312" height="144"/></g><g transform="translate(-62,-62) scale(1,1)"><path fill="none" stroke="#000000" d="M 584 968 L 896 968 L 896 1112 L 584 1112 L 584 968 Z Z" stroke-miterlimit="10"/></g><g transform="translate(-62,-62) scale(1,1)"><rect fill="#ffffff" stroke="none" x="584" y="968" width="312" height="144"/></g><g transform="translate(-62,-62) scale(1,1)"><path fill="none" stroke="#000000" d="M 584 968 L 896 968 L 896 1112 L 584 1112 L 584 968 Z Z" stroke-miterlimit="10"/></g><g transform="translate(-62,-62) scale(1,1)"><path fill="none" stroke="#000000" d="M 870 983 L 886 983 L 886 993 L 870 993 L 870 983 Z Z" stroke-miterlimit="10"/></g><g transform="translate(-62,-62) scale(1,1)"><path fill="none" stroke="#000000" d="M 870 983 L 875 978 L 891 978 L 886 983 L 870 983" stroke-miterlimit="10"/></g><g transform="translate(-62,-62) scale(1,1)"><path fill="none" stroke="#000000" d="M 886 983 L 891 978 L 891 988 L 886 993 L 886 983" stroke-miterlimit="10"/></g><g transform="translate(-62,-62) scale(1,1)"><g><path fill="none" stroke="none"/><text fill="#000000" stroke="none" font-family="Arial" font-size="13px" font-style="normal" font-weight="bold" text-decoration="none" x="694.043212890625" y="987.5">Municipality</text></g></g><g transform="translate(-62,-62) scale(1,1)"><rect fill="#C0C0C0" stroke="none" x="633" y="1039" width="104.49365234375" height="44" opacity="0.2"/></g><g transform="translate(-62,-62) scale(1,1)"><rect fill="#ffffff" stroke="none" x="616" y="1032" width="114.49365234375" height="44"/></g><g transform="translate(-62,-62) scale(1,1)"><path fill="none" stroke="#000000" d="M 616 1032 L 730.49365234375 1032 L 730.49365234375 1076 L 616 1076 L 616 1032 Z Z" stroke-miterlimit="10"/></g><g transform="translate(-62,-62) scale(1,1)"><rect fill="#ffffff" stroke="none" x="616" y="1032" width="114.49365234375" height="44"/></g><g transform="translate(-62,-62) scale(1,1)"><path fill="none" stroke="#000000" d="M 616 1032 L 730.49365234375 1032 L 730.49365234375 1076 L 616 1076 L 616 1032 Z Z" stroke-miterlimit="10"/></g><g transform="translate(-62,-62) scale(1,1)"><rect fill="#ffffff" stroke="none" x="710.49365234375" y="1042" width="13" height="16"/></g><g transform="translate(-62,-62) scale(1,1)"><path fill="none" stroke="#000000" d="M 710.49365234375 1042 L 723.49365234375 1042 L 723.49365234375 1058 L 710.49365234375 1058 L 710.49365234375 1042 Z Z" stroke-miterlimit="10"/></g><g transform="translate(-62,-62) scale(1,1)"><rect fill="#ffffff" stroke="none" x="707.49365234375" y="1045" width="7" height="4"/></g><g transform="translate(-62,-62) scale(1,1)"><path fill="none" stroke="#000000" d="M 707.49365234375 1045 L 714.49365234375 1045 L 714.49365234375 1049 L 707.49365234375 1049 L 707.49365234375 1045 Z Z" stroke-miterlimit="10"/></g><g transform="translate(-62,-62) scale(1,1)"><rect fill="#ffffff" stroke="none" x="707.49365234375" y="1051" width="7" height="4"/></g><g transform="translate(-62,-62) scale(1,1)"><path fill="none" stroke="#000000" d="M 707.49365234375 1051 L 714.49365234375 1051 L 714.49365234375 1055 L 707.49365234375 1055 L 707.49365234375 1051 Z Z" stroke-miterlimit="10"/></g><g transform="translate(-62,-62) scale(1,1)"><g><path fill="none" stroke="none"/><text fill="#000000" stroke="none" font-family="Arial" font-size="13px" font-style="normal" font-weight="bold" text-decoration="none" x="628.73095703125" y="1051.5">Information</text></g></g><g transform="translate(-62,-62) scale(1,1)"><rect fill="#C0C0C0" stroke="none" x="769" y="1039" width="98.44091796875" height="44" opacity="0.2"/></g><g transform="translate(-62,-62) scale(1,1)"><rect fill="#ffffff" stroke="none" x="752" y="1032" width="108.44091796875" height="44"/></g><g transform="translate(-62,-62) scale(1,1)"><path fill="none" stroke="#000000" d="M 752 1032 L 860.44091796875 1032 L 860.44091796875 1076 L 752 1076 L 752 1032 Z Z" stroke-miterlimit="10"/></g><g transform="translate(-62,-62) scale(1,1)"><rect fill="#ffffff" stroke="none" x="752" y="1032" width="108.44091796875" height="44"/></g><g transform="translate(-62,-62) scale(1,1)"><path fill="none" stroke="#000000" d="M 752 1032 L 860.44091796875 1032 L 860.44091796875 1076 L 752 1076 L 752 1032 Z Z" stroke-miterlimit="10"/></g><g transform="translate(-62,-62) scale(1,1)"><rect fill="#ffffff" stroke="none" x="840.44091796875" y="1042" width="13" height="16"/></g><g transform="translate(-62,-62) scale(1,1)"><path fill="none" stroke="#000000" d="M 840.44091796875 1042 L 853.44091796875 1042 L 853.44091796875 1058 L 840.44091796875 1058 L 840.44091796875 1042 Z Z" stroke-miterlimit="10"/></g><g transform="translate(-62,-62) scale(1,1)"><rect fill="#ffffff" stroke="none" x="837.44091796875" y="1045" width="7" height="4"/></g><g transform="translate(-62,-62) scale(1,1)"><path fill="none" stroke="#000000" d="M 837.44091796875 1045 L 844.44091796875 1045 L 844.44091796875 1049 L 837.44091796875 1049 L 837.44091796875 1045 Z Z" stroke-miterlimit="10"/></g><g transform="translate(-62,-62) scale(1,1)"><rect fill="#ffffff" stroke="none" x="837.44091796875" y="1051" width="7" height="4"/></g><g transform="translate(-62,-62) scale(1,1)"><path fill="none" stroke="#000000" d="M 837.44091796875 1051 L 844.44091796875 1051 L 844.44091796875 1055 L 837.44091796875 1055 L 837.44091796875 1051 Z Z" stroke-miterlimit="10"/></g><g transform="translate(-62,-62) scale(1,1)"><g><path fill="none" stroke="none"/><text fill="#000000" stroke="none" font-family="Arial" font-size="13px" font-style="normal" font-weight="bold" text-decoration="none" x="780.5" y="1051.5">MTS</text></g></g><g transform="translate(-62,-62) scale(1,1)"><path fill="#C0C0C0" stroke="none" d="M 1359 329 L 1668 329 L 1668 734 L 1359 734" opacity="0.2"/></g><g transform="translate(-62,-62) scale(1,1)"><path fill="#C0C0C0" stroke="none" d="M 1359 329 L 1369 319 L 1678 319 L 1668 329" opacity="0.2"/></g><g transform="translate(-62,-62) scale(1,1)"><path fill="#C0C0C0" stroke="none" d="M 1678 319 L 1668 329 L 1668 734 L 1678 724" opacity="0.2"/></g><g transform="translate(-62,-62) scale(1,1)"><rect fill="#ffffff" stroke="none" x="1352" y="312" width="320" height="416"/></g><g transform="translate(-62,-62) scale(1,1)"><path fill="none" stroke="#000000" d="M 1352 312 L 1672 312 L 1672 728 L 1352 728 L 1352 312 Z Z" stroke-miterlimit="10"/></g><g transform="translate(-62,-62) scale(1,1)"><rect fill="#ffffff" stroke="none" x="1352" y="312" width="320" height="416"/></g><g transform="translate(-62,-62) scale(1,1)"><path fill="none" stroke="#000000" d="M 1352 312 L 1672 312 L 1672 728 L 1352 728 L 1352 312 Z Z" stroke-miterlimit="10"/></g><g transform="translate(-62,-62) scale(1,1)"><path fill="none" stroke="#000000" d="M 1646 327 L 1662 327 L 1662 337 L 1646 337 L 1646 327 Z Z" stroke-miterlimit="10"/></g><g transform="translate(-62,-62) scale(1,1)"><path fill="none" stroke="#000000" d="M 1646 327 L 1651 322 L 1667 322 L 1662 327 L 1646 327" stroke-miterlimit="10"/></g><g transform="translate(-62,-62) scale(1,1)"><path fill="none" stroke="#000000" d="M 1662 327 L 1667 322 L 1667 332 L 1662 337 L 1662 327" stroke-miterlimit="10"/></g><g transform="translate(-62,-62) scale(1,1)"><g><path fill="none" stroke="none"/><text fill="#000000" stroke="none" font-family="Arial" font-size="13px" font-style="normal" font-weight="bold" text-decoration="none" x="1453.030517578125" y="331.5">DatabaseServer</text></g></g><g transform="translate(-62,-62) scale(1,1)"><rect fill="#C0C0C0" stroke="none" x="1417" y="391" width="206" height="296" opacity="0.2"/></g><g transform="translate(-62,-62) scale(1,1)"><rect fill="#ffffff" stroke="none" x="1400" y="384" width="216" height="296"/></g><g transform="translate(-62,-62) scale(1,1)"><path fill="none" stroke="#000000" d="M 1400 384 L 1616 384 L 1616 680 L 1400 680 L 1400 384 Z Z" stroke-miterlimit="10"/></g><g transform="translate(-62,-62) scale(1,1)"><rect fill="#ffffff" stroke="none" x="1400" y="384" width="216" height="296"/></g><g transform="translate(-62,-62) scale(1,1)"><path fill="none" stroke="#000000" d="M 1400 384 L 1616 384 L 1616 680 L 1400 680 L 1400 384 Z Z" stroke-miterlimit="10"/></g><g transform="translate(-62,-62) scale(1,1)"><rect fill="#ffffff" stroke="none" x="1596" y="394" width="13" height="16"/></g><g transform="translate(-62,-62) scale(1,1)"><path fill="none" stroke="#000000" d="M 1596 394 L 1609 394 L 1609 410 L 1596 410 L 1596 394 Z Z" stroke-miterlimit="10"/></g><g transform="translate(-62,-62) scale(1,1)"><rect fill="#ffffff" stroke="none" x="1593" y="397" width="7" height="4"/></g><g transform="translate(-62,-62) scale(1,1)"><path fill="none" stroke="#000000" d="M 1593 397 L 1600 397 L 1600 401 L 1593 401 L 1593 397 Z Z" stroke-miterlimit="10"/></g><g transform="translate(-62,-62) scale(1,1)"><rect fill="#ffffff" stroke="none" x="1593" y="403" width="7" height="4"/></g><g transform="translate(-62,-62) scale(1,1)"><path fill="none" stroke="#000000" d="M 1593 403 L 1600 403 L 1600 407 L 1593 407 L 1593 403 Z Z" stroke-miterlimit="10"/></g><g transform="translate(-62,-62) scale(1,1)"><g><path fill="none" stroke="none"/><text fill="#000000" stroke="none" font-family="Arial" font-size="13px" font-style="normal" font-weight="bold" text-decoration="none" x="1477.220458984375" y="403.5">DBMS</text></g></g><g transform="translate(-62,-62) scale(1,1)"><rect fill="#C0C0C0" stroke="none" x="1473" y="463" width="102" height="44" opacity="0.2"/></g><g transform="translate(-62,-62) scale(1,1)"><rect fill="#ffffff" stroke="none" x="1456" y="456" width="112" height="44"/></g><g transform="translate(-62,-62) scale(1,1)"><path fill="none" stroke="#000000" d="M 1456 456 L 1568 456 L 1568 500 L 1456 500 L 1456 456 Z Z" stroke-miterlimit="10"/></g><g transform="translate(-62,-62) scale(1,1)"><rect fill="#ffffff" stroke="none" x="1456" y="456" width="112" height="44"/></g><g transform="translate(-62,-62) scale(1,1)"><path fill="none" stroke="#000000" d="M 1456 456 L 1568 456 L 1568 500 L 1456 500 L 1456 456 Z Z" stroke-miterlimit="10"/></g><g transform="translate(-62,-62) scale(1,1)"><rect fill="#ffffff" stroke="none" x="1548" y="466" width="13" height="16"/></g><g transform="translate(-62,-62) scale(1,1)"><path fill="none" stroke="#000000" d="M 1548 466 L 1561 466 L 1561 482 L 1548 482 L 1548 466 Z Z" stroke-miterlimit="10"/></g><g transform="translate(-62,-62) scale(1,1)"><rect fill="#ffffff" stroke="none" x="1545" y="469" width="7" height="4"/></g><g transform="translate(-62,-62) scale(1,1)"><path fill="none" stroke="#000000" d="M 1545 469 L 1552 469 L 1552 473 L 1545 473 L 1545 469 Z Z" stroke-miterlimit="10"/></g><g transform="translate(-62,-62) scale(1,1)"><rect fill="#ffffff" stroke="none" x="1545" y="475" width="7" height="4"/></g><g transform="translate(-62,-62) scale(1,1)"><path fill="none" stroke="#000000" d="M 1545 475 L 1552 475 L 1552 479 L 1545 479 L 1545 475 Z Z" stroke-miterlimit="10"/></g><g transform="translate(-62,-62) scale(1,1)"><g><path fill="none" stroke="none"/><text fill="#000000" stroke="none" font-family="Arial" font-size="13px" font-style="normal" font-weight="bold" text-decoration="none" x="1472.175048828125" y="475.5">Database</text></g></g><g transform="translate(-62,-62) scale(1,1)"><rect fill="#C0C0C0" stroke="none" x="1457" y="599" width="129.0908203125" height="44" opacity="0.2"/></g><g transform="translate(-62,-62) scale(1,1)"><rect fill="#ffffff" stroke="none" x="1440" y="592" width="139.0908203125" height="44"/></g><g transform="translate(-62,-62) scale(1,1)"><path fill="none" stroke="#000000" d="M 1440 592 L 1579.0908203125 592 L 1579.0908203125 636 L 1440 636 L 1440 592 Z Z" stroke-miterlimit="10"/></g><g transform="translate(-62,-62) scale(1,1)"><rect fill="#ffffff" stroke="none" x="1440" y="592" width="139.0908203125" height="44"/></g><g transform="translate(-62,-62) scale(1,1)"><path fill="none" stroke="#000000" d="M 1440 592 L 1579.0908203125 592 L 1579.0908203125 636 L 1440 636 L 1440 592 Z Z" stroke-miterlimit="10"/></g><g transform="translate(-62,-62) scale(1,1)"><rect fill="#ffffff" stroke="none" x="1559.0908203125" y="602" width="13" height="16"/></g><g transform="translate(-62,-62) scale(1,1)"><path fill="none" stroke="#000000" d="M 1559.0908203125 602 L 1572.0908203125 602 L 1572.0908203125 618 L 1559.0908203125 618 L 1559.0908203125 602 Z Z" stroke-miterlimit="10"/></g><g transform="translate(-62,-62) scale(1,1)"><rect fill="#ffffff" stroke="none" x="1556.0908203125" y="605" width="7" height="4"/></g><g transform="translate(-62,-62) scale(1,1)"><path fill="none" stroke="#000000" d="M 1556.0908203125 605 L 1563.0908203125 605 L 1563.0908203125 609 L 1556.0908203125 609 L 1556.0908203125 605 Z Z" stroke-miterlimit="10"/></g><g transform="translate(-62,-62) scale(1,1)"><rect fill="#ffffff" stroke="none" x="1556.0908203125" y="611" width="7" height="4"/></g><g transform="translate(-62,-62) scale(1,1)"><path fill="none" stroke="#000000" d="M 1556.0908203125 611 L 1563.0908203125 611 L 1563.0908203125 615 L 1556.0908203125 615 L 1556.0908203125 611 Z Z" stroke-miterlimit="10"/></g><g transform="translate(-62,-62) scale(1,1)"><g><path fill="none" stroke="none"/><text fill="#000000" stroke="none" font-family="Arial" font-size="13px" font-style="normal" font-weight="bold" text-decoration="none" x="1452.016845703125" y="611.5">Datawarehouse</text></g></g><g transform="translate(-62,-62) scale(1,1)"><path fill="#C0C0C0" stroke="none" d="M 1507.5 546.5 C 1507.5 540.1487248 1512.6487248 535 1519 535 C 1525.3512752 535 1530.5 540.1487248 1530.5 546.5 C 1530.5 552.8512752 1525.3512752 558 1519 558 C 1512.6487248 558 1507.5 552.8512752 1507.5 546.5 Z" opacity="0.2"/></g><g transform="translate(-62,-62) scale(1,1)"><path fill="none" stroke="#000000" d="M 1523.5 539 A 11.5 11.5 0 0 1 1500.5 539" stroke-miterlimit="10"/></g><g transform="translate(-62,-62) scale(1,1)"><path fill="#ffffff" stroke="none" d="M 1503.5 539.5 C 1503.5 534.8055792 1507.3055792 531 1512 531 C 1516.6944208 531 1520.5 534.8055792 1520.5 539.5 C 1520.5 544.1944208 1516.6944208 548 1512 548 C 1507.3055792 548 1503.5 544.1944208 1503.5 539.5 Z"/></g><g transform="translate(-62,-62) scale(1,1)"><path fill="none" stroke="#000000" d="M 1503.5 539.5 C 1503.5 534.8055792 1507.3055792 531 1512 531 C 1516.6944208 531 1520.5 534.8055792 1520.5 539.5 C 1520.5 544.1944208 1516.6944208 548 1512 548 C 1507.3055792 548 1503.5 544.1944208 1503.5 539.5 Z" stroke-miterlimit="10"/></g><g transform="translate(-62,-62) scale(1,1)"><g><path fill="none" stroke="none"/><text fill="#000000" stroke="none" font-family="Arial" font-size="13px" font-style="normal" font-weight="bold" text-decoration="none" x="1487.42822265625" y="570.5">dataETL</text></g></g><g transform="translate(-62,-62) scale(1,1)"><path fill="none" stroke="#000000" d="M 1512 500 L 1512 528" stroke-miterlimit="10"/></g><g transform="translate(-62,-62) scale(1,1)"><path fill="none" stroke="#000000" d="M 1512 592 L 1512 551" stroke-miterlimit="10"/></g><g transform="translate(-62,-62) scale(1,1)"><path fill="#C0C0C0" stroke="none" d="M 1243.200439453125 542.5 C 1243.200439453125 533.9395856 1250.140025053125 527 1258.700439453125 527 C 1267.260853853125 527 1274.200439453125 533.9395856 1274.200439453125 542.5 C 1274.200439453125 551.0604144 1267.260853853125 558 1258.700439453125 558 C 1250.140025053125 558 1243.200439453125 551.0604144 1243.200439453125 542.5 Z" opacity="0.2"/></g><g transform="translate(-62,-62) scale(1,1)"><path fill="none" stroke="#000000" d="M 1251 550.5 A 15.5 15.5 0 0 1 1251 519.5" stroke-miterlimit="10"/></g><g transform="translate(-62,-62) scale(1,1)"><path fill="none" stroke="#000000" d="M 1251 550.5 A 15.5 15.5 0 0 1 1251 519.5" stroke-miterlimit="10"/></g><g transform="translate(-62,-62) scale(1,1)"><path fill="none" stroke="#000000" d="M 1251 550.5 A 15.5 15.5 0 0 1 1251 519.5" stroke-miterlimit="10"/></g><g transform="translate(-62,-62) scale(1,1)"><path fill="none" stroke="#000000" d="M 1251 550.5 A 15.5 15.5 0 0 1 1251 519.5" stroke-miterlimit="10"/></g><g transform="translate(-62,-62) scale(1,1)"><path fill="none" stroke="#000000" d="M 1251 550.5 A 15.5 15.5 0 0 1 1251 519.5" stroke-miterlimit="10"/></g><g transform="translate(-62,-62) scale(1,1)"><path fill="#ffffff" stroke="none" d="M 1239.200439453125 535.5 C 1239.200439453125 528.59644 1244.796879453125 523 1251.700439453125 523 C 1258.603999453125 523 1264.200439453125 528.59644 1264.200439453125 535.5 C 1264.200439453125 542.40356 1258.603999453125 548 1251.700439453125 548 C 1244.796879453125 548 1239.200439453125 542.40356 1239.200439453125 535.5 Z"/></g><g transform="translate(-62,-62) scale(1,1)"><path fill="none" stroke="#000000" d="M 1239.200439453125 535.5 C 1239.200439453125 528.59644 1244.796879453125 523 1251.700439453125 523 C 1258.603999453125 523 1264.200439453125 528.59644 1264.200439453125 535.5 C 1264.200439453125 542.40356 1258.603999453125 548 1251.700439453125 548 C 1244.796879453125 548 1239.200439453125 542.40356 1239.200439453125 535.5 Z" stroke-miterlimit="10"/></g><g transform="translate(-62,-62) scale(1,1)"><g><path fill="none" stroke="none"/><text fill="#000000" stroke="none" font-family="Arial" font-size="13px" font-style="normal" font-weight="bold" text-decoration="none" x="1194.25732421875" y="570.5">dbmsFunctionalities</text></g></g><g transform="translate(-62,-62) scale(1,1)"><path fill="none" stroke="#000000" d="M 1400 535 L 1267.200439453125 535" stroke-miterlimit="10"/></g><g transform="translate(-62,-62) scale(1,1)"><path fill="#C0C0C0" stroke="none" d="M 795.5 174.5 C 795.5 165.9395856 802.4395856 159 811 159 C 819.5604144 159 826.5 165.9395856 826.5 174.5 C 826.5 183.0604144 819.5604144 190 811 190 C 802.4395856 190 795.5 183.0604144 795.5 174.5 Z" opacity="0.2"/></g><g transform="translate(-62,-62) scale(1,1)"><path fill="none" stroke="#000000" d="M 819.5 167 A 15.5 15.5 0 0 1 788.5 167" stroke-miterlimit="10"/></g><g transform="translate(-62,-62) scale(1,1)"><path fill="none" stroke="#000000" d="M 819.5 167 A 15.5 15.5 0 0 1 788.5 167" stroke-miterlimit="10"/></g><g transform="translate(-62,-62) scale(1,1)"><path fill="none" stroke="#000000" d="M 819.5 167 A 15.5 15.5 0 0 1 788.5 167" stroke-miterlimit="10"/></g><g transform="translate(-62,-62) scale(1,1)"><path fill="none" stroke="#000000" d="M 819.5 167 A 15.5 15.5 0 0 1 788.5 167" stroke-miterlimit="10"/></g><g transform="translate(-62,-62) scale(1,1)"><path fill="#ffffff" stroke="none" d="M 791.5 167.5 C 791.5 160.59644 797.09644 155 804 155 C 810.90356 155 816.5 160.59644 816.5 167.5 C 816.5 174.40356 810.90356 180 804 180 C 797.09644 180 791.5 174.40356 791.5 167.5 Z"/></g><g transform="translate(-62,-62) scale(1,1)"><path fill="none" stroke="#000000" d="M 791.5 167.5 C 791.5 160.59644 797.09644 155 804 155 C 810.90356 155 816.5 160.59644 816.5 167.5 C 816.5 174.40356 810.90356 180 804 180 C 797.09644 180 791.5 174.40356 791.5 167.5 Z" stroke-miterlimit="10"/></g><g transform="translate(-62,-62) scale(1,1)"><g><path fill="none" stroke="none"/><text fill="#000000" stroke="none" font-family="Arial" font-size="13px" font-style="normal" font-weight="bold" text-decoration="none" x="777.628662109375" y="202.5">mapsAPI</text></g></g><g transform="translate(-62,-62) scale(1,1)"><path fill="#C0C0C0" stroke="none" d="M 1019.5 890.5 C 1019.5 884.1487248 1024.6487248 879 1031 879 C 1037.3512752 879 1042.5 884.1487248 1042.5 890.5 C 1042.5 896.8512752 1037.3512752 902 1031 902 C 1024.6487248 902 1019.5 896.8512752 1019.5 890.5 Z" opacity="0.2"/></g><g transform="translate(-62,-62) scale(1,1)"><path fill="none" stroke="#000000" d="M 1012.5 883 A 11.5 11.5 0 0 1 1035.5 883" stroke-miterlimit="10"/></g><g transform="translate(-62,-62) scale(1,1)"><path fill="#ffffff" stroke="none" d="M 1015.5 883.5 C 1015.5 878.8055792 1019.3055792 875 1024 875 C 1028.6944208 875 1032.5 878.8055792 1032.5 883.5 C 1032.5 888.1944208 1028.6944208 892 1024 892 C 1019.3055792 892 1015.5 888.1944208 1015.5 883.5 Z"/></g><g transform="translate(-62,-62) scale(1,1)"><path fill="none" stroke="#000000" d="M 1015.5 883.5 C 1015.5 878.8055792 1019.3055792 875 1024 875 C 1028.6944208 875 1032.5 878.8055792 1032.5 883.5 C 1032.5 888.1944208 1028.6944208 892 1024 892 C 1019.3055792 892 1015.5 888.1944208 1015.5 883.5 Z" stroke-miterlimit="10"/></g><g transform="translate(-62,-62) scale(1,1)"><g><path fill="none" stroke="none"/><text fill="#000000" stroke="none" font-family="Arial" font-size="13px" font-style="normal" font-weight="bold" text-decoration="none" x="1004.49365234375" y="914.5">ocrAPI</text></g></g><g transform="translate(-62,-62) scale(1,1)"><path fill="none" stroke="#000000" d="M 804 116 L 804 152" stroke-miterlimit="10"/></g><g transform="translate(-62,-62) scale(1,1)"><path fill="none" stroke="#000000" d="M 1024 1008 L 1024 895" stroke-miterlimit="10"/></g><g transform="translate(-62,-62) scale(1,1)"><path fill="#C0C0C0" stroke="none" d="M 803.5 890.5 C 803.5 884.1487248 808.6487248 879 815 879 C 821.3512752 879 826.5 884.1487248 826.5 890.5 C 826.5 896.8512752 821.3512752 902 815 902 C 808.6487248 902 803.5 896.8512752 803.5 890.5 Z" opacity="0.2"/></g><g transform="translate(-62,-62) scale(1,1)"><path fill="none" stroke="#000000" d="M 796.5 883 A 11.5 11.5 0 0 1 819.5 883" stroke-miterlimit="10"/></g><g transform="translate(-62,-62) scale(1,1)"><path fill="#ffffff" stroke="none" d="M 799.5 883.5 C 799.5 878.8055792 803.3055792 875 808 875 C 812.6944208 875 816.5 878.8055792 816.5 883.5 C 816.5 888.1944208 812.6944208 892 808 892 C 803.3055792 892 799.5 888.1944208 799.5 883.5 Z"/></g><g transform="translate(-62,-62) scale(1,1)"><path fill="none" stroke="#000000" d="M 799.5 883.5 C 799.5 878.8055792 803.3055792 875 808 875 C 812.6944208 875 816.5 878.8055792 816.5 883.5 C 816.5 888.1944208 812.6944208 892 808 892 C 803.3055792 892 799.5 888.1944208 799.5 883.5 Z" stroke-miterlimit="10"/></g><g transform="translate(-62,-62) scale(1,1)"><g><path fill="none" stroke="none"/><text fill="#000000" stroke="none" font-family="Arial" font-size="13px" font-style="normal" font-weight="bold" text-decoration="none" x="787.052734375" y="914.5">mtsAPI</text></g></g><g transform="translate(-62,-62) scale(1,1)"><path fill="#C0C0C0" stroke="none" d="M 660.759521484375 890.5 C 660.759521484375 884.1487248 665.908246284375 879 672.259521484375 879 C 678.610796684375 879 683.759521484375 884.1487248 683.759521484375 890.5 C 683.759521484375 896.8512752 678.610796684375 902 672.259521484375 902 C 665.908246284375 902 660.759521484375 896.8512752 660.759521484375 890.5 Z" opacity="0.2"/></g><g transform="translate(-62,-62) scale(1,1)"><path fill="none" stroke="#000000" d="M 653.5472281256214 884.0411610794889 A 11.5 11.5 0 0 1 676.4527718743786 881.9588389205111" stroke-miterlimit="10"/></g><g transform="translate(-62,-62) scale(1,1)"><path fill="#ffffff" stroke="none" d="M 656.759521484375 883.5 C 656.759521484375 878.8055792 660.565100684375 875 665.259521484375 875 C 669.953942284375 875 673.759521484375 878.8055792 673.759521484375 883.5 C 673.759521484375 888.1944208 669.953942284375 892 665.259521484375 892 C 660.565100684375 892 656.759521484375 888.1944208 656.759521484375 883.5 Z"/></g><g transform="translate(-62,-62) scale(1,1)"><path fill="none" stroke="#000000" d="M 656.759521484375 883.5 C 656.759521484375 878.8055792 660.565100684375 875 665.259521484375 875 C 669.953942284375 875 673.759521484375 878.8055792 673.759521484375 883.5 C 673.759521484375 888.1944208 669.953942284375 892 665.259521484375 892 C 660.565100684375 892 656.759521484375 888.1944208 656.759521484375 883.5 Z" stroke-miterlimit="10"/></g><g transform="translate(-62,-62) scale(1,1)"><g><path fill="none" stroke="none"/><text fill="#000000" stroke="none" font-family="Arial" font-size="13px" font-style="normal" font-weight="bold" text-decoration="none" x="620.825927734375" y="914.5">municipalityAPI</text></g></g><g transform="translate(-62,-62) scale(1,1)"><path fill="none" stroke="#000000" d="M 665 1032 L 665 895" stroke-miterlimit="10"/></g><g transform="translate(-62,-62) scale(1,1)"><path fill="none" stroke="#000000" d="M 808 1032 L 808 895" stroke-miterlimit="10"/></g><g transform="translate(-62,-62) scale(1,1)"><path fill="#C0C0C0" stroke="none" d="M 503 289 L 1124 289 L 1124 790 L 503 790" opacity="0.2"/></g><g transform="translate(-62,-62) scale(1,1)"><path fill="#C0C0C0" stroke="none" d="M 503 289 L 513 279 L 1134 279 L 1124 289" opacity="0.2"/></g><g transform="translate(-62,-62) scale(1,1)"><path fill="#C0C0C0" stroke="none" d="M 1134 279 L 1124 289 L 1124 790 L 1134 780" opacity="0.2"/></g><g transform="translate(-62,-62) scale(1,1)"><rect fill="#ffffff" stroke="none" x="496" y="272" width="632" height="512"/></g><g transform="translate(-62,-62) scale(1,1)"><path fill="none" stroke="#000000" d="M 496 272 L 1128 272 L 1128 784 L 496 784 L 496 272 Z Z" stroke-miterlimit="10"/></g><g transform="translate(-62,-62) scale(1,1)"><rect fill="#ffffff" stroke="none" x="496" y="272" width="632" height="512"/></g><g transform="translate(-62,-62) scale(1,1)"><path fill="none" stroke="#000000" d="M 496 272 L 1128 272 L 1128 784 L 496 784 L 496 272 Z Z" stroke-miterlimit="10"/></g><g transform="translate(-62,-62) scale(1,1)"><path fill="none" stroke="#000000" d="M 1102 287 L 1118 287 L 1118 297 L 1102 297 L 1102 287 Z Z" stroke-miterlimit="10"/></g><g transform="translate(-62,-62) scale(1,1)"><path fill="none" stroke="#000000" d="M 1102 287 L 1107 282 L 1123 282 L 1118 287 L 1102 287" stroke-miterlimit="10"/></g><g transform="translate(-62,-62) scale(1,1)"><path fill="none" stroke="#000000" d="M 1118 287 L 1123 282 L 1123 292 L 1118 297 L 1118 287" stroke-miterlimit="10"/></g><g transform="translate(-62,-62) scale(1,1)"><g><path fill="none" stroke="none"/><text fill="#000000" stroke="none" font-family="Arial" font-size="13px" font-style="normal" font-weight="bold" text-decoration="none" x="749.056884765625" y="291.5">ApplicationServer</text></g></g><g transform="translate(-62,-62) scale(1,1)"><rect fill="#C0C0C0" stroke="none" x="593" y="519" width="158" height="44" opacity="0.2"/></g><g transform="translate(-62,-62) scale(1,1)"><rect fill="#ffffff" stroke="none" x="576" y="512" width="168" height="44"/></g><g transform="translate(-62,-62) scale(1,1)"><path fill="none" stroke="#000000" d="M 576 512 L 744 512 L 744 556 L 576 556 L 576 512 Z Z" stroke-miterlimit="10"/></g><g transform="translate(-62,-62) scale(1,1)"><rect fill="#ffffff" stroke="none" x="576" y="512" width="168" height="44"/></g><g transform="translate(-62,-62) scale(1,1)"><path fill="none" stroke="#000000" d="M 576 512 L 744 512 L 744 556 L 576 556 L 576 512 Z Z" stroke-miterlimit="10"/></g><g transform="translate(-62,-62) scale(1,1)"><rect fill="#ffffff" stroke="none" x="724" y="522" width="13" height="16"/></g><g transform="translate(-62,-62) scale(1,1)"><path fill="none" stroke="#000000" d="M 724 522 L 737 522 L 737 538 L 724 538 L 724 522 Z Z" stroke-miterlimit="10"/></g><g transform="translate(-62,-62) scale(1,1)"><rect fill="#ffffff" stroke="none" x="721" y="525" width="7" height="4"/></g><g transform="translate(-62,-62) scale(1,1)"><path fill="none" stroke="#000000" d="M 721 525 L 728 525 L 728 529 L 721 529 L 721 525 Z Z" stroke-miterlimit="10"/></g><g transform="translate(-62,-62) scale(1,1)"><rect fill="#ffffff" stroke="none" x="721" y="531" width="7" height="4"/></g><g transform="translate(-62,-62) scale(1,1)"><path fill="none" stroke="#000000" d="M 721 531 L 728 531 L 728 535 L 721 535 L 721 531 Z Z" stroke-miterlimit="10"/></g><g transform="translate(-62,-62) scale(1,1)"><g><path fill="none" stroke="none"/><text fill="#000000" stroke="none" font-family="Arial" font-size="13px" font-style="normal" font-weight="bold" text-decoration="none" x="628.490478515625" y="531.5">Router</text></g></g><g transform="translate(-62,-62) scale(1,1)"><rect fill="#C0C0C0" stroke="none" x="593" y="663" width="158" height="44" opacity="0.2"/></g><g transform="translate(-62,-62) scale(1,1)"><rect fill="#ffffff" stroke="none" x="576" y="656" width="168" height="44"/></g><g transform="translate(-62,-62) scale(1,1)"><path fill="none" stroke="#000000" d="M 576 656 L 744 656 L 744 700 L 576 700 L 576 656 Z Z" stroke-miterlimit="10"/></g><g transform="translate(-62,-62) scale(1,1)"><rect fill="#ffffff" stroke="none" x="576" y="656" width="168" height="44"/></g><g transform="translate(-62,-62) scale(1,1)"><path fill="none" stroke="#000000" d="M 576 656 L 744 656 L 744 700 L 576 700 L 576 656 Z Z" stroke-miterlimit="10"/></g><g transform="translate(-62,-62) scale(1,1)"><rect fill="#ffffff" stroke="none" x="724" y="666" width="13" height="16"/></g><g transform="translate(-62,-62) scale(1,1)"><path fill="none" stroke="#000000" d="M 724 666 L 737 666 L 737 682 L 724 682 L 724 666 Z Z" stroke-miterlimit="10"/></g><g transform="translate(-62,-62) scale(1,1)"><rect fill="#ffffff" stroke="none" x="721" y="669" width="7" height="4"/></g><g transform="translate(-62,-62) scale(1,1)"><path fill="none" stroke="#000000" d="M 721 669 L 728 669 L 728 673 L 721 673 L 721 669 Z Z" stroke-miterlimit="10"/></g><g transform="translate(-62,-62) scale(1,1)"><rect fill="#ffffff" stroke="none" x="721" y="675" width="7" height="4"/></g><g transform="translate(-62,-62) scale(1,1)"><path fill="none" stroke="#000000" d="M 721 675 L 728 675 L 728 679 L 721 679 L 721 675 Z Z" stroke-miterlimit="10"/></g><g transform="translate(-62,-62) scale(1,1)"><g><path fill="none" stroke="none"/><text fill="#000000" stroke="none" font-family="Arial" font-size="13px" font-style="normal" font-weight="bold" text-decoration="none" x="608.622314453125" y="675.5">UserManager</text></g></g><g transform="translate(-62,-62) scale(1,1)"><rect fill="#C0C0C0" stroke="none" x="881" y="663" width="158" height="44" opacity="0.2"/></g><g transform="translate(-62,-62) scale(1,1)"><rect fill="#ffffff" stroke="none" x="864" y="656" width="168" height="44"/></g><g transform="translate(-62,-62) scale(1,1)"><path fill="none" stroke="#000000" d="M 864 656 L 1032 656 L 1032 700 L 864 700 L 864 656 Z Z" stroke-miterlimit="10"/></g><g transform="translate(-62,-62) scale(1,1)"><rect fill="#ffffff" stroke="none" x="864" y="656" width="168" height="44"/></g><g transform="translate(-62,-62) scale(1,1)"><path fill="none" stroke="#000000" d="M 864 656 L 1032 656 L 1032 700 L 864 700 L 864 656 Z Z" stroke-miterlimit="10"/></g><g transform="translate(-62,-62) scale(1,1)"><rect fill="#ffffff" stroke="none" x="1012" y="666" width="13" height="16"/></g><g transform="translate(-62,-62) scale(1,1)"><path fill="none" stroke="#000000" d="M 1012 666 L 1025 666 L 1025 682 L 1012 682 L 1012 666 Z Z" stroke-miterlimit="10"/></g><g transform="translate(-62,-62) scale(1,1)"><rect fill="#ffffff" stroke="none" x="1009" y="669" width="7" height="4"/></g><g transform="translate(-62,-62) scale(1,1)"><path fill="none" stroke="#000000" d="M 1009 669 L 1016 669 L 1016 673 L 1009 673 L 1009 669 Z Z" stroke-miterlimit="10"/></g><g transform="translate(-62,-62) scale(1,1)"><rect fill="#ffffff" stroke="none" x="1009" y="675" width="7" height="4"/></g><g transform="translate(-62,-62) scale(1,1)"><path fill="none" stroke="#000000" d="M 1009 675 L 1016 675 L 1016 679 L 1009 679 L 1009 675 Z Z" stroke-miterlimit="10"/></g><g transform="translate(-62,-62) scale(1,1)"><g><path fill="none" stroke="none"/><text fill="#000000" stroke="none" font-family="Arial" font-size="13px" font-style="normal" font-weight="bold" text-decoration="none" x="899.869140625" y="675.5">SafeReports</text></g></g><g transform="translate(-62,-62) scale(1,1)"><rect fill="#C0C0C0" stroke="none" x="881" y="519" width="158" height="44" opacity="0.2"/></g><g transform="translate(-62,-62) scale(1,1)"><rect fill="#ffffff" stroke="none" x="864" y="512" width="168" height="44"/></g><g transform="translate(-62,-62) scale(1,1)"><path fill="none" stroke="#000000" d="M 864 512 L 1032 512 L 1032 556 L 864 556 L 864 512 Z Z" stroke-miterlimit="10"/></g><g transform="translate(-62,-62) scale(1,1)"><rect fill="#ffffff" stroke="none" x="864" y="512" width="168" height="44"/></g><g transform="translate(-62,-62) scale(1,1)"><path fill="none" stroke="#000000" d="M 864 512 L 1032 512 L 1032 556 L 864 556 L 864 512 Z Z" stroke-miterlimit="10"/></g><g transform="translate(-62,-62) scale(1,1)"><rect fill="#ffffff" stroke="none" x="1012" y="522" width="13" height="16"/></g><g transform="translate(-62,-62) scale(1,1)"><path fill="none" stroke="#000000" d="M 1012 522 L 1025 522 L 1025 538 L 1012 538 L 1012 522 Z Z" stroke-miterlimit="10"/></g><g transform="translate(-62,-62) scale(1,1)"><rect fill="#ffffff" stroke="none" x="1009" y="525" width="7" height="4"/></g><g transform="translate(-62,-62) scale(1,1)"><path fill="none" stroke="#000000" d="M 1009 525 L 1016 525 L 1016 529 L 1009 529 L 1009 525 Z Z" stroke-miterlimit="10"/></g><g transform="translate(-62,-62) scale(1,1)"><rect fill="#ffffff" stroke="none" x="1009" y="531" width="7" height="4"/></g><g transform="translate(-62,-62) scale(1,1)"><path fill="none" stroke="#000000" d="M 1009 531 L 1016 531 L 1016 535 L 1009 535 L 1009 531 Z Z" stroke-miterlimit="10"/></g><g transform="translate(-62,-62) scale(1,1)"><g><path fill="none" stroke="none"/><text fill="#000000" stroke="none" font-family="Arial" font-size="13px" font-style="normal" font-weight="bold" text-decoration="none" x="896.619140625" y="531.5">SafeAnalytics</text></g></g><g transform="translate(-62,-62) scale(1,1)"><rect fill="#C0C0C0" stroke="none" x="873" y="375" width="158" height="44" opacity="0.2"/></g><g transform="translate(-62,-62) scale(1,1)"><rect fill="#ffffff" stroke="none" x="856" y="368" width="168" height="44"/></g><g transform="translate(-62,-62) scale(1,1)"><path fill="none" stroke="#000000" d="M 856 368 L 1024 368 L 1024 412 L 856 412 L 856 368 Z Z" stroke-miterlimit="10"/></g><g transform="translate(-62,-62) scale(1,1)"><rect fill="#ffffff" stroke="none" x="856" y="368" width="168" height="44"/></g><g transform="translate(-62,-62) scale(1,1)"><path fill="none" stroke="#000000" d="M 856 368 L 1024 368 L 1024 412 L 856 412 L 856 368 Z Z" stroke-miterlimit="10"/></g><g transform="translate(-62,-62) scale(1,1)"><rect fill="#ffffff" stroke="none" x="1004" y="378" width="13" height="16"/></g><g transform="translate(-62,-62) scale(1,1)"><path fill="none" stroke="#000000" d="M 1004 378 L 1017 378 L 1017 394 L 1004 394 L 1004 378 Z Z" stroke-miterlimit="10"/></g><g transform="translate(-62,-62) scale(1,1)"><rect fill="#ffffff" stroke="none" x="1001" y="381" width="7" height="4"/></g><g transform="translate(-62,-62) scale(1,1)"><path fill="none" stroke="#000000" d="M 1001 381 L 1008 381 L 1008 385 L 1001 385 L 1001 381 Z Z" stroke-miterlimit="10"/></g><g transform="translate(-62,-62) scale(1,1)"><rect fill="#ffffff" stroke="none" x="1001" y="387" width="7" height="4"/></g><g transform="translate(-62,-62) scale(1,1)"><path fill="none" stroke="#000000" d="M 1001 387 L 1008 387 L 1008 391 L 1001 391 L 1001 387 Z Z" stroke-miterlimit="10"/></g><g transform="translate(-62,-62) scale(1,1)"><g><path fill="none" stroke="none"/><text fill="#000000" stroke="none" font-family="Arial" font-size="13px" font-style="normal" font-weight="bold" text-decoration="none" x="894.284423828125" y="387.5">SafeTickets</text></g></g><g transform="translate(-62,-62) scale(1,1)"><rect fill="#C0C0C0" stroke="none" x="593" y="375" width="157.236328125" height="44" opacity="0.2"/></g><g transform="translate(-62,-62) scale(1,1)"><rect fill="#ffffff" stroke="none" x="576" y="368" width="167.236328125" height="44"/></g><g transform="translate(-62,-62) scale(1,1)"><path fill="none" stroke="#000000" d="M 576 368 L 743.236328125 368 L 743.236328125 412 L 576 412 L 576 368 Z Z" stroke-miterlimit="10"/></g><g transform="translate(-62,-62) scale(1,1)"><rect fill="#ffffff" stroke="none" x="576" y="368" width="167.236328125" height="44"/></g><g transform="translate(-62,-62) scale(1,1)"><path fill="none" stroke="#000000" d="M 576 368 L 743.236328125 368 L 743.236328125 412 L 576 412 L 576 368 Z Z" stroke-miterlimit="10"/></g><g transform="translate(-62,-62) scale(1,1)"><rect fill="#ffffff" stroke="none" x="723.236328125" y="378" width="13" height="16"/></g><g transform="translate(-62,-62) scale(1,1)"><path fill="none" stroke="#000000" d="M 723.236328125 378 L 736.236328125 378 L 736.236328125 394 L 723.236328125 394 L 723.236328125 378 Z Z" stroke-miterlimit="10"/></g><g transform="translate(-62,-62) scale(1,1)"><rect fill="#ffffff" stroke="none" x="720.236328125" y="381" width="7" height="4"/></g><g transform="translate(-62,-62) scale(1,1)"><path fill="none" stroke="#000000" d="M 720.236328125 381 L 727.236328125 381 L 727.236328125 385 L 720.236328125 385 L 720.236328125 381 Z Z" stroke-miterlimit="10"/></g><g transform="translate(-62,-62) scale(1,1)"><rect fill="#ffffff" stroke="none" x="720.236328125" y="387" width="7" height="4"/></g><g transform="translate(-62,-62) scale(1,1)"><path fill="none" stroke="#000000" d="M 720.236328125 387 L 727.236328125 387 L 727.236328125 391 L 720.236328125 391 L 720.236328125 387 Z Z" stroke-miterlimit="10"/></g><g transform="translate(-62,-62) scale(1,1)"><g><path fill="none" stroke="none"/><text fill="#000000" stroke="none" font-family="Arial" font-size="13px" font-style="normal" font-weight="bold" text-decoration="none" x="598.471435546875" y="387.5">SafeSuggestions</text></g></g><g transform="translate(-62,-62) scale(1,1)"><path fill="none" stroke="#ff0000" d="M 224 512 L 224 224 L 804 224 L 804 183" stroke-miterlimit="10"/></g><g transform="translate(-62,-62) scale(1,1)"><path fill="#C0C0C0" stroke="none" d="M 388.174072265625 542.5 C 388.174072265625 533.9395856 395.113657865625 527 403.674072265625 527 C 412.234486665625 527 419.174072265625 533.9395856 419.174072265625 542.5 C 419.174072265625 551.0604144 412.234486665625 558 403.674072265625 558 C 395.113657865625 558 388.174072265625 551.0604144 388.174072265625 542.5 Z" opacity="0.2"/></g><g transform="translate(-62,-62) scale(1,1)"><path fill="none" stroke="#000000" d="M 396 550.5 A 15.5 15.5 0 0 1 396 519.5" stroke-miterlimit="10"/></g><g transform="translate(-62,-62) scale(1,1)"><path fill="#ffffff" stroke="none" d="M 384.174072265625 535.5 C 384.174072265625 528.59644 389.770512265625 523 396.674072265625 523 C 403.577632265625 523 409.174072265625 528.59644 409.174072265625 535.5 C 409.174072265625 542.40356 403.577632265625 548 396.674072265625 548 C 389.770512265625 548 384.174072265625 542.40356 384.174072265625 535.5 Z"/></g><g transform="translate(-62,-62) scale(1,1)"><path fill="none" stroke="#000000" d="M 384.174072265625 535.5 C 384.174072265625 528.59644 389.770512265625 523 396.674072265625 523 C 403.577632265625 523 409.174072265625 528.59644 409.174072265625 535.5 C 409.174072265625 542.40356 403.577632265625 548 396.674072265625 548 C 389.770512265625 548 384.174072265625 542.40356 384.174072265625 535.5 Z" stroke-miterlimit="10"/></g><g transform="translate(-62,-62) scale(1,1)"><g><path fill="none" stroke="none"/><text fill="#000000" stroke="none" font-family="Arial" font-size="13px" font-style="normal" font-weight="bold" text-decoration="none" x="324.04736328125" y="570.5">applicationFunctionalities</text></g></g><g transform="translate(-62,-62) scale(1,1)"><path fill="none" stroke="#000000" d="M 576 535 L 412.174072265625 535" stroke-miterlimit="10"/></g><g transform="translate(-62,-62) scale(1,1)"><path fill="none" stroke="#000000" d="M 255 535 L 381.174072265625 535" stroke-miterlimit="10"/></g><g transform="translate(-62,-62) scale(1,1)"><path fill="none" stroke="#ff0000" d="M 743 384 L 804 384 L 804 183" stroke-miterlimit="10"/></g><g transform="translate(-62,-62) scale(1,1)"><path fill="none" stroke="#ff0000" d="M 856 384 L 804 384 L 804 183" stroke-miterlimit="10"/></g><g transform="translate(-62,-62) scale(1,1)"><path fill="none" stroke="#ff0000" d="M 864 512 L 804 512 L 804 183" stroke-miterlimit="10"/></g><g transform="translate(-62,-62) scale(1,1)"><path fill="none" stroke="#000000" d="M 1032 535 L 1236.200439453125 535" stroke-miterlimit="10"/></g><g transform="translate(-62,-62) scale(1,1)"><path fill="none" stroke="#000000" d="M 1024 392 L 1072 392 L 1072 535 L 1236.200439453125 535" stroke-miterlimit="10"/></g><g transform="translate(-62,-62) scale(1,1)"><path fill="none" stroke="#000000" d="M 1032 680 L 1072 680 L 1072 535 L 1236.200439453125 535" stroke-miterlimit="10"/></g><g transform="translate(-62,-62) scale(1,1)"><path fill="none" stroke="#000000" d="M 712 700 L 712 728 L 1072 728 L 1072 535 L 1236.200439453125 535" stroke-miterlimit="10"/></g><g transform="translate(-62,-62) scale(1,1)"><path fill="none" stroke="#000000" d="M 688 368 L 688 344 L 1072 344 L 1072 535 L 1236.200439453125 535" stroke-miterlimit="10"/></g><g transform="translate(-62,-62) scale(1,1)"><path fill="none" stroke="#00ff00" d="M 976 700 L 976 832 L 1024 832 L 1024 872" stroke-miterlimit="10"/></g><g transform="translate(-62,-62) scale(1,1)"><path fill="none" stroke="#00ff00" d="M 864 680 L 808 680 L 808 872" stroke-miterlimit="10"/></g><g transform="translate(-62,-62) scale(1,1)"><path fill="none" stroke="#00ff00" d="M 632 412 L 632 432 L 544 432 L 544 832 L 664 832 L 664 872" stroke-miterlimit="10"/></g><g transform="translate(-62,-62) scale(1,1)"><path fill="#C0C0C0" stroke="none" d="M 654.483154296875 458.5 C 654.483154296875 452.1487248 659.631879096875 447 665.983154296875 447 C 672.334429496875 447 677.483154296875 452.1487248 677.483154296875 458.5 C 677.483154296875 464.8512752 672.334429496875 470 665.983154296875 470 C 659.631879096875 470 654.483154296875 464.8512752 654.483154296875 458.5 Z" opacity="0.2"/></g><g transform="translate(-62,-62) scale(1,1)"><path fill="none" stroke="#000000" d="M 669.5 451 A 11.5 11.5 0 0 1 646.5 451" stroke-miterlimit="10"/></g><g transform="translate(-62,-62) scale(1,1)"><path fill="#ffffff" stroke="none" d="M 650.483154296875 451.5 C 650.483154296875 446.8055792 654.288733496875 443 658.983154296875 443 C 663.677575096875 443 667.483154296875 446.8055792 667.483154296875 451.5 C 667.483154296875 456.1944208 663.677575096875 460 658.983154296875 460 C 654.288733496875 460 650.483154296875 456.1944208 650.483154296875 451.5 Z"/></g><g transform="translate(-62,-62) scale(1,1)"><path fill="none" stroke="#000000" d="M 650.483154296875 451.5 C 650.483154296875 446.8055792 654.288733496875 443 658.983154296875 443 C 663.677575096875 443 667.483154296875 446.8055792 667.483154296875 451.5 C 667.483154296875 456.1944208 663.677575096875 460 658.983154296875 460 C 654.288733496875 460 650.483154296875 456.1944208 650.483154296875 451.5 Z" stroke-miterlimit="10"/></g><g transform="translate(-62,-62) scale(1,1)"><g><path fill="none" stroke="none"/><text fill="#000000" stroke="none" font-family="Arial" font-size="13px" font-style="normal" font-weight="bold" text-decoration="none" x="602.96826171875" y="482.5">manageSuggestion</text></g></g><g transform="translate(-62,-62) scale(1,1)"><path fill="none" stroke="#000000" d="M 659 412 L 659 440" stroke-miterlimit="10"/></g><g transform="translate(-62,-62) scale(1,1)"><path fill="#C0C0C0" stroke="none" d="M 891.23388671875 458.5 C 891.23388671875 452.1487248 896.38261151875 447 902.73388671875 447 C 909.08516191875 447 914.23388671875 452.1487248 914.23388671875 458.5 C 914.23388671875 464.8512752 909.08516191875 470 902.73388671875 470 C 896.38261151875 470 891.23388671875 464.8512752 891.23388671875 458.5 Z" opacity="0.2"/></g><g transform="translate(-62,-62) scale(1,1)"><path fill="none" stroke="#000000" d="M 895 462.5 A 11.5 11.5 0 0 1 895 439.5" stroke-miterlimit="10"/></g><g transform="translate(-62,-62) scale(1,1)"><path fill="#ffffff" stroke="none" d="M 887.23388671875 451.5 C 887.23388671875 446.8055792 891.03946591875 443 895.73388671875 443 C 900.42830751875 443 904.23388671875 446.8055792 904.23388671875 451.5 C 904.23388671875 456.1944208 900.42830751875 460 895.73388671875 460 C 891.03946591875 460 887.23388671875 456.1944208 887.23388671875 451.5 Z"/></g><g transform="translate(-62,-62) scale(1,1)"><path fill="none" stroke="#000000" d="M 887.23388671875 451.5 C 887.23388671875 446.8055792 891.03946591875 443 895.73388671875 443 C 900.42830751875 443 904.23388671875 446.8055792 904.23388671875 451.5 C 904.23388671875 456.1944208 900.42830751875 460 895.73388671875 460 C 891.03946591875 460 887.23388671875 456.1944208 887.23388671875 451.5 Z" stroke-miterlimit="10"/></g><g transform="translate(-62,-62) scale(1,1)"><g><path fill="none" stroke="none"/><text fill="#000000" stroke="none" font-family="Arial" font-size="13px" font-style="normal" font-weight="bold" text-decoration="none" x="855.150146484375" y="482.5">manageTicket</text></g></g><g transform="translate(-62,-62) scale(1,1)"><path fill="#C0C0C0" stroke="none" d="M 801.851318359375 562.5 C 801.851318359375 556.1487248 807.000043159375 551 813.351318359375 551 C 819.702593559375 551 824.851318359375 556.1487248 824.851318359375 562.5 C 824.851318359375 568.8512752 819.702593559375 574 813.351318359375 574 C 807.000043159375 574 801.851318359375 568.8512752 801.851318359375 562.5 Z" opacity="0.2"/></g><g transform="translate(-62,-62) scale(1,1)"><path fill="none" stroke="#000000" d="M 806 566.5 A 11.5 11.5 0 0 1 806 543.5" stroke-miterlimit="10"/></g><g transform="translate(-62,-62) scale(1,1)"><path fill="#ffffff" stroke="none" d="M 797.851318359375 555.5 C 797.851318359375 550.8055792 801.656897559375 547 806.351318359375 547 C 811.045739159375 547 814.851318359375 550.8055792 814.851318359375 555.5 C 814.851318359375 560.1944208 811.045739159375 564 806.351318359375 564 C 801.656897559375 564 797.851318359375 560.1944208 797.851318359375 555.5 Z"/></g><g transform="translate(-62,-62) scale(1,1)"><path fill="none" stroke="#000000" d="M 797.851318359375 555.5 C 797.851318359375 550.8055792 801.656897559375 547 806.351318359375 547 C 811.045739159375 547 814.851318359375 550.8055792 814.851318359375 555.5 C 814.851318359375 560.1944208 811.045739159375 564 806.351318359375 564 C 801.656897559375 564 797.851318359375 560.1944208 797.851318359375 555.5 Z" stroke-miterlimit="10"/></g><g transform="translate(-62,-62) scale(1,1)"><g><path fill="none" stroke="none"/><text fill="#000000" stroke="none" font-family="Arial" font-size="13px" font-style="normal" font-weight="bold" text-decoration="none" x="760.102294921875" y="586.5">manageAnalytic</text></g></g><g transform="translate(-62,-62) scale(1,1)"><path fill="#C0C0C0" stroke="none" d="M 893.509521484375 618.5 C 893.509521484375 612.1487248 898.658246284375 607 905.009521484375 607 C 911.360796684375 607 916.509521484375 612.1487248 916.509521484375 618.5 C 916.509521484375 624.8512752 911.360796684375 630 905.009521484375 630 C 898.658246284375 630 893.509521484375 624.8512752 893.509521484375 618.5 Z" opacity="0.2"/></g><g transform="translate(-62,-62) scale(1,1)"><path fill="none" stroke="#000000" d="M 898 622.5 A 11.5 11.5 0 0 1 898 599.5" stroke-miterlimit="10"/></g><g transform="translate(-62,-62) scale(1,1)"><path fill="#ffffff" stroke="none" d="M 889.509521484375 611.5 C 889.509521484375 606.8055792 893.315100684375 603 898.009521484375 603 C 902.703942284375 603 906.509521484375 606.8055792 906.509521484375 611.5 C 906.509521484375 616.1944208 902.703942284375 620 898.009521484375 620 C 893.315100684375 620 889.509521484375 616.1944208 889.509521484375 611.5 Z"/></g><g transform="translate(-62,-62) scale(1,1)"><path fill="none" stroke="#000000" d="M 889.509521484375 611.5 C 889.509521484375 606.8055792 893.315100684375 603 898.009521484375 603 C 902.703942284375 603 906.509521484375 606.8055792 906.509521484375 611.5 C 906.509521484375 616.1944208 902.703942284375 620 898.009521484375 620 C 893.315100684375 620 889.509521484375 616.1944208 889.509521484375 611.5 Z" stroke-miterlimit="10"/></g><g transform="translate(-62,-62) scale(1,1)"><g><path fill="none" stroke="none"/><text fill="#000000" stroke="none" font-family="Arial" font-size="13px" font-style="normal" font-weight="bold" text-decoration="none" x="855.010498046875" y="642.5">manageReport</text></g></g><g transform="translate(-62,-62) scale(1,1)"><path fill="#C0C0C0" stroke="none" d="M 655.01904296875 610.5 C 655.01904296875 604.1487248 660.16776776875 599 666.51904296875 599 C 672.87031816875 599 678.01904296875 604.1487248 678.01904296875 610.5 C 678.01904296875 616.8512752 672.87031816875 622 666.51904296875 622 C 660.16776776875 622 655.01904296875 616.8512752 655.01904296875 610.5 Z" opacity="0.2"/></g><g transform="translate(-62,-62) scale(1,1)"><path fill="none" stroke="#000000" d="M 647.5472281256214 601.9588389205111 A 11.5 11.5 0 0 1 670.4527718743786 604.0411610794889" stroke-miterlimit="10"/></g><g transform="translate(-62,-62) scale(1,1)"><path fill="#ffffff" stroke="none" d="M 651.01904296875 603.5 C 651.01904296875 598.8055792 654.82462216875 595 659.51904296875 595 C 664.21346376875 595 668.01904296875 598.8055792 668.01904296875 603.5 C 668.01904296875 608.1944208 664.21346376875 612 659.51904296875 612 C 654.82462216875 612 651.01904296875 608.1944208 651.01904296875 603.5 Z"/></g><g transform="translate(-62,-62) scale(1,1)"><path fill="none" stroke="#000000" d="M 651.01904296875 603.5 C 651.01904296875 598.8055792 654.82462216875 595 659.51904296875 595 C 664.21346376875 595 668.01904296875 598.8055792 668.01904296875 603.5 C 668.01904296875 608.1944208 664.21346376875 612 659.51904296875 612 C 654.82462216875 612 651.01904296875 608.1944208 651.01904296875 603.5 Z" stroke-miterlimit="10"/></g><g transform="translate(-62,-62) scale(1,1)"><g><path fill="none" stroke="none"/><text fill="#000000" stroke="none" font-family="Arial" font-size="13px" font-style="normal" font-weight="bold" text-decoration="none" x="622.305908203125" y="634.5">manageUser</text></g></g><g transform="translate(-62,-62) scale(1,1)"><path fill="none" stroke="#000000" d="M 864 555 L 817.851318359375 555" stroke-miterlimit="10"/></g><g transform="translate(-62,-62) scale(1,1)"><path fill="none" stroke="#000000" d="M 952 412 L 952 451 L 907.23388671875 451" stroke-miterlimit="10"/></g><g transform="translate(-62,-62) scale(1,1)"><path fill="none" stroke="#000000" d="M 984 656 L 984 611 L 909.509521484375 611" stroke-miterlimit="10"/></g><g transform="translate(-62,-62) scale(1,1)"><path fill="none" stroke="#000000" d="M 659 656 L 659 615" stroke-miterlimit="10"/></g><g transform="translate(-62,-62) scale(1,1)"><path fill="none" stroke="#000000" d="M 658 512 L 658 463" stroke-miterlimit="10"/></g><g transform="translate(-62,-62) scale(1,1)"><path fill="none" stroke="#000000" d="M 736 512 L 736 451 L 884.23388671875 451" stroke-miterlimit="10"/></g><g transform="translate(-62,-62) scale(1,1)"><path fill="none" stroke="#000000" d="M 744 555 L 794.851318359375 555" stroke-miterlimit="10"/></g><g transform="translate(-62,-62) scale(1,1)"><path fill="none" stroke="#000000" d="M 721 556 L 721 611 L 886.509521484375 611" stroke-miterlimit="10"/></g><g transform="translate(-62,-62) scale(1,1)"><path fill="none" stroke="#000000" d="M 660 556 L 660 592" stroke-miterlimit="10"/></g></svg>