<svg version="1.1" xmlns="http://www.w3.org/2000/svg" xmlns:xlink="http://www.w3.org/1999/xlink" width="768.44091796875" height="308"><defs/><g transform="translate(-22,-14) scale(1,1)"><rect fill="#C0C0C0" stroke="none" x="49" y="247" width="98.44091796875" height="44" opacity="0.2"/></g><g transform="translate(-22,-14) scale(1,1)"><rect fill="#ffffff" stroke="none" x="32" y="240" width="108.44091796875" height="44"/></g><g transform="translate(-22,-14) scale(1,1)"><path fill="none" stroke="#000000" d="M 32 240 L 140.44091796875 240 L 140.44091796875 284 L 32 284 L 32 240 Z Z" stroke-miterlimit="10"/></g><g transform="translate(-22,-14) scale(1,1)"><rect fill="#ffffff" stroke="none" x="32" y="240" width="108.44091796875" height="44"/></g><g transform="translate(-22,-14) scale(1,1)"><path fill="none" stroke="#000000" d="M 32 240 L 140.44091796875 240 L 140.44091796875 284 L 32 284 L 32 240 Z Z" stroke-miterlimit="10"/></g><g transform="translate(-22,-14) scale(1,1)"><rect fill="#ffffff" stroke="none" x="120.44091796875" y="250" width="13" height="16"/></g><g transform="translate(-22,-14) scale(1,1)"><path fill="none" stroke="#000000" d="M 120.44091796875 250 L 133.44091796875 250 L 133.44091796875 266 L 120.44091796875 266 L 120.44091796875 250 Z Z" stroke-miterlimit="10"/></g><g transform="translate(-22,-14) scale(1,1)"><rect fill="#ffffff" stroke="none" x="117.44091796875" y="253" width="7" height="4"/></g><g transform="translate(-22,-14) scale(1,1)"><path fill="none" stroke="#000000" d="M 117.44091796875 253 L 124.44091796875 253 L 124.44091796875 257 L 117.44091796875 257 L 117.44091796875 253 Z Z" stroke-miterlimit="10"/></g><g transform="translate(-22,-14) scale(1,1)"><rect fill="#ffffff" stroke="none" x="117.44091796875" y="259" width="7" height="4"/></g><g transform="translate(-22,-14) scale(1,1)"><path fill="none" stroke="#000000" d="M 117.44091796875 259 L 124.44091796875 259 L 124.44091796875 263 L 117.44091796875 263 L 117.44091796875 259 Z Z" stroke-miterlimit="10"/></g><g transform="translate(-22,-14) scale(1,1)"><g><path fill="none" stroke="none"/><text fill="#000000" stroke="none" font-family="Arial" font-size="13px" font-style="normal" font-weight="bold" text-decoration="none" x="54.7109375" y="259.5">Router</text></g></g><g transform="translate(-22,-14) scale(1,1)"><rect fill="#C0C0C0" stroke="none" x="353" y="31" width="111.00634765625" height="44" opacity="0.2"/></g><g transform="translate(-22,-14) scale(1,1)"><rect fill="#ffffff" stroke="none" x="336" y="24" width="121.00634765625" height="44"/></g><g transform="translate(-22,-14) scale(1,1)"><path fill="none" stroke="#000000" d="M 336 24 L 457.00634765625 24 L 457.00634765625 68 L 336 68 L 336 24 Z Z" stroke-miterlimit="10"/></g><g transform="translate(-22,-14) scale(1,1)"><rect fill="#ffffff" stroke="none" x="336" y="24" width="121.00634765625" height="44"/></g><g transform="translate(-22,-14) scale(1,1)"><path fill="none" stroke="#000000" d="M 336 24 L 457.00634765625 24 L 457.00634765625 68 L 336 68 L 336 24 Z Z" stroke-miterlimit="10"/></g><g transform="translate(-22,-14) scale(1,1)"><rect fill="#ffffff" stroke="none" x="437.00634765625" y="34" width="13" height="16"/></g><g transform="translate(-22,-14) scale(1,1)"><path fill="none" stroke="#000000" d="M 437.00634765625 34 L 450.00634765625 34 L 450.00634765625 50 L 437.00634765625 50 L 437.00634765625 34 Z Z" stroke-miterlimit="10"/></g><g transform="translate(-22,-14) scale(1,1)"><rect fill="#ffffff" stroke="none" x="434.00634765625" y="37" width="7" height="4"/></g><g transform="translate(-22,-14) scale(1,1)"><path fill="none" stroke="#000000" d="M 434.00634765625 37 L 441.00634765625 37 L 441.00634765625 41 L 434.00634765625 41 L 434.00634765625 37 Z Z" stroke-miterlimit="10"/></g><g transform="translate(-22,-14) scale(1,1)"><rect fill="#ffffff" stroke="none" x="434.00634765625" y="43" width="7" height="4"/></g><g transform="translate(-22,-14) scale(1,1)"><path fill="none" stroke="#000000" d="M 434.00634765625 43 L 441.00634765625 43 L 441.00634765625 47 L 434.00634765625 47 L 434.00634765625 43 Z Z" stroke-miterlimit="10"/></g><g transform="translate(-22,-14) scale(1,1)"><g><path fill="none" stroke="none"/><text fill="#000000" stroke="none" font-family="Arial" font-size="13px" font-style="normal" font-weight="bold" text-decoration="none" x="347.648681640625" y="43.5">GoogleMaps</text></g></g><g transform="translate(-22,-14) scale(1,1)"><rect fill="#C0C0C0" stroke="none" x="689" y="247" width="98.44091796875" height="44" opacity="0.2"/></g><g transform="translate(-22,-14) scale(1,1)"><rect fill="#ffffff" stroke="none" x="672" y="240" width="108.44091796875" height="44"/></g><g transform="translate(-22,-14) scale(1,1)"><path fill="none" stroke="#000000" d="M 672 240 L 780.44091796875 240 L 780.44091796875 284 L 672 284 L 672 240 Z Z" stroke-miterlimit="10"/></g><g transform="translate(-22,-14) scale(1,1)"><rect fill="#ffffff" stroke="none" x="672" y="240" width="108.44091796875" height="44"/></g><g transform="translate(-22,-14) scale(1,1)"><path fill="none" stroke="#000000" d="M 672 240 L 780.44091796875 240 L 780.44091796875 284 L 672 284 L 672 240 Z Z" stroke-miterlimit="10"/></g><g transform="translate(-22,-14) scale(1,1)"><rect fill="#ffffff" stroke="none" x="760.44091796875" y="250" width="13" height="16"/></g><g transform="translate(-22,-14) scale(1,1)"><path fill="none" stroke="#000000" d="M 760.44091796875 250 L 773.44091796875 250 L 773.44091796875 266 L 760.44091796875 266 L 760.44091796875 250 Z Z" stroke-miterlimit="10"/></g><g transform="translate(-22,-14) scale(1,1)"><rect fill="#ffffff" stroke="none" x="757.44091796875" y="253" width="7" height="4"/></g><g transform="translate(-22,-14) scale(1,1)"><path fill="none" stroke="#000000" d="M 757.44091796875 253 L 764.44091796875 253 L 764.44091796875 257 L 757.44091796875 257 L 757.44091796875 253 Z Z" stroke-miterlimit="10"/></g><g transform="translate(-22,-14) scale(1,1)"><rect fill="#ffffff" stroke="none" x="757.44091796875" y="259" width="7" height="4"/></g><g transform="translate(-22,-14) scale(1,1)"><path fill="none" stroke="#000000" d="M 757.44091796875 259 L 764.44091796875 259 L 764.44091796875 263 L 757.44091796875 263 L 757.44091796875 259 Z Z" stroke-miterlimit="10"/></g><g transform="translate(-22,-14) scale(1,1)"><g><path fill="none" stroke="none"/><text fill="#000000" stroke="none" font-family="Arial" font-size="13px" font-style="normal" font-weight="bold" text-decoration="none" x="695.44091796875" y="259.5">DBMS</text></g></g><g transform="translate(-22,-14) scale(1,1)"><path fill="#C0C0C0" stroke="none" d="M 390.7099609375 130.5 C 390.7099609375 124.1487248 395.8586857375 119 402.2099609375 119 C 408.5612361375 119 413.7099609375 124.1487248 413.7099609375 130.5 C 413.7099609375 136.8512752 408.5612361375 142 402.2099609375 142 C 395.8586857375 142 390.7099609375 136.8512752 390.7099609375 130.5 Z" opacity="0.2"/></g><g transform="translate(-22,-14) scale(1,1)"><path fill="none" stroke="#000000" d="M 406.5 123 A 11.5 11.5 0 0 1 383.5 123" stroke-miterlimit="10"/></g><g transform="translate(-22,-14) scale(1,1)"><path fill="#ffffff" stroke="none" d="M 386.7099609375 123.5 C 386.7099609375 118.8055792 390.5155401375 115 395.2099609375 115 C 399.9043817375 115 403.7099609375 118.8055792 403.7099609375 123.5 C 403.7099609375 128.1944208 399.9043817375 132 395.2099609375 132 C 390.5155401375 132 386.7099609375 128.1944208 386.7099609375 123.5 Z"/></g><g transform="translate(-22,-14) scale(1,1)"><path fill="none" stroke="#000000" d="M 386.7099609375 123.5 C 386.7099609375 118.8055792 390.5155401375 115 395.2099609375 115 C 399.9043817375 115 403.7099609375 118.8055792 403.7099609375 123.5 C 403.7099609375 128.1944208 399.9043817375 132 395.2099609375 132 C 390.5155401375 132 386.7099609375 128.1944208 386.7099609375 123.5 Z" stroke-miterlimit="10"/></g><g transform="translate(-22,-14) scale(1,1)"><g><path fill="none" stroke="none"/><text fill="#000000" stroke="none" font-family="Arial" font-size="13px" font-style="normal" font-weight="bold" text-decoration="none" x="368.838623046875" y="154.5">mapsAPI</text></g></g><g transform="translate(-22,-14) scale(1,1)"><path fill="none" stroke="#000000" d="M 396 68 L 396 112" stroke-miterlimit="10"/></g><g transform="translate(-22,-14) scale(1,1)"><path fill="#C0C0C0" stroke="none" d="M 583.200439453125 274.5 C 583.200439453125 268.1487248 588.349164253125 263 594.700439453125 263 C 601.051714653125 263 606.200439453125 268.1487248 606.200439453125 274.5 C 606.200439453125 280.8512752 601.051714653125 286 594.700439453125 286 C 588.349164253125 286 583.200439453125 280.8512752 583.200439453125 274.5 Z" opacity="0.2"/></g><g transform="translate(-22,-14) scale(1,1)"><path fill="none" stroke="#000000" d="M 587 278.5 A 11.5 11.5 0 0 1 587 255.5" stroke-miterlimit="10"/></g><g transform="translate(-22,-14) scale(1,1)"><path fill="#ffffff" stroke="none" d="M 579.200439453125 267.5 C 579.200439453125 262.8055792 583.006018653125 259 587.700439453125 259 C 592.394860253125 259 596.200439453125 262.8055792 596.200439453125 267.5 C 596.200439453125 272.1944208 592.394860253125 276 587.700439453125 276 C 583.006018653125 276 579.200439453125 272.1944208 579.200439453125 267.5 Z"/></g><g transform="translate(-22,-14) scale(1,1)"><path fill="none" stroke="#000000" d="M 579.200439453125 267.5 C 579.200439453125 262.8055792 583.006018653125 259 587.700439453125 259 C 592.394860253125 259 596.200439453125 262.8055792 596.200439453125 267.5 C 596.200439453125 272.1944208 592.394860253125 276 587.700439453125 276 C 583.006018653125 276 579.200439453125 272.1944208 579.200439453125 267.5 Z" stroke-miterlimit="10"/></g><g transform="translate(-22,-14) scale(1,1)"><g><path fill="none" stroke="none"/><text fill="#000000" stroke="none" font-family="Arial" font-size="13px" font-style="normal" font-weight="bold" text-decoration="none" x="530.25732421875" y="298.5">dbmsFunctionalities</text></g></g><g transform="translate(-22,-14) scale(1,1)"><path fill="none" stroke="#000000" d="M 672 267 L 599.200439453125 267" stroke-miterlimit="10"/></g><g transform="translate(-22,-14) scale(1,1)"><rect fill="#C0C0C0" stroke="none" x="305" y="199" width="206" height="120" opacity="0.2"/></g><g transform="translate(-22,-14) scale(1,1)"><rect fill="#ffffff" stroke="none" x="288" y="192" width="216" height="120"/></g><g transform="translate(-22,-14) scale(1,1)"><path fill="none" stroke="#000000" d="M 288 192 L 504 192 L 504 312 L 288 312 L 288 192 Z Z" stroke-miterlimit="10"/></g><g transform="translate(-22,-14) scale(1,1)"><rect fill="#ffffff" stroke="none" x="288" y="192" width="216" height="120"/></g><g transform="translate(-22,-14) scale(1,1)"><path fill="none" stroke="#000000" d="M 288 192 L 504 192 L 504 312 L 288 312 L 288 192 Z Z" stroke-miterlimit="10"/></g><g transform="translate(-22,-14) scale(1,1)"><rect fill="#ffffff" stroke="none" x="484" y="202" width="13" height="16"/></g><g transform="translate(-22,-14) scale(1,1)"><path fill="none" stroke="#000000" d="M 484 202 L 497 202 L 497 218 L 484 218 L 484 202 Z Z" stroke-miterlimit="10"/></g><g transform="translate(-22,-14) scale(1,1)"><rect fill="#ffffff" stroke="none" x="481" y="205" width="7" height="4"/></g><g transform="translate(-22,-14) scale(1,1)"><path fill="none" stroke="#000000" d="M 481 205 L 488 205 L 488 209 L 481 209 L 481 205 Z Z" stroke-miterlimit="10"/></g><g transform="translate(-22,-14) scale(1,1)"><rect fill="#ffffff" stroke="none" x="481" y="211" width="7" height="4"/></g><g transform="translate(-22,-14) scale(1,1)"><path fill="none" stroke="#000000" d="M 481 211 L 488 211 L 488 215 L 481 215 L 481 211 Z Z" stroke-miterlimit="10"/></g><g transform="translate(-22,-14) scale(1,1)"><g><path fill="none" stroke="none"/><text fill="#000000" stroke="none" font-family="Arial" font-size="13px" font-style="normal" font-weight="bold" text-decoration="none" x="344.619140625" y="211.5">SafeAnalytics</text></g></g><g transform="translate(-22,-14) scale(1,1)"><rect fill="#C0C0C0" stroke="none" x="345" y="247" width="118.97265625" height="44" opacity="0.2"/></g><g transform="translate(-22,-14) scale(1,1)"><rect fill="#ffffff" stroke="none" x="328" y="240" width="128.97265625" height="44"/></g><g transform="translate(-22,-14) scale(1,1)"><path fill="none" stroke="#000000" d="M 328 240 L 456.97265625 240 L 456.97265625 284 L 328 284 L 328 240 Z Z" stroke-miterlimit="10"/></g><g transform="translate(-22,-14) scale(1,1)"><rect fill="#ffffff" stroke="none" x="328" y="240" width="128.97265625" height="44"/></g><g transform="translate(-22,-14) scale(1,1)"><path fill="none" stroke="#000000" d="M 328 240 L 456.97265625 240 L 456.97265625 284 L 328 284 L 328 240 Z Z" stroke-miterlimit="10"/></g><g transform="translate(-22,-14) scale(1,1)"><rect fill="#ffffff" stroke="none" x="436.97265625" y="250" width="13" height="16"/></g><g transform="translate(-22,-14) scale(1,1)"><path fill="none" stroke="#000000" d="M 436.97265625 250 L 449.97265625 250 L 449.97265625 266 L 436.97265625 266 L 436.97265625 250 Z Z" stroke-miterlimit="10"/></g><g transform="translate(-22,-14) scale(1,1)"><rect fill="#ffffff" stroke="none" x="433.97265625" y="253" width="7" height="4"/></g><g transform="translate(-22,-14) scale(1,1)"><path fill="none" stroke="#000000" d="M 433.97265625 253 L 440.97265625 253 L 440.97265625 257 L 433.97265625 257 L 433.97265625 253 Z Z" stroke-miterlimit="10"/></g><g transform="translate(-22,-14) scale(1,1)"><rect fill="#ffffff" stroke="none" x="433.97265625" y="259" width="7" height="4"/></g><g transform="translate(-22,-14) scale(1,1)"><path fill="none" stroke="#000000" d="M 433.97265625 259 L 440.97265625 259 L 440.97265625 263 L 433.97265625 263 L 433.97265625 259 Z Z" stroke-miterlimit="10"/></g><g transform="translate(-22,-14) scale(1,1)"><g><path fill="none" stroke="none"/><text fill="#000000" stroke="none" font-family="Arial" font-size="13px" font-style="normal" font-weight="bold" text-decoration="none" x="340.023193359375" y="259.5">QueryHandler</text></g></g><g transform="translate(-22,-14) scale(1,1)"><path fill="#C0C0C0" stroke="none" d="M 213.46630859375 274.5 C 213.46630859375 268.1487248 218.61503339375 263 224.96630859375 263 C 231.31758379375 263 236.46630859375 268.1487248 236.46630859375 274.5 C 236.46630859375 280.8512752 231.31758379375 286 224.96630859375 286 C 218.61503339375 286 213.46630859375 280.8512752 213.46630859375 274.5 Z" opacity="0.2"/></g><g transform="translate(-22,-14) scale(1,1)"><path fill="none" stroke="#000000" d="M 217 278.5 A 11.5 11.5 0 0 1 217 255.5" stroke-miterlimit="10"/></g><g transform="translate(-22,-14) scale(1,1)"><path fill="#ffffff" stroke="none" d="M 209.46630859375 267.5 C 209.46630859375 262.8055792 213.27188779375 259 217.96630859375 259 C 222.66072939375 259 226.46630859375 262.8055792 226.46630859375 267.5 C 226.46630859375 272.1944208 222.66072939375 276 217.96630859375 276 C 213.27188779375 276 209.46630859375 272.1944208 209.46630859375 267.5 Z"/></g><g transform="translate(-22,-14) scale(1,1)"><path fill="none" stroke="#000000" d="M 209.46630859375 267.5 C 209.46630859375 262.8055792 213.27188779375 259 217.96630859375 259 C 222.66072939375 259 226.46630859375 262.8055792 226.46630859375 267.5 C 226.46630859375 272.1944208 222.66072939375 276 217.96630859375 276 C 213.27188779375 276 209.46630859375 272.1944208 209.46630859375 267.5 Z" stroke-miterlimit="10"/></g><g transform="translate(-22,-14) scale(1,1)"><g><path fill="none" stroke="none"/><text fill="#000000" stroke="none" font-family="Arial" font-size="13px" font-style="normal" font-weight="bold" text-decoration="none" x="171.71728515625" y="298.5">manageAnalytic</text></g></g><g transform="translate(-22,-14) scale(1,1)"><path fill="none" stroke="#000000" d="M 328 267 L 229.46630859375 267" stroke-miterlimit="10"/></g><g transform="translate(-22,-14) scale(1,1)"><path fill="none" stroke="#000000" d="M 140 267 L 206.46630859375 267" stroke-miterlimit="10"/></g><g transform="translate(-22,-14) scale(1,1)"><path fill="none" stroke="#000000" d="M 395 240 L 395 135" stroke-miterlimit="10"/></g><g transform="translate(-22,-14) scale(1,1)"><path fill="none" stroke="#000000" d="M 457 267 L 576.200439453125 267" stroke-miterlimit="10"/></g></svg>