<svg version="1.1" xmlns="http://www.w3.org/2000/svg" xmlns:xlink="http://www.w3.org/1999/xlink" width="832.44091796875" height="432"><defs/><g transform="translate(-14,-14) scale(1,1)"><rect fill="#C0C0C0" stroke="none" x="313" y="31" width="214" height="240" opacity="0.2"/></g><g transform="translate(-14,-14) scale(1,1)"><rect fill="#ffffff" stroke="none" x="296" y="24" width="224" height="240"/></g><g transform="translate(-14,-14) scale(1,1)"><path fill="none" stroke="#000000" d="M 296 24 L 520 24 L 520 264 L 296 264 L 296 24 Z Z" stroke-miterlimit="10"/></g><g transform="translate(-14,-14) scale(1,1)"><rect fill="#ffffff" stroke="none" x="296" y="24" width="224" height="240"/></g><g transform="translate(-14,-14) scale(1,1)"><path fill="none" stroke="#000000" d="M 296 24 L 520 24 L 520 264 L 296 264 L 296 24 Z Z" stroke-miterlimit="10"/></g><g transform="translate(-14,-14) scale(1,1)"><rect fill="#ffffff" stroke="none" x="500" y="34" width="13" height="16"/></g><g transform="translate(-14,-14) scale(1,1)"><path fill="none" stroke="#000000" d="M 500 34 L 513 34 L 513 50 L 500 50 L 500 34 Z Z" stroke-miterlimit="10"/></g><g transform="translate(-14,-14) scale(1,1)"><rect fill="#ffffff" stroke="none" x="497" y="37" width="7" height="4"/></g><g transform="translate(-14,-14) scale(1,1)"><path fill="none" stroke="#000000" d="M 497 37 L 504 37 L 504 41 L 497 41 L 497 37 Z Z" stroke-miterlimit="10"/></g><g transform="translate(-14,-14) scale(1,1)"><rect fill="#ffffff" stroke="none" x="497" y="43" width="7" height="4"/></g><g transform="translate(-14,-14) scale(1,1)"><path fill="none" stroke="#000000" d="M 497 43 L 504 43 L 504 47 L 497 47 L 497 43 Z Z" stroke-miterlimit="10"/></g><g transform="translate(-14,-14) scale(1,1)"><g><path fill="none" stroke="none"/><text fill="#000000" stroke="none" font-family="Arial" font-size="13px" font-style="normal" font-weight="bold" text-decoration="none" x="346.853271484375" y="43.5">SafeSuggestions</text></g></g><g transform="translate(-14,-14) scale(1,1)"><rect fill="#C0C0C0" stroke="none" x="353" y="87" width="126" height="44" opacity="0.2"/></g><g transform="translate(-14,-14) scale(1,1)"><rect fill="#ffffff" stroke="none" x="336" y="80" width="136" height="44"/></g><g transform="translate(-14,-14) scale(1,1)"><path fill="none" stroke="#000000" d="M 336 80 L 472 80 L 472 124 L 336 124 L 336 80 Z Z" stroke-miterlimit="10"/></g><g transform="translate(-14,-14) scale(1,1)"><rect fill="#ffffff" stroke="none" x="336" y="80" width="136" height="44"/></g><g transform="translate(-14,-14) scale(1,1)"><path fill="none" stroke="#000000" d="M 336 80 L 472 80 L 472 124 L 336 124 L 336 80 Z Z" stroke-miterlimit="10"/></g><g transform="translate(-14,-14) scale(1,1)"><rect fill="#ffffff" stroke="none" x="452" y="90" width="13" height="16"/></g><g transform="translate(-14,-14) scale(1,1)"><path fill="none" stroke="#000000" d="M 452 90 L 465 90 L 465 106 L 452 106 L 452 90 Z Z" stroke-miterlimit="10"/></g><g transform="translate(-14,-14) scale(1,1)"><rect fill="#ffffff" stroke="none" x="449" y="93" width="7" height="4"/></g><g transform="translate(-14,-14) scale(1,1)"><path fill="none" stroke="#000000" d="M 449 93 L 456 93 L 456 97 L 449 97 L 449 93 Z Z" stroke-miterlimit="10"/></g><g transform="translate(-14,-14) scale(1,1)"><rect fill="#ffffff" stroke="none" x="449" y="99" width="7" height="4"/></g><g transform="translate(-14,-14) scale(1,1)"><path fill="none" stroke="#000000" d="M 449 99 L 456 99 L 456 103 L 449 103 L 449 99 Z Z" stroke-miterlimit="10"/></g><g transform="translate(-14,-14) scale(1,1)"><g><path fill="none" stroke="none"/><text fill="#000000" stroke="none" font-family="Arial" font-size="13px" font-style="normal" font-weight="bold" text-decoration="none" x="348.6455078125" y="99.5">QueryManager</text></g></g><g transform="translate(-14,-14) scale(1,1)"><rect fill="#C0C0C0" stroke="none" x="353" y="191" width="126" height="44" opacity="0.2"/></g><g transform="translate(-14,-14) scale(1,1)"><rect fill="#ffffff" stroke="none" x="336" y="184" width="136" height="44"/></g><g transform="translate(-14,-14) scale(1,1)"><path fill="none" stroke="#000000" d="M 336 184 L 472 184 L 472 228 L 336 228 L 336 184 Z Z" stroke-miterlimit="10"/></g><g transform="translate(-14,-14) scale(1,1)"><rect fill="#ffffff" stroke="none" x="336" y="184" width="136" height="44"/></g><g transform="translate(-14,-14) scale(1,1)"><path fill="none" stroke="#000000" d="M 336 184 L 472 184 L 472 228 L 336 228 L 336 184 Z Z" stroke-miterlimit="10"/></g><g transform="translate(-14,-14) scale(1,1)"><rect fill="#ffffff" stroke="none" x="452" y="194" width="13" height="16"/></g><g transform="translate(-14,-14) scale(1,1)"><path fill="none" stroke="#000000" d="M 452 194 L 465 194 L 465 210 L 452 210 L 452 194 Z Z" stroke-miterlimit="10"/></g><g transform="translate(-14,-14) scale(1,1)"><rect fill="#ffffff" stroke="none" x="449" y="197" width="7" height="4"/></g><g transform="translate(-14,-14) scale(1,1)"><path fill="none" stroke="#000000" d="M 449 197 L 456 197 L 456 201 L 449 201 L 449 197 Z Z" stroke-miterlimit="10"/></g><g transform="translate(-14,-14) scale(1,1)"><rect fill="#ffffff" stroke="none" x="449" y="203" width="7" height="4"/></g><g transform="translate(-14,-14) scale(1,1)"><path fill="none" stroke="#000000" d="M 449 203 L 456 203 L 456 207 L 449 207 L 449 203 Z Z" stroke-miterlimit="10"/></g><g transform="translate(-14,-14) scale(1,1)"><g><path fill="none" stroke="none"/><text fill="#000000" stroke="none" font-family="Arial" font-size="13px" font-style="normal" font-weight="bold" text-decoration="none" x="358.03369140625" y="203.5">InfoUpdater</text></g></g><g transform="translate(-14,-14) scale(1,1)"><rect fill="#C0C0C0" stroke="none" x="745" y="151" width="98.44091796875" height="44" opacity="0.2"/></g><g transform="translate(-14,-14) scale(1,1)"><rect fill="#ffffff" stroke="none" x="728" y="144" width="108.44091796875" height="44"/></g><g transform="translate(-14,-14) scale(1,1)"><path fill="none" stroke="#000000" d="M 728 144 L 836.44091796875 144 L 836.44091796875 188 L 728 188 L 728 144 Z Z" stroke-miterlimit="10"/></g><g transform="translate(-14,-14) scale(1,1)"><rect fill="#ffffff" stroke="none" x="728" y="144" width="108.44091796875" height="44"/></g><g transform="translate(-14,-14) scale(1,1)"><path fill="none" stroke="#000000" d="M 728 144 L 836.44091796875 144 L 836.44091796875 188 L 728 188 L 728 144 Z Z" stroke-miterlimit="10"/></g><g transform="translate(-14,-14) scale(1,1)"><rect fill="#ffffff" stroke="none" x="816.44091796875" y="154" width="13" height="16"/></g><g transform="translate(-14,-14) scale(1,1)"><path fill="none" stroke="#000000" d="M 816.44091796875 154 L 829.44091796875 154 L 829.44091796875 170 L 816.44091796875 170 L 816.44091796875 154 Z Z" stroke-miterlimit="10"/></g><g transform="translate(-14,-14) scale(1,1)"><rect fill="#ffffff" stroke="none" x="813.44091796875" y="157" width="7" height="4"/></g><g transform="translate(-14,-14) scale(1,1)"><path fill="none" stroke="#000000" d="M 813.44091796875 157 L 820.44091796875 157 L 820.44091796875 161 L 813.44091796875 161 L 813.44091796875 157 Z Z" stroke-miterlimit="10"/></g><g transform="translate(-14,-14) scale(1,1)"><rect fill="#ffffff" stroke="none" x="813.44091796875" y="163" width="7" height="4"/></g><g transform="translate(-14,-14) scale(1,1)"><path fill="none" stroke="#000000" d="M 813.44091796875 163 L 820.44091796875 163 L 820.44091796875 167 L 813.44091796875 167 L 813.44091796875 163 Z Z" stroke-miterlimit="10"/></g><g transform="translate(-14,-14) scale(1,1)"><g><path fill="none" stroke="none"/><text fill="#000000" stroke="none" font-family="Arial" font-size="13px" font-style="normal" font-weight="bold" text-decoration="none" x="751.44091796875" y="163.5">DBMS</text></g></g><g transform="translate(-14,-14) scale(1,1)"><rect fill="#C0C0C0" stroke="none" x="41" y="87" width="98.44091796875" height="44" opacity="0.2"/></g><g transform="translate(-14,-14) scale(1,1)"><rect fill="#ffffff" stroke="none" x="24" y="80" width="108.44091796875" height="44"/></g><g transform="translate(-14,-14) scale(1,1)"><path fill="none" stroke="#000000" d="M 24 80 L 132.44091796875 80 L 132.44091796875 124 L 24 124 L 24 80 Z Z" stroke-miterlimit="10"/></g><g transform="translate(-14,-14) scale(1,1)"><rect fill="#ffffff" stroke="none" x="24" y="80" width="108.44091796875" height="44"/></g><g transform="translate(-14,-14) scale(1,1)"><path fill="none" stroke="#000000" d="M 24 80 L 132.44091796875 80 L 132.44091796875 124 L 24 124 L 24 80 Z Z" stroke-miterlimit="10"/></g><g transform="translate(-14,-14) scale(1,1)"><rect fill="#ffffff" stroke="none" x="112.44091796875" y="90" width="13" height="16"/></g><g transform="translate(-14,-14) scale(1,1)"><path fill="none" stroke="#000000" d="M 112.44091796875 90 L 125.44091796875 90 L 125.44091796875 106 L 112.44091796875 106 L 112.44091796875 90 Z Z" stroke-miterlimit="10"/></g><g transform="translate(-14,-14) scale(1,1)"><rect fill="#ffffff" stroke="none" x="109.44091796875" y="93" width="7" height="4"/></g><g transform="translate(-14,-14) scale(1,1)"><path fill="none" stroke="#000000" d="M 109.44091796875 93 L 116.44091796875 93 L 116.44091796875 97 L 109.44091796875 97 L 109.44091796875 93 Z Z" stroke-miterlimit="10"/></g><g transform="translate(-14,-14) scale(1,1)"><rect fill="#ffffff" stroke="none" x="109.44091796875" y="99" width="7" height="4"/></g><g transform="translate(-14,-14) scale(1,1)"><path fill="none" stroke="#000000" d="M 109.44091796875 99 L 116.44091796875 99 L 116.44091796875 103 L 109.44091796875 103 L 109.44091796875 99 Z Z" stroke-miterlimit="10"/></g><g transform="translate(-14,-14) scale(1,1)"><g><path fill="none" stroke="none"/><text fill="#000000" stroke="none" font-family="Arial" font-size="13px" font-style="normal" font-weight="bold" text-decoration="none" x="46.7109375" y="99.5">Router</text></g></g><g transform="translate(-14,-14) scale(1,1)"><rect fill="#C0C0C0" stroke="none" x="161" y="399" width="118" height="44" opacity="0.2"/></g><g transform="translate(-14,-14) scale(1,1)"><rect fill="#ffffff" stroke="none" x="144" y="392" width="128" height="44"/></g><g transform="translate(-14,-14) scale(1,1)"><path fill="none" stroke="#000000" d="M 144 392 L 272 392 L 272 436 L 144 436 L 144 392 Z Z" stroke-miterlimit="10"/></g><g transform="translate(-14,-14) scale(1,1)"><rect fill="#ffffff" stroke="none" x="144" y="392" width="128" height="44"/></g><g transform="translate(-14,-14) scale(1,1)"><path fill="none" stroke="#000000" d="M 144 392 L 272 392 L 272 436 L 144 436 L 144 392 Z Z" stroke-miterlimit="10"/></g><g transform="translate(-14,-14) scale(1,1)"><rect fill="#ffffff" stroke="none" x="252" y="402" width="13" height="16"/></g><g transform="translate(-14,-14) scale(1,1)"><path fill="none" stroke="#000000" d="M 252 402 L 265 402 L 265 418 L 252 418 L 252 402 Z Z" stroke-miterlimit="10"/></g><g transform="translate(-14,-14) scale(1,1)"><rect fill="#ffffff" stroke="none" x="249" y="405" width="7" height="4"/></g><g transform="translate(-14,-14) scale(1,1)"><path fill="none" stroke="#000000" d="M 249 405 L 256 405 L 256 409 L 249 409 L 249 405 Z Z" stroke-miterlimit="10"/></g><g transform="translate(-14,-14) scale(1,1)"><rect fill="#ffffff" stroke="none" x="249" y="411" width="7" height="4"/></g><g transform="translate(-14,-14) scale(1,1)"><path fill="none" stroke="#000000" d="M 249 411 L 256 411 L 256 415 L 249 415 L 249 411 Z Z" stroke-miterlimit="10"/></g><g transform="translate(-14,-14) scale(1,1)"><g><path fill="none" stroke="none"/><text fill="#000000" stroke="none" font-family="Arial" font-size="13px" font-style="normal" font-weight="bold" text-decoration="none" x="159.1455078125" y="411.5">GoogleMaps</text></g></g><g transform="translate(-14,-14) scale(1,1)"><rect fill="#C0C0C0" stroke="none" x="361" y="399" width="118" height="44" opacity="0.2"/></g><g transform="translate(-14,-14) scale(1,1)"><rect fill="#ffffff" stroke="none" x="344" y="392" width="128" height="44"/></g><g transform="translate(-14,-14) scale(1,1)"><path fill="none" stroke="#000000" d="M 344 392 L 472 392 L 472 436 L 344 436 L 344 392 Z Z" stroke-miterlimit="10"/></g><g transform="translate(-14,-14) scale(1,1)"><rect fill="#ffffff" stroke="none" x="344" y="392" width="128" height="44"/></g><g transform="translate(-14,-14) scale(1,1)"><path fill="none" stroke="#000000" d="M 344 392 L 472 392 L 472 436 L 344 436 L 344 392 Z Z" stroke-miterlimit="10"/></g><g transform="translate(-14,-14) scale(1,1)"><rect fill="#ffffff" stroke="none" x="452" y="402" width="13" height="16"/></g><g transform="translate(-14,-14) scale(1,1)"><path fill="none" stroke="#000000" d="M 452 402 L 465 402 L 465 418 L 452 418 L 452 402 Z Z" stroke-miterlimit="10"/></g><g transform="translate(-14,-14) scale(1,1)"><rect fill="#ffffff" stroke="none" x="449" y="405" width="7" height="4"/></g><g transform="translate(-14,-14) scale(1,1)"><path fill="none" stroke="#000000" d="M 449 405 L 456 405 L 456 409 L 449 409 L 449 405 Z Z" stroke-miterlimit="10"/></g><g transform="translate(-14,-14) scale(1,1)"><rect fill="#ffffff" stroke="none" x="449" y="411" width="7" height="4"/></g><g transform="translate(-14,-14) scale(1,1)"><path fill="none" stroke="#000000" d="M 449 411 L 456 411 L 456 415 L 449 415 L 449 411 Z Z" stroke-miterlimit="10"/></g><g transform="translate(-14,-14) scale(1,1)"><g><path fill="none" stroke="none"/><text fill="#000000" stroke="none" font-family="Arial" font-size="13px" font-style="normal" font-weight="bold" text-decoration="none" x="363.484130859375" y="411.5">Information</text></g></g><g transform="translate(-14,-14) scale(1,1)"><path fill="#C0C0C0" stroke="none" d="M 203.5 338.5 C 203.5 332.1487248 208.6487248 327 215 327 C 221.3512752 327 226.5 332.1487248 226.5 338.5 C 226.5 344.8512752 221.3512752 350 215 350 C 208.6487248 350 203.5 344.8512752 203.5 338.5 Z" opacity="0.2"/></g><g transform="translate(-14,-14) scale(1,1)"><path fill="none" stroke="#000000" d="M 196.5 331 A 11.5 11.5 0 0 1 219.5 331" stroke-miterlimit="10"/></g><g transform="translate(-14,-14) scale(1,1)"><path fill="#ffffff" stroke="none" d="M 199.5 331.5 C 199.5 326.8055792 203.3055792 323 208 323 C 212.6944208 323 216.5 326.8055792 216.5 331.5 C 216.5 336.1944208 212.6944208 340 208 340 C 203.3055792 340 199.5 336.1944208 199.5 331.5 Z"/></g><g transform="translate(-14,-14) scale(1,1)"><path fill="none" stroke="#000000" d="M 199.5 331.5 C 199.5 326.8055792 203.3055792 323 208 323 C 212.6944208 323 216.5 326.8055792 216.5 331.5 C 216.5 336.1944208 212.6944208 340 208 340 C 203.3055792 340 199.5 336.1944208 199.5 331.5 Z" stroke-miterlimit="10"/></g><g transform="translate(-14,-14) scale(1,1)"><g><path fill="none" stroke="none"/><text fill="#000000" stroke="none" font-family="Arial" font-size="13px" font-style="normal" font-weight="bold" text-decoration="none" x="181.628662109375" y="362.5">mapsAPI</text></g></g><g transform="translate(-14,-14) scale(1,1)"><path fill="#C0C0C0" stroke="none" d="M 400.759521484375 338.5 C 400.759521484375 332.1487248 405.908246284375 327 412.259521484375 327 C 418.610796684375 327 423.759521484375 332.1487248 423.759521484375 338.5 C 423.759521484375 344.8512752 418.610796684375 350 412.259521484375 350 C 405.908246284375 350 400.759521484375 344.8512752 400.759521484375 338.5 Z" opacity="0.2"/></g><g transform="translate(-14,-14) scale(1,1)"><path fill="none" stroke="#000000" d="M 393.5472281256214 332.041161079489 A 11.5 11.5 0 0 1 416.4527718743786 329.958838920511" stroke-miterlimit="10"/></g><g transform="translate(-14,-14) scale(1,1)"><path fill="#ffffff" stroke="none" d="M 396.759521484375 331.5 C 396.759521484375 326.8055792 400.565100684375 323 405.259521484375 323 C 409.953942284375 323 413.759521484375 326.8055792 413.759521484375 331.5 C 413.759521484375 336.1944208 409.953942284375 340 405.259521484375 340 C 400.565100684375 340 396.759521484375 336.1944208 396.759521484375 331.5 Z"/></g><g transform="translate(-14,-14) scale(1,1)"><path fill="none" stroke="#000000" d="M 396.759521484375 331.5 C 396.759521484375 326.8055792 400.565100684375 323 405.259521484375 323 C 409.953942284375 323 413.759521484375 326.8055792 413.759521484375 331.5 C 413.759521484375 336.1944208 409.953942284375 340 405.259521484375 340 C 400.565100684375 340 396.759521484375 336.1944208 396.759521484375 331.5 Z" stroke-miterlimit="10"/></g><g transform="translate(-14,-14) scale(1,1)"><g><path fill="none" stroke="none"/><text fill="#000000" stroke="none" font-family="Arial" font-size="13px" font-style="normal" font-weight="bold" text-decoration="none" x="360.825927734375" y="362.5">municipalityAPI</text></g></g><g transform="translate(-14,-14) scale(1,1)"><path fill="none" stroke="#000000" d="M 208 392 L 208 343" stroke-miterlimit="10"/></g><g transform="translate(-14,-14) scale(1,1)"><path fill="none" stroke="#000000" d="M 405 392 L 405 343" stroke-miterlimit="10"/></g><g transform="translate(-14,-14) scale(1,1)"><path fill="#C0C0C0" stroke="none" d="M 635.200439453125 170.5 C 635.200439453125 164.1487248 640.349164253125 159 646.700439453125 159 C 653.051714653125 159 658.200439453125 164.1487248 658.200439453125 170.5 C 658.200439453125 176.8512752 653.051714653125 182 646.700439453125 182 C 640.349164253125 182 635.200439453125 176.8512752 635.200439453125 170.5 Z" opacity="0.2"/></g><g transform="translate(-14,-14) scale(1,1)"><path fill="none" stroke="#000000" d="M 627.5472281256214 161.95883892051103 A 11.5 11.5 0 0 1 650.4527718743786 164.04116107948897" stroke-miterlimit="10"/></g><g transform="translate(-14,-14) scale(1,1)"><path fill="none" stroke="#000000" d="M 650.5 163 A 11.5 11.5 0 0 1 627.5 163" stroke-miterlimit="10"/></g><g transform="translate(-14,-14) scale(1,1)"><path fill="#ffffff" stroke="none" d="M 631.200439453125 163.5 C 631.200439453125 158.8055792 635.006018653125 155 639.700439453125 155 C 644.394860253125 155 648.200439453125 158.8055792 648.200439453125 163.5 C 648.200439453125 168.1944208 644.394860253125 172 639.700439453125 172 C 635.006018653125 172 631.200439453125 168.1944208 631.200439453125 163.5 Z"/></g><g transform="translate(-14,-14) scale(1,1)"><path fill="none" stroke="#000000" d="M 631.200439453125 163.5 C 631.200439453125 158.8055792 635.006018653125 155 639.700439453125 155 C 644.394860253125 155 648.200439453125 158.8055792 648.200439453125 163.5 C 648.200439453125 168.1944208 644.394860253125 172 639.700439453125 172 C 635.006018653125 172 631.200439453125 168.1944208 631.200439453125 163.5 Z" stroke-miterlimit="10"/></g><g transform="translate(-14,-14) scale(1,1)"><g><path fill="none" stroke="none"/><text fill="#000000" stroke="none" font-family="Arial" font-size="13px" font-style="normal" font-weight="bold" text-decoration="none" x="582.25732421875" y="194.5">dbmsFunctionalities</text></g></g><g transform="translate(-14,-14) scale(1,1)"><path fill="none" stroke="#000000" d="M 728 163 L 651.200439453125 163" stroke-miterlimit="10"/></g><g transform="translate(-14,-14) scale(1,1)"><path fill="#C0C0C0" stroke="none" d="M 215.568603515625 106.5 C 215.568603515625 100.1487248 220.717328315625 95 227.068603515625 95 C 233.419878715625 95 238.568603515625 100.1487248 238.568603515625 106.5 C 238.568603515625 112.8512752 233.419878715625 118 227.068603515625 118 C 220.717328315625 118 215.568603515625 112.8512752 215.568603515625 106.5 Z" opacity="0.2"/></g><g transform="translate(-14,-14) scale(1,1)"><path fill="none" stroke="#000000" d="M 220 110.5 A 11.5 11.5 0 0 1 220 87.5" stroke-miterlimit="10"/></g><g transform="translate(-14,-14) scale(1,1)"><path fill="#ffffff" stroke="none" d="M 211.568603515625 99.5 C 211.568603515625 94.8055792 215.374182715625 91 220.068603515625 91 C 224.763024315625 91 228.568603515625 94.8055792 228.568603515625 99.5 C 228.568603515625 104.1944208 224.763024315625 108 220.068603515625 108 C 215.374182715625 108 211.568603515625 104.1944208 211.568603515625 99.5 Z"/></g><g transform="translate(-14,-14) scale(1,1)"><path fill="none" stroke="#000000" d="M 211.568603515625 99.5 C 211.568603515625 94.8055792 215.374182715625 91 220.068603515625 91 C 224.763024315625 91 228.568603515625 94.8055792 228.568603515625 99.5 C 228.568603515625 104.1944208 224.763024315625 108 220.068603515625 108 C 215.374182715625 108 211.568603515625 104.1944208 211.568603515625 99.5 Z" stroke-miterlimit="10"/></g><g transform="translate(-14,-14) scale(1,1)"><g><path fill="none" stroke="none"/><text fill="#000000" stroke="none" font-family="Arial" font-size="13px" font-style="normal" font-weight="bold" text-decoration="none" x="164.0537109375" y="130.5">manageSuggestion</text></g></g><g transform="translate(-14,-14) scale(1,1)"><path fill="none" stroke="#000000" d="M 336 99 L 231.568603515625 99" stroke-miterlimit="10"/></g><g transform="translate(-14,-14) scale(1,1)"><path fill="none" stroke="#000000" d="M 132 99 L 208.568603515625 99" stroke-miterlimit="10"/></g><g transform="translate(-14,-14) scale(1,1)"><path fill="none" stroke="#000000" d="M 472 104 L 640 104 L 640 152" stroke-miterlimit="10"/></g><g transform="translate(-14,-14) scale(1,1)"><path fill="none" stroke="#000000" d="M 472 208 L 639 208 L 639 175" stroke-miterlimit="10"/></g><g transform="translate(-14,-14) scale(1,1)"><path fill="none" stroke="#000000" d="M 404 228 L 404 320" stroke-miterlimit="10"/></g><g transform="translate(-14,-14) scale(1,1)"><path fill="none" stroke="#000000" d="M 400 124 L 400 152 L 208 152 L 208 320" stroke-miterlimit="10"/></g></svg>