<?xml version="1.0" encoding="UTF-8" standalone="no"?><svg xmlns="http://www.w3.org/2000/svg" xmlns:xlink="http://www.w3.org/1999/xlink" contentScriptType="application/ecmascript" contentStyleType="text/css" height="652px" preserveAspectRatio="none" style="width:965px;height:652px;" version="1.1" viewBox="0 0 965 652" width="965px" zoomAndPan="magnify">
    <defs>
        <filter height="300%" id="flj56y3er52de" width="300%" x="-1" y="-1">
            <feGaussianBlur result="blurOut" stdDeviation="2.0" />
            <feColorMatrix in="blurOut" result="blurOut2" type="matrix" values="0 0 0 0 0 0 0 0 0 0 0 0 0 0 0 0 0 0 .4 0" />
            <feOffset dx="4.0" dy="4.0" in="blurOut2" result="blurOut3" />
            <feBlend in="SourceGraphic" in2="blurOut3" mode="normal" />
        </filter>
    </defs>
    <g><text fill="#000000" font-family="sans-serif" font-size="14" font-weight="bold" lengthAdjust="spacingAndGlyphs" textLength="81" x="442.75" y="24.5332">Tickets Info</text>
        <rect fill="#FFFFFF" filter="url(#flj56y3er52de)" height="416.9219" style="stroke: #A80036; stroke-width: 1.0;" width="10" x="34" y="129.2188" />
        <rect fill="#FFFFFF" filter="url(#flj56y3er52de)" height="416.9219" style="stroke: #A80036; stroke-width: 1.0;" width="10" x="251" y="129.2188" />
        <rect fill="#FFFFFF" filter="url(#flj56y3er52de)" height="221.4609" style="stroke: #A80036; stroke-width: 1.0;" width="10" x="455" y="333.6797" />
        <rect fill="#FFFFFF" filter="url(#flj56y3er52de)" height="121.4063" style="stroke: #A80036; stroke-width: 1.0;" width="10" x="659" y="364.0313" />
        <rect fill="#FFFFFF" filter="url(#flj56y3er52de)" height="60.7031" style="stroke: #A80036; stroke-width: 1.0;" width="10" x="817" y="394.3828" />
        <rect fill="#FFFFFF" filter="url(#flj56y3er52de)" height="30.3516" style="stroke: #A80036; stroke-width: 1.0;" width="10" x="904.5" y="212.2734" />
        <line style="stroke: #A80036; stroke-width: 1.0; stroke-dasharray: 5.0,5.0;" x1="39" x2="39" y1="119.2188" y2="564.1406" />
        <line style="stroke: #A80036; stroke-width: 1.0; stroke-dasharray: 5.0,5.0;" x1="256" x2="256" y1="119.2188" y2="564.1406" />
        <line style="stroke: #A80036; stroke-width: 1.0; stroke-dasharray: 5.0,5.0;" x1="459.5" x2="459.5" y1="119.2188" y2="564.1406" />
        <line style="stroke: #A80036; stroke-width: 1.0; stroke-dasharray: 5.0,5.0;" x1="664" x2="664" y1="119.2188" y2="564.1406" />
        <line style="stroke: #A80036; stroke-width: 1.0; stroke-dasharray: 5.0,5.0;" x1="821.5" x2="821.5" y1="119.2188" y2="564.1406" />
        <line style="stroke: #A80036; stroke-width: 1.0; stroke-dasharray: 5.0,5.0;" x1="909.5" x2="909.5" y1="119.2188" y2="564.1406" /><text fill="#000000" font-family="sans-serif" font-size="14" lengthAdjust="spacingAndGlyphs" textLength="56" x="8" y="116.1426">Authority</text>
        <ellipse cx="39" cy="44.6094" fill="#FEFECE" filter="url(#flj56y3er52de)" rx="8" ry="8" style="stroke: #A80036; stroke-width: 2.0;" />
        <path d="M39,52.6094 L39,79.6094 M26,60.6094 L52,60.6094 M39,79.6094 L26,94.6094 M39,79.6094 L52,94.6094 " fill="none" filter="url(#flj56y3er52de)" style="stroke: #A80036; stroke-width: 2.0;" /><text fill="#000000" font-family="sans-serif" font-size="14" lengthAdjust="spacingAndGlyphs" textLength="56" x="8" y="577.6738">Authority</text>
        <ellipse cx="39" cy="590.75" fill="#FEFECE" filter="url(#flj56y3er52de)" rx="8" ry="8" style="stroke: #A80036; stroke-width: 2.0;" />
        <path d="M39,598.75 L39,625.75 M26,606.75 L52,606.75 M39,625.75 L26,640.75 M39,625.75 L52,640.75 " fill="none" filter="url(#flj56y3er52de)" style="stroke: #A80036; stroke-width: 2.0;" />
        <rect fill="#FEFECE" filter="url(#flj56y3er52de)" height="31.6094" style="stroke: #A80036; stroke-width: 1.5;" width="68" x="220" y="82.6094" /><text fill="#000000" font-family="sans-serif" font-size="14" lengthAdjust="spacingAndGlyphs" textLength="54" x="227" y="104.1426">UserApp</text>
        <rect fill="#FEFECE" filter="url(#flj56y3er52de)" height="31.6094" style="stroke: #A80036; stroke-width: 1.5;" width="68" x="220" y="563.1406" /><text fill="#000000" font-family="sans-serif" font-size="14" lengthAdjust="spacingAndGlyphs" textLength="54" x="227" y="584.6738">UserApp</text>
        <rect fill="#FEFECE" filter="url(#flj56y3er52de)" height="31.6094" style="stroke: #A80036; stroke-width: 1.5;" width="57" x="429.5" y="82.6094" /><text fill="#000000" font-family="sans-serif" font-size="14" lengthAdjust="spacingAndGlyphs" textLength="43" x="436.5" y="104.1426">Router</text>
        <rect fill="#FEFECE" filter="url(#flj56y3er52de)" height="31.6094" style="stroke: #A80036; stroke-width: 1.5;" width="57" x="429.5" y="563.1406" /><text fill="#000000" font-family="sans-serif" font-size="14" lengthAdjust="spacingAndGlyphs" textLength="43" x="436.5" y="584.6738">Router</text>
        <rect fill="#FEFECE" filter="url(#flj56y3er52de)" height="31.6094" style="stroke: #A80036; stroke-width: 1.5;" width="102" x="611" y="82.6094" /><text fill="#000000" font-family="sans-serif" font-size="14" lengthAdjust="spacingAndGlyphs" textLength="88" x="618" y="104.1426">QueryHandler</text>
        <rect fill="#FEFECE" filter="url(#flj56y3er52de)" height="31.6094" style="stroke: #A80036; stroke-width: 1.5;" width="102" x="611" y="563.1406" /><text fill="#000000" font-family="sans-serif" font-size="14" lengthAdjust="spacingAndGlyphs" textLength="88" x="618" y="584.6738">QueryHandler</text>
        <rect fill="#FEFECE" filter="url(#flj56y3er52de)" height="31.6094" style="stroke: #A80036; stroke-width: 1.5;" width="53" x="793.5" y="82.6094" /><text fill="#000000" font-family="sans-serif" font-size="14" lengthAdjust="spacingAndGlyphs" textLength="39" x="800.5" y="104.1426">DBMS</text>
        <rect fill="#FEFECE" filter="url(#flj56y3er52de)" height="31.6094" style="stroke: #A80036; stroke-width: 1.5;" width="53" x="793.5" y="563.1406" /><text fill="#000000" font-family="sans-serif" font-size="14" lengthAdjust="spacingAndGlyphs" textLength="39" x="800.5" y="584.6738">DBMS</text>
        <rect fill="#FEFECE" filter="url(#flj56y3er52de)" height="31.6094" style="stroke: #A80036; stroke-width: 1.5;" width="94" x="860.5" y="82.6094" /><text fill="#000000" font-family="sans-serif" font-size="14" lengthAdjust="spacingAndGlyphs" textLength="80" x="867.5" y="104.1426">GoogleMaps</text>
        <rect fill="#FEFECE" filter="url(#flj56y3er52de)" height="31.6094" style="stroke: #A80036; stroke-width: 1.5;" width="94" x="860.5" y="563.1406" /><text fill="#000000" font-family="sans-serif" font-size="14" lengthAdjust="spacingAndGlyphs" textLength="80" x="867.5" y="584.6738">GoogleMaps</text>
        <rect fill="#FFFFFF" filter="url(#flj56y3er52de)" height="416.9219" style="stroke: #A80036; stroke-width: 1.0;" width="10" x="34" y="129.2188" />
        <rect fill="#FFFFFF" filter="url(#flj56y3er52de)" height="416.9219" style="stroke: #A80036; stroke-width: 1.0;" width="10" x="251" y="129.2188" />
        <rect fill="#FFFFFF" filter="url(#flj56y3er52de)" height="221.4609" style="stroke: #A80036; stroke-width: 1.0;" width="10" x="455" y="333.6797" />
        <rect fill="#FFFFFF" filter="url(#flj56y3er52de)" height="121.4063" style="stroke: #A80036; stroke-width: 1.0;" width="10" x="659" y="364.0313" />
        <rect fill="#FFFFFF" filter="url(#flj56y3er52de)" height="60.7031" style="stroke: #A80036; stroke-width: 1.0;" width="10" x="817" y="394.3828" />
        <rect fill="#FFFFFF" filter="url(#flj56y3er52de)" height="30.3516" style="stroke: #A80036; stroke-width: 1.0;" width="10" x="904.5" y="212.2734" />
        <polygon fill="#A80036" points="239,147.5703,249,151.5703,239,155.5703,243,151.5703" style="stroke: #A80036; stroke-width: 1.0;" />
        <line style="stroke: #A80036; stroke-width: 1.0;" x1="44" x2="245" y1="151.5703" y2="151.5703" /><text fill="#000000" font-family="sans-serif" font-size="13" lengthAdjust="spacingAndGlyphs" textLength="183" x="51" y="146.7139">showSafeAnalyticsQueryPage()</text>
        <polygon fill="#A80036" points="55,177.9219,45,181.9219,55,185.9219,51,181.9219" style="stroke: #A80036; stroke-width: 1.0;" />
        <line style="stroke: #A80036; stroke-width: 1.0; stroke-dasharray: 2.0,2.0;" x1="49" x2="250" y1="181.9219" y2="181.9219" /><text fill="#000000" font-family="sans-serif" font-size="13" lengthAdjust="spacingAndGlyphs" textLength="148" x="61" y="177.0654">SafeAnalytics query page</text>
        <polygon fill="#A80036" points="892.5,208.2734,902.5,212.2734,892.5,216.2734,896.5,212.2734" style="stroke: #A80036; stroke-width: 1.0;" />
        <line style="stroke: #A80036; stroke-width: 1.0;" x1="261" x2="898.5" y1="212.2734" y2="212.2734" /><text fill="#000000" font-family="sans-serif" font-size="13" lengthAdjust="spacingAndGlyphs" textLength="86" x="268" y="207.417">getQueryMap()</text>
        <polygon fill="#A80036" points="272,238.625,262,242.625,272,246.625,268,242.625" style="stroke: #A80036; stroke-width: 1.0;" />
        <line style="stroke: #A80036; stroke-width: 1.0; stroke-dasharray: 2.0,2.0;" x1="266" x2="908.5" y1="242.625" y2="242.625" /><text fill="#000000" font-family="sans-serif" font-size="13" lengthAdjust="spacingAndGlyphs" textLength="25" x="278" y="237.7686">Map</text>
        <polygon fill="#A80036" points="239,268.9766,249,272.9766,239,276.9766,243,272.9766" style="stroke: #A80036; stroke-width: 1.0;" />
        <line style="stroke: #A80036; stroke-width: 1.0;" x1="44" x2="245" y1="272.9766" y2="272.9766" /><text fill="#000000" font-family="sans-serif" font-size="13" lengthAdjust="spacingAndGlyphs" textLength="111" x="51" y="268.1201">Geographical filters</text>
        <polygon fill="#A80036" points="239,299.3281,249,303.3281,239,307.3281,243,303.3281" style="stroke: #A80036; stroke-width: 1.0;" />
        <line style="stroke: #A80036; stroke-width: 1.0;" x1="44" x2="245" y1="303.3281" y2="303.3281" /><text fill="#000000" font-family="sans-serif" font-size="13" lengthAdjust="spacingAndGlyphs" textLength="63" x="51" y="298.4717">Time filters</text>
        <polygon fill="#A80036" points="239,329.6797,249,333.6797,239,337.6797,243,333.6797" style="stroke: #A80036; stroke-width: 1.0;" />
        <line style="stroke: #A80036; stroke-width: 1.0;" x1="44" x2="245" y1="333.6797" y2="333.6797" /><text fill="#000000" font-family="sans-serif" font-size="13" lengthAdjust="spacingAndGlyphs" textLength="112" x="51" y="328.8232">License plate filters</text>
        <polygon fill="#A80036" points="443,360.0313,453,364.0313,443,368.0313,447,364.0313" style="stroke: #A80036; stroke-width: 1.0;" />
        <line style="stroke: #A80036; stroke-width: 1.0;" x1="261" x2="449" y1="364.0313" y2="364.0313" /><text fill="#000000" font-family="sans-serif" font-size="13" lengthAdjust="spacingAndGlyphs" textLength="170" x="268" y="359.1748">sendTicketsQuery(filter:Filter)</text>
        <polygon fill="#A80036" points="647,390.3828,657,394.3828,647,398.3828,651,394.3828" style="stroke: #A80036; stroke-width: 1.0;" />
        <line style="stroke: #A80036; stroke-width: 1.0;" x1="465" x2="653" y1="394.3828" y2="394.3828" /><text fill="#000000" font-family="sans-serif" font-size="13" lengthAdjust="spacingAndGlyphs" textLength="170" x="472" y="389.5264">sendTicketsQuery(filter:Filter)</text>
        <polygon fill="#A80036" points="805,420.7344,815,424.7344,805,428.7344,809,424.7344" style="stroke: #A80036; stroke-width: 1.0;" />
        <line style="stroke: #A80036; stroke-width: 1.0;" x1="669" x2="811" y1="424.7344" y2="424.7344" /><text fill="#000000" font-family="sans-serif" font-size="13" lengthAdjust="spacingAndGlyphs" textLength="124" x="676" y="419.8779">getData(query:Query)</text>
        <polygon fill="#A80036" points="680,451.0859,670,455.0859,680,459.0859,676,455.0859" style="stroke: #A80036; stroke-width: 1.0;" />
        <line style="stroke: #A80036; stroke-width: 1.0; stroke-dasharray: 2.0,2.0;" x1="674" x2="821" y1="455.0859" y2="455.0859" /><text fill="#000000" font-family="sans-serif" font-size="13" lengthAdjust="spacingAndGlyphs" textLength="81" x="686" y="450.2295">Violations Info</text>
        <polygon fill="#A80036" points="476,481.4375,466,485.4375,476,489.4375,472,485.4375" style="stroke: #A80036; stroke-width: 1.0;" />
        <line style="stroke: #A80036; stroke-width: 1.0; stroke-dasharray: 2.0,2.0;" x1="470" x2="663" y1="485.4375" y2="485.4375" /><text fill="#000000" font-family="sans-serif" font-size="13" lengthAdjust="spacingAndGlyphs" textLength="81" x="482" y="480.5811">Violations Info</text>
        <polygon fill="#A80036" points="272,511.7891,262,515.7891,272,519.7891,268,515.7891" style="stroke: #A80036; stroke-width: 1.0;" />
        <line style="stroke: #A80036; stroke-width: 1.0; stroke-dasharray: 2.0,2.0;" x1="266" x2="454" y1="515.7891" y2="515.7891" /><text fill="#000000" font-family="sans-serif" font-size="13" lengthAdjust="spacingAndGlyphs" textLength="81" x="278" y="510.9326">Violations Info</text>
        <polygon fill="#A80036" points="50,542.1406,40,546.1406,50,550.1406,46,546.1406" style="stroke: #A80036; stroke-width: 1.0;" />
        <line style="stroke: #A80036; stroke-width: 1.0; stroke-dasharray: 2.0,2.0;" x1="44" x2="255" y1="546.1406" y2="546.1406" /><text fill="#000000" font-family="sans-serif" font-size="13" lengthAdjust="spacingAndGlyphs" textLength="81" x="56" y="541.2842">Violations Info</text>
        <!--MD5=[c4b30e7418861ed42d7a9c0b9d64f564]
@startuml

title Tickets Info

actor Authority as auth
participant UserApp as app
participant "Router" as rout
participant "QueryHandler" as queryh
participant "DBMS" as db
participant "GoogleMaps" as google

activate auth
activate app

  auth -> app : showSafeAnalyticsQueryPage()
  app - -> auth : SafeAnalytics query page
  app -> google : getQueryMap()
  activate google
    google - -> app : Map
  deactivate google
  auth -> app : Geographical filters
  auth -> app : Time filters
  auth -> app : License plate filters

  activate rout
    app -> rout : sendTicketsQuery(filter:Filter)

    activate queryh

      rout -> queryh : sendTicketsQuery(filter:Filter)

      activate db

        queryh -> db : getData(query:Query)
        db - -> queryh : Violations Info

      deactivate db

      queryh - -> rout : Violations Info

    deactivate queryh

    rout - -> app : Violations Info


    app - -> auth : Violations Info

deactivate app
deactivate auth


@enduml

PlantUML version 1.2019.11(Sun Sep 22 12:02:15 CEST 2019)
(GPL source distribution)
Java Runtime: Java(TM) SE Runtime Environment
JVM: Java HotSpot(TM) Client VM
Java Version: 1.8.0_221-b11
Operating System: Windows 10
Default Encoding: Cp1252
Language: en
Country: US
-->
    </g>
</svg>